<mxfile host="www.draw.io" modified="2019-10-14T16:31:07.464Z" agent="Mozilla/5.0 (Macintosh; Intel Mac OS X 10_14_6) AppleWebKit/537.36 (KHTML, like Gecko) Chrome/76.0.3809.132 Safari/537.36" etag="zVgEeE6g-dgB-5L5ibR6" version="12.1.1" type="github" pages="1">
  <diagram id="4Rm2ZMxlAbs7q3RVxfDR" name="Transformation Points">
    <mxGraphModel dx="1015" dy="595" grid="1" gridSize="10" guides="1" tooltips="1" connect="1" arrows="1" fold="1" page="1" pageScale="1" pageWidth="1169" pageHeight="827" math="0" shadow="0">
      <root>
        <mxCell id="0"/>
        <mxCell id="1" parent="0"/>
        <mxCell id="MC85YrfVaI_m6A-9rOTC-1" value="symitar-accounts" style="rounded=1;whiteSpace=wrap;html=1;" parent="1" vertex="1">
          <mxGeometry x="280" y="580" width="120" height="60" as="geometry"/>
        </mxCell>
        <mxCell id="MC85YrfVaI_m6A-9rOTC-2" value="symitar-txns" style="rounded=1;whiteSpace=wrap;html=1;" parent="1" vertex="1">
          <mxGeometry x="615" y="580" width="120" height="60" as="geometry"/>
        </mxCell>
        <mxCell id="MC85YrfVaI_m6A-9rOTC-11" style="edgeStyle=orthogonalEdgeStyle;rounded=0;orthogonalLoop=1;jettySize=auto;html=1;exitX=0.5;exitY=0;exitDx=0;exitDy=0;entryX=0.5;entryY=1;entryDx=0;entryDy=0;" parent="1" source="MC85YrfVaI_m6A-9rOTC-3" target="MC85YrfVaI_m6A-9rOTC-1" edge="1">
          <mxGeometry relative="1" as="geometry">
            <Array as="points">
              <mxPoint x="500" y="720"/>
              <mxPoint x="340" y="720"/>
            </Array>
          </mxGeometry>
        </mxCell>
        <mxCell id="MC85YrfVaI_m6A-9rOTC-3" value="" style="shape=image;verticalLabelPosition=bottom;labelBackgroundColor=#ffffff;verticalAlign=top;aspect=fixed;imageAspect=0;image=data:image/png,iVBORw0KGgoAAAANSUhEUgAAAwwAAADcCAYAAADdqSbJAAAgAElEQVR4nOy9f5Bdx3Xn9zlTU1NY1BSCoLBYZAjDMAqhAS4M0LKWgmlaYRRZAoghLcueJy1N6rcty5ZWomlZpahULFqlVRRZkrVe/bLXkvXbHiiObA49T7QsaxVFAbmKQjBcAquVaSxNISwWioVCGBCFQs3JH3277+m+fd8Mfs4APF9y8N7r27f7dN++p8/pc043OBwOh8PhcDgcDofD4XA4HA6Hw+FwnCtkuQlwOBwOh2MpmNuxexXwSkURZG768KGTy02Tw+FwPB8wttwEOBwOh8OxGOZ27EaVV6P6WUE+B3zsvh27Vy83XQ6Hw/F8gCsMDofD4bgSMCHCncCEouMKr0H50Nz23T6PORwOxyWGM1qHw+FwXAkYQ7keEQRBVMdE+HWEd8zt2D2x3MQ5HA7H1QxXGBwOh8NxJWCtousAFAURgHHgXpTb5nbsHl9W6hwOh+MqhisMDofD4VjxUHSLNNt0SLNfhyoAkwofVrhpuWhzOByOqx2uMDgcDodjxUNgM0jSEpq09prqJ+d27N66PNQ5HA7H1Q1XGBwOh8Ox8qFsAZKWoKogGj5RgO3AX87t2L1heQh0OByOqxeuMDgcDodj5UPkxwG00RhEhBDKkP3eqfDpuR271y0foQ6Hw3H1wRUGh8PhcKxozO3YvQplI4BosCoku4KFgMBtwHvmtu+avNx0OhwOx9UKVxgcDofDsdKxGqFxNZLGLcmoCzEaGgVlTOGtCm/ynZMcDofj4sAVBofD4XCsdKxS1Q1K+E/if1FRSLpD456ETojwPuD25SDW4XA4rja4wuBwOByOlY7VIrIhKgoJGhSILgSQSYWPzu3Y/bK5HbsuF50Oh8NxVcIVBofD4XCsdKxBWauKURA0d0WCZstVbb4qwDqFPwHZPrdj9+Wl2OFwOK4iuMLgcDgcjpWOLQAiauwLghIOcUup0qSrhu/hYxPwWVXdcnlJdjgcjqsHrjA4HA6HY6Vji0pQD1qoOcQtfkr2gUTLA3sI7klrLzWhDofDcTXCFQaHw+FwrGwoPx42QLJ7I0lzKWZpFAghBUXHJA3uS68APja3Y/eqy06/w+FwXOFwhcHhcDgcKxy6BQnhzmlnJJrQ5vQnIBJjF5rrgiQFAoABcO/c9t0+9zkcDsc5wJmmw+FwOFYs7tu+exKR9SmumXhomzYKQmN5aK4XTkvpnubXKlTfivCGuR2uNDgcDsdS4QzT4XA4HCsWIroWWAM0QcySLAqKho2SRLBHMkT3pBTK0Pzb7LC0Gvggykvc0uBwOBxLgzNLh8PhcKxgyFpgbdzyqIWmOAWsG5JIck/CKBEQYqCb7+sQPovwwktPv8PhcFz5cIXB4XA4HCsZa4A17anOZkekZuOkdBpD5p+kKZ5B0h6r2cFvm1D947ntu7dfnmY4HA7HlQtXGBwOh8OxYqHKOmAyHdhmgp7LNBFpXJJiKHSDeD4DoGIPf5OdiH58bsfuDZe0EQ6Hw3GFwxUGh8PhcKxYiLAZZUxUatdaaOtvJPZchiw9Hs2QrBNjIC9GfbtVh8PhGAVXGBwOh8OxgqE/0RoM7EFtGj2PmpOdpc0TNYkmIDqLfWi8k0zow7iKvhr0d+e275q4DA1yOByOKw6uMDgcDodjxUKVLa2VIMYxNPskNcqAiBSxDY1jkkJSMjRsyKpNmqCIRAcmAeS9ivyGb7fqcDgcXYwvNwEOh8PhcPRCZAuEuAMhHMwmMSZBtYlb0PZAN2kVBxU126/G0GdzTzotWhEYF5F7gOPAlxcja+GL/2SDwOsU/TlUVln3qEijNsqLZBdJdKW8JihbG/OHSNu+JmM6mC6mNd+fVtWviMhQ7nhu4Xy62OFwOBaDKwwOh8PhWJGY27F7EmWdiiJqrAmQhGqiwC0hKCHEOoQtWFPcQxLYW0E9WR/EnOmgrFP0A3Pbdx2bPvLIt0ZTp28H+R9jfU3t6RPI/tVYf0NqS6YkN6lEnyQlJtGdSjOnWce+EOR64CDwzDl0r8PhcCwZbnp1OBwOxwqFrld0VZKXk9uRNrsdkWIUtFEONK7sx3MbpL1VbTkizYp9EroJOolsRuSTczt2b5vbvruXMkFWhXJAJRKTNmTKPKTa5jQnUycXKnu2RCA20anNrk6R6G7MdyhSFUSPAs8u3p8Oh8NxfnCFweFwOBwrFLJRRFZFVySSYC4d+dl6/UiS2vO0tDpvMrex1EbiV7YDX1LRjX2UKfpxkKfiLbHs1nChzW97qFxzsFzmptTkiPEUQoitMAHbRah3KCNaV0R+APIuueO5M4t0psPhcJw3XGFwOBwOx4qEwkZglXVFil5GaoV8e4e2gc3trqpq7rGGitYKoSplcTcI/OHc9l3rarQJ8jjCG2ncgGJsQWswkOx3puCINEaOJnhbSYpQiGGQtDFU1B1i26KbVWN4eFjRVwGP9Xaiw+FwXAS4wuBwOByOFQmBjYquguimoymmWaK/f6Y4SPOfJs2izRd2RUrX7farrd7QFJPKewUi753bsXuyQ9sdzwE6BO4GTqQNnLR1l4rnTDf7MzVVNd+lyZtIbWmJMQyhLEnlpHRYAP0eyi8J8nCgxeFwOC4dXGFwOBwOx0rFj4tKmKfE7CIESeBOQQPNCnzmypPcjzS59ihBCI+7LCURXKJQb52IdBz0N4DfnNuxu7NJiNxxegH4Muj7BTkNjcsR+VnT1oEqqjQxb4y4KE0RrY1B83KEBeAhEfmXIEddWXA4HJcDrjA4HA6HY4VCt2RBwaod4dtGF2t29HMswlobQqCzaLt1KUiKech2UGrPfVgFeo/CK+d2dIOgQ+yAfELh37SHwRk6kvZR0qZplyTNTqNu2yTFfc0OTEOUX5Q7nvuh3OnKgsPhuDxwhcHhcDgcKxSy2Wwb1MrOUaCXNk4hKBN5zEJUEFqZO7g0tTK9tuUB2mzNqo3rT7utkqwW+BPgpvt27OpSecdzpwTuFfh30aCRypVYrxrlQdOuTO1WqtZxqaWnJV0RmAXuHLvzuafPsSMdDofjguAKg8PhcDhWJpRN2vjuB9lajCweff4l2xVJ4iEHNsC5sTKoxoKiVJ/8f5I+Erc0jdYHo1RMqupnBXlhjVS547lTwF2gDyAs5LpI46TUVKCkcx8aN6uQJ9k44gFtKdxZFxD5BPBmueM5P2vB4XBcdvTs7OxwOBwOx/JhbsfuCeD/BSba1BgR3MYztKHNjcNOChrODRJRGbA7ria1ofmn3bkoVpHX15T2HZTXTh955PEa3QtfWLVZRL6icKM0Qct2ok27w5rwCjXEBRelmEcRkTPAF4G3yx3P+VkLDodjWeAWBofD4XCsRGwGxvK9TqOkb2ISaL+39oDonqSZ4iDG7SfkjW5HyTGodX8ifkQtQ+MJyzch8uH7tu9aWyN67M7TTwBvEXjEhjvHOAWR1uYQmxQ/2hakNp8BPgLc5cqCw+FYTrjC4HA4HI6ViK2qjEWJOrkWxfgCyHUJ4op8mx4PSUs7KFm3HwWJrkcSBfh4unLMEF2bortT2mrpNoQ/nNve3TkJQO547hHg14AnQtWNiiI07lKGcBOa0dwdKTwrIvcC98gdz5089+5zOByOiwdXGBwOh8OxErEZmvCDRhGwcQtJqG9PYTPr+XHL1HiPEA9Li2VGY0XKZ+IbwtaoQuvD1NbdfI6J8mqEe2rbrTb4ngqvB31GzDavKtqeu2ACtC19CKcU3gJ8xE9wdjgcKwGuMDgcDodjxUHRHxfRMZHo6x+VhvApUfA2JoW461AbJG1cf6L1geJaDDpuBHqjc+S7KyUaUp5x4LeB19XPaHhuQeBbIG9T1ZPSnAQdTnG2Oze1gdwNfScU7hbVz8gdz52+oE50OByOiwRXGBwOh8OxohAEcJkKloTWVSgihAO05yYELyEbQUyzExHJrag9MblZ5W+uCSCqSGahSIUGy4MaLULb+oHVwAeBl87t2N2ZT+WO5xYQ/kxE3q9wKpGj8RTnSGmydBxT9G6BP5I7Ty9ccEc6HA7HRYIrDA6Hw+FYaZgQ2BCsCTbAuYk7iOJ645YU0rIQY7OpURvkLI0pQTTd3EA639qtTsm3WBLBWj0U1il8Euge0ECjNCj/RsK2qAtRARLJaRbkOOhvjd1x+jNyx3OuLDgcjhUFVxgcDofDsaKgwd1nKm4/andTDYe1iUmLwcQ2NiH6HmljRYi2hfZ6dsBa1AqiFpLFOze7I5lTpNuY5VT2FuDP53bs3lprj9z53GngvYr+FvC0GK1EhQXQbyC8HORrF9JvDofDcakgi2dxOBwOh+PyYW7HrvUg/zfKxvwQg3ZX1fb8hPw6tGnt+QvBUpHdk+5t3JhijHNUPqJ1Q2lOXBZbIK2CkZIXgO8Cvzh9+FD1cDX94j8ZV9gqcBvKNQinUf1bRB5SODl2x3MX2HMOh8NxaeAKg8PhcDhWFO7bvmszyD8IOgYS5PlG2o+RBimyQaWrNGSKQIxraM0GIdkEPKfg6NZaAbRKBM0BbGrTTPFGuQD9DMLd04cfOXFZOsvhcDguA9wlyeFwOBwrCiKyWSQoC2YnVdKZDASB3xyR0EYkRLk9OSJJij0I9zYOSzE2wp65AG0wst1RKdteKVJgaGi2cQ1bpsrrVHnnfeGkaofD4bgq4AqDw+FwOFYatrb+Q7SHmzWr/Sl4uVnujwHN8UyFeJsJOyAWJEUsQnRxag0MMVgiVtjENNjD1kwZIq1S0aSOichvC7zhAvvA4XA4VgxcYXA4HA7HSsNmpN3OtBXobQBCceCZYJQBNVm0+GyziMTzFaS9LuQB0Zpvz2pCqjNXqBDakE6RXqXKu+7bsXv7xegMh8PhWG64wuBwOByOFQb9scysoJq5JAHtKn8TUJB0gRR/YAMNzD3a3pMFJIigYrZaMjsnJT3EKhI0ZZvAa6tIiLAZuO0CO8LhcDhWBPqOtHc4HA6H47JjLvj+T0Euu4vVCOJ+q82BCGKsB9ooBWICnduzD+L2qnE7VKsNxE1SNZXdqRM18dMmmDrGVgiWljHgZy5JJzkcDsdlhisMDofD8TzAnvuPrQNuRNlU2x+vs/+QaiOXt4J2z3ZEAMeA050yNZ2//JgITx7cf80SKNVJVdZJc0Ba2r/ILt8nC0GkQpIhIdRnLARK2lLVBlG3bSw6Q8RmMXWaa9bakcU/xDoaqlSfXUKDHQ6HY8XDFQaHw+G4yrHn/mNbFf3fBdmARFfU8hADyT7TCcudww7K/KCwQFIOJAn3SRhXFlT1m3vuP/a+g/unvrMIuWtEZD1oo6yQuwKZHYzCz6gKtBpEtB5YytP+Smrpw5gxtNFDJFMCUuxE5hJltmy1SkjMq4Kip0TkvkXa6nA4HFcEPIbB4XA4rn5sEWS9qhqe32wFGnf/aT7jzkFA455TBBmTLqZ7JOwMNKYiY4KOKToGjGmYY8YIi1MvA7605/4fTY8iVGESWGd2Om3rz6wDbSyzNTdYKlM8c7og3XgHE6AgWbRzTI59YLQUzT66CMHU3wIeGNVWh8PhuFLgCoPD4XBc5VA4gnLCLoRDsACkE5CjRQHNV+3LYOOIJlC4TApuO9L+JoYaCCibQd7fuEdVIcgaVdaZvYgaOoxFI22rWtAgdNPUXjB02nyirfDfOXNBkhcUNk+rjbTXUl/J90HePX340Km+djocDseVBFcYHA6H4yrHg/unjgEfVjijcbW+sRDEg8yCpSFdJe5ORLoWrQ+acpXfY96Uom16CBhWgGtVuXkEuZtAx0SsqUPbnVFVW7ncGD4S5dLm1xTroJk1xR6zEBpVagS26hgE3dYSEXSgoi9UHwFeP3340CMj2uhwOBxXFFxhcDgcjucBVPiIIJ8XZAGaLUSbHYVaC0OwOEgTKKDNrkHxWvi/vdZGBgjxvAKR1r6QFuKTRUAAViG6bQSpm1NkgjVRpHCBEDvQLubT6AkNvY1wL6bGGFdhrSik+xO1GRHt4W/SBjtrmasJb2iJ+baK3OrKgsPhuNrgCoPD4XA8D/Dg/qkzCO9S1Vkbrixxi1Jyn/x8Z6IcYv6ixN4GEOfh1HH3U7Q1B3TFblux/ngU9vNF/zI6oV3vj3aMlh7J7pDMqJIrSrZINRVmFoacvoIcAeQsqn8h6IzAE/2NczgcjisTrjA4HA7H8wQH9089IyLvBB4Qs4Qv8ewCI4DHWGEr2nfFfE2r+6mcmM9YLkJV0TLBWYUTfTQqsoXmALV0bkKz/anGXYiIXkIN3ckCANGVSZv7NUVGN7aRpCzENmoT2NzSn+qOlgsbYS2p8pBV9LSinxeRX5s+/MjT04cPLfocHA6H40qDKwwOh8PxPMLB/VNPgr5F4YiJVmgCfyVfUW/S2u2IbByAceuJv5OFwa745+v9gp4FPVajbW7HrgkRpqKCoVooImmL11agT7EMLdHBZSkpGLRByibOoT1/IbhT5ddtWqP02CBvSS06g8ofgNw1ffjQMz1d7nA4HFc8XGFwOByO5xkUeVxE7lTlqXR+gkZBPFkCWu8bc0Jy+DRxDfGK2J2MgtCu4TwC2tBqQDkj8FSdMlmvqpPJckChC5SKQfm1uSHpLoI5rZkmzsLaSUIlMUA7ujNF40urSMVCQxkAqnpWVN+N8N5bDx86WW+Pw+FwXB1whcHhcDieZ3hw/xTA90Tk9doI71KRv9P3PAIZK8q3h6Tlvv0SA41V2nBnQJEzIFULg6LrRZiM1XQMCDH4WTs3FrsXxRDopKQk0qMCoUkr0IZWMbTTumNF+qVtAehxQd6IyEduPXzobK0tDofDcTXBFQaHw+F4HuLg/ilUeUBE3q2qJ5q9hNJWqNEDxwb/2mBpVdKqfPLxNwJ33MZUJa7eNyv1wmng6RpNgqxXZDLFRtjVfVqrQaQnaRMpqrmNMcj0iqR1aNQRmviGSLAm44G2dKaYiRSvLaDIUZA3I3zR4xUcDsfzBa4wOBwOx/MUD05PLajyZRH5oMLpJkrZ5MidgkIgcXNFggUhBiQHP/9GQaBNs24+za8nD+6f6luVXyfoZIqsSKv74Xe7HWp74BwSA5ql1XCaGIVwSLOJdUhB0oSym9iGqGdIDKRulKA2X6yHHyC8Hvja9OFDCxfQ9Q6Hw3FFwRUGh8PheB7jwempMwofEeWPEBaii07y88kCh+MuSOF61C/SAW0aRXdJcQGSKRyCjtp2VJlSZUw01tWs92sTPyGSxxOkck3wNib2oqE1P47OHjhndImYQxVp94Jt71F+APyioN9yZcHhcDzfML7cBKxIDIaToOsyJ9qA48zuPbV8hDkcDsfFx4P7p87suf/Y3YpOicgrgTGzRVAQotsdRw1PbFf5BWlceqIlod1lqP1UBHmylxDhJ9DmULm01t9aAbBCvtAI9mYXpUZTSPEG0lopUhWGdlSTlSHFLDSZomrU/P8tRF47ffiQn7HgcDiel7i6FYbB/CpgA8h6VNcD6xHZDPzXKFOIrgdZC0wCG9sThhhDZSzF9gHNFLXAzHChjQKUY8ApVE8h8hRwCvhH4BngePN5AvQEKs8gPMPsXl+ZcjgcKw4H90+d3XP/sbcQ+OHe6GqE+aQJJg5fJcUKRG+flBfMNkXpUnQj+i/9VOiWfPel1j4RT1NOQdaNNSMdiVCeXG22fTWhDVn4tXW/CkpIvkIELAB/Brxr+vChfkXnUmEwnEB5CcK67kUbEm4/oVzpWjq01cbgNPAAs3ufPY+CHA7HVYarQ2EYDBvFgHXAdpSfQtgFOtUoBKsRmUSb3Teg4LOamdvTdct0tfwtIKxP92YmbIEw0ZwCPQ1yCuEUykkGwyeAo8DfA0dQfQaRoFTM7vOt+RwOx7Lh4P6p43vuP3aXomsQbsyCfy3acwja8w5KIdXy06hgwFlGnoQsm5OrU1zj1+g8FLc4kuy0ZpE8f5OzvceePp3x6ly4jgqJwRnQz4O8Z/rwI9Ug7cuArYh+EmRLq/VEy42Zb8xBcmDymH5Kv6GYs2h9uST2sQI8BnIQcIXB4XBcgQrDYAjKakTXouwE2YPqi4AtCJtA1mRxehn/r0xoJaNNWS0zLb6nPIYpd2zvjAGTIJOtQgKgN7QMXkDkOMpxhKeYGR5FOAx8D3iccBrqKVTPcGDfeXSWw+FwnBsO7p86suf+H70d+ArKNm2EyBQL0FgZohKQzmQI3j9AGwjdsuHEI58VpXrA2dyO3eOgm1IhhqWK+dHWl1sImoqJgnS6JwY/R9k6XlHLwk0bQrbTCp8Cec+tRw4toxuqXgeyqf3dM7nZuSzrl8LiIMU9tWLbhKdB3QXX4XAAV5LCMJgfA64DXobwcuCFiDRmWivMG+G8Z1WsRY9SYPN2FIo4CcUZKKZVTMDlCk5aHdL2enCTWg+yPVM+hDPAD1AeReQwM/PfQ+QhZvceH9FLDofDccE4uP+a7+25/0dvVJH7BNbEDVWt4J5YIWLYFkCrLERhPFkkgvvmiZ5qp1AmLB+MVgLLWcXyUHPdCv2WvjZXE8/QkZMl1dQoEKeBewX9/enDjyzzGQvy88B4ZkmwDQu+V3Qa214kD86gmKpsnkLJUHkaceuCw+EIWNkKw2A4AfoCVH4ZdBpkG4nmCoMsFYKOglBAzaTSmzcy6ZpyYX1HU6HtPXHVpyRXDYNWqzxIaz5GJ4IFhZ3N5LcAnGUwH83E/wfKwwiPMbvXDw5yOBwXGfJtgder6udEZDKdwxCtClHMTtaE+BskWiSiFaK5ICInNcR3daCwGWE8qiZpt6aGlyoalAUwpoFUYa5WlIs5yQXJmBXM2k+7+xPHUe4G/eL0kUeWN95sMBwDXkykTJpPqzTU5q1kVOhZyBI7b3Us48b6rU8wu8/nFofDAaxEhSEwyWuBl4H+KirbgHV2Ykiwfpm1dMhdiCL68lpkvp4mzU485WpbJ56BvAwzSRWRfBXzsF0hU5og7AmU6xGuB96AcBL0CWbmv4nI36B6BJEnPbDa4XBcKA7un2LP/T/6KxF5ryrvR2R12s40rXW0q/pxe9Uk2GK+t6vgpyS4WnYgMKWNhSEqJvFKsh40dSTLgF2vySy09hyFQGcbdB2VBi2niaMicjfCX00fXmZlIeBalE0ZkTUXrJ41qyy9XMBKz6ZngSvgP1/U1jgcjisaK0dhGAxXExjkb4G+NOxm1OxUlO/cUDA1qVgWNBfIrUWg46ZEwYitr2dRL0XeOAmWVopRlo1SUSjLLNtmfHIzjUN1AqRxZ+IFwFsROYryfQbDDzO79/v9RDgcDsfiOLj/mrN75n70KRH5pyi/oyITgSVHkZ1kbQgw8QGNoqBNasPZnjq4f6rPL36DwHg8UyGu+SdlgVY+jnEJpLWYhoq4OJPYaMtb8zUZe7aDIsoTKnIn6HdXiLIA6A2IrM1j4KC6wiU23c4l1sJSLqwV6Z24vVHB6Q6H4/mG5VcYBsNx4AbgbaC3ILKmXRWhwhvNyr/5mWkCbYBx8ztmGWFZyHxDzX2ZQlG6GVkaCuUhC44uVnFKxaV2T6Z0ZEt6lX5RUFYhsh3YBvoFHA6H4yLg4PQ1p180d+yDAlOi+jpEyOVyaRbso2tSFPBbPqfJRUmrQujcjt1joD+GhPMfwppPUEhCXcEqYC0P2vD4Nrg63+6V6BIVryHBVSqx8kYZUTmCMCPw6PThRy5RL54HlJ9FdKJNEPOh7XyWzQeFxaGjSJRzTHxAdtKN1/jhRWiFw+G4SrB8CkNwPdoJvA9lL8JEyxArJlIbkGUX3C2D67goFSsumcnalJHqKVZYkq9rqZyU9zdpWpSJqS8pG+SrRWUQW9UnteiH6BYQ25TSFEROoPKtbiEOh8NxfnhweurknvuP3QWyQZVbYoxChsKFKPI9SUKrIiL/WK9Bx0A2x5zJStzcK2hzmBtoE7icLB2JnTYHvjU8NgY550IzWHdPQb6J8Mbpw4eOnnfnXCqIvCR8Nr8zY3PN4lBaFAxsjFybmN+bWxeeRVmurWQdDscKxNiy1DoYbgE+hOr/BnpbUBYKWPeeUYFd9nolG1Cs5lvloEjP6jFKQbbyj1FKzLX4u0yLBNht7yjKTPdLN70WE2FpKa0Sqt/kwN7TtW5wOByO84ZyAvg1Eb6nI7KFNYxGqE+r//GKHq0WrTKmyuY2QZIbUrw3nftcsOlAWhR/C0FayqwZH/0zhDtXpLIwM9yE6tYsrTq/FYoQ5PNdNWslQzkXok8ieMCzw+FIuLwWhsFwEvgVlLsRvQ6krrB0gpjt6gcF4+vTEszlMku1rBFlW+WlYxEoysy+W0tCDw01RcBaSpBuWq2u8HEWka93C3Q4HI4Lw8HpKYBjL5o79mYRvgS6Hcz2qdidkarsd0GRqkuSCGPAJuuvb2MXqpbhiLibUmVlvY2vsPycs8CfAu+ePnxoZW5TLbwUJJ+fU4faecG0OcXUVSa1jpZVdqLkt8CThJ35HA6HA7hcCkNwP9oAfBT0FYisyrbFK5h/VVkorKfh3qIM64qkdAvP8kHOdGMms6Lf94m5lzK9j+4+pScWE/MapUSyxnVv6u7kdBz0uzgcDsclwoPTU9/fc/+xtwOfVWWqNYy2DFoNX4ysWOAkoj1nMOg4yCZti2gDmEVRaYOpoVEmMOc0CKnOaGXQjAcnRea0wmdA77718CMr0xI7mB8Hfq7tuEIhsPNWZyIx84U2ee3iU5pKRiy0BTyBuoXB4bgqMRiOg042ixITwBmUswjPjtqm/3JZGG4GPglc22FwfcpCGbtQyul9aeHmVnGo1dUps+93z6dl5B2lImYoyiwtBTXUrBVpL+3KzZkCIhAOevNANYfDcUlxcP/UAyGmQT8LsrplRa0gH4OVjZvQM4L07ZC0GRhr4yIsryvjEeJlaz1ocmbWV2v5ABFpDmTjf145OyHVIJPAC7vzRG0hrc9SEPuqMhfVurhTjfy9n+/jcFxlGAzHUV4MvArkBlQ3Eg4PfgbRp0AeYjC8D3TI7L4z5e2XVpu/OqcAACAASURBVGEYDFeB/iZwD8qaPgtom1YK+COE7L5V+sXuK1FaGzrXMSs0Jl/mplTmMcV1XIhMup3s+soZ1YDONnhyPwf8oB2Hw3HpoehXEZlU9NMo46UhNNsoLvx7XESqJwcrslVizsxaEe82AnAnviFAbF5oToRu1A3VEyK8Bfjq9OFDK1hZAGAjsDP1Rdo/tmbpbmCnpz4XXqtcSHFTXuZZ8C1VHY6rCoPhzcD7EW5oLLoLiByHZnMDlV0Iu1B9AyKPMRjeDXzDnut16YKeB8M1wEdR3gesaScCu1refGZbuhWWBRtcnAUT29moVpb9rXm+WFZmFajcrwU9aYWmpBnShJZcoiKzlyJffguZf2lTny1HtK07TZjx/mzSOIHqd3A4HI7LgAf3X7MAfFGQjyCcFVpBPrKreNhaEwD9DKpVhUFgKn0TwR7oDG3gtDZKgHYWVcyftuy3ufyUCHcSlIUrYUHlJcC4Yfokyb+zOYZRADoLZlZBkGIeiflqZXIWdYXB4bgqMDM/xmD4VuArqO4BngD518DPAf8C1RehvAj4GeD3EB5DuQ44APo7YeE/4NJYGAbzG1D9MMjtRKXEmk87sQAF88sCuezqfLGqX6aXvpk1i0W5+pLlizZsbRlsDa29PSM7Y97WWlCWFRWFTnRgsSqUlVMw+8x6oiD8AOVInWCHw+G4+Hhw/9SZPXM/eh8im1AGwHg4rC3wPMkZ1dMHp6+puiQp/Hjmrk9UCgITtIoIRFZuD3TTJl3S9YY//wB4G8gD04cPXcSWXyLMDMeAn28TlKQ9SaEAxDTrqgXFnBPnXPL5xCLmyy0MT160NjkcjuVBiB9+Daofal78zwAfZXbvY5XcTwLfZzD/WYI19l+B3AM6xmD4+8zuPXvxFYaZ4QZU/xjhtpBgJNxsZSMma8uwynMP4n3ZPeXKfZmn5IzW7Gruy5SWzG5bMNqaedemF9y3E3tRKkgG0WIgBSdPpBQzaF5R0SZ9iAP7nulW4nA4HJcOB6evefZFcz+6C2EjKi+BjqLQ/NKqEDq3Y9c4sCnjgYoJei4XW8IXkWgBjpYNu4oEiD4G8trpw4e+dxGaeXkgbER1e2t9hq6UX/yW8nctq7bljXJtCjiLuMLgcFwFuB74EMgE6P+EyPtRbmYw//ZuVjkBej8qBxHeA/x/qL4H4Z0oDwPDi+uSNJhfi/DHiNxWWcagKlwvGm9Q3JcJ/Rizq7VYxM/ymplQMitFxcphP0s3pXISS65OtCs7Ns3mKchIQn+Wt+e+7N6iTSp/icPhcCwDHpy+5mmQNwIPh5TAA5NIr4oif1+/W1YpbOwoBuVZN4BlnmpckOJN2v74NsjLryhlAUB1CyLF5iA9lm6gjffQvovdImqLUPntR5nd2wl4dDgcVxAGw0mUe4H1CH+KyPuY3XsK0etBfr37x++C/B3CB1EdY3bv7wGfQmUtwgeZGa65eArDYLga5GPALUBX0K1hlPtQ3/1lbMMIXprFJnTq0OLenoJiDIFVBmL9Vnjv0GuYspjf2dwnbTsi008WikhvD1fPyf1BWE1zOByOZcNRhNcCTwQ5Nh62ps13PVa7SWE1sCEXWgu+m9AqCBLzpQ9FlAWEWeBVaN2isaIhciOwul0wKuelvpU1ozTYeSmtK1XKsf2dz79Hz4Vkh8OxIrEH4SXAM8C7mG0O9G15waOgbwZeC/oWVL8FLACva/gQCB8CfgB6LcItF0dhCH5S7wFeTYyL6FMAelaL8jyVOmzQc5ZfKtc1N7tGgT7LY+7LApKLMqIVo7PSFQk1ioeYNqb8kUZt09P30oRecUnClNlrheEhVFbmAUQOh+N5gYP7p1D0UeDNAidUtVnxFxTOgvygdp8EAXlDJ7VY1FEsDwx8URtFoXHLOYPweeAt04cPPTV95JGL3MJLjIGNXygE+oje6dPkz6zfMS3+jvPaSKvF40sn2uFwrFDsIyzG/BnQyoft2sIx4MvM7v08s/s+hcjrgeMoa1DdDMDsvicRvgCyCuXWC1cYZoZjoNPAOwgHQASUwnXfalG2qm5X5UtrgF3dJ1+1j/dmwcuSM9S0S0TBKMtV/LKMREtpkUiEFpYGirqNr6iU3wu3ptI1qaQz3t+1vvwtB9yE7HA4lhcP7r9m4eD+qSHoPcBJaWR5gcewk1aO1SJsyAy1zVpJUggU7JkL2lhn2+1V5RTwKZC3TR8+dKXGcm0AtgNm7rGX++YvwlxSbuZhr1srezavlVCAHtcxh8NxRWBmfgzlRtBToF9ndq+5WJNlAXQ1YZOiseL6t0CfBV58EYKedRvIx4lm1MS/o/Acs2mx8tFctMFqabWouNcK3dZC0LGyWvceMittnXTtYZo2j5B2orDBBUl4j7RYxtya4bNYhI47lWRFpnJr32vWlcD8zwIPjG6Ew+FwXEaofELglKLvE2GtKh8SobqlKrCJxjItlr8C0vA9lXZBJXiJmglC5Cyq94L8wfSRQ1fywslOwhkM3fkumxPj3GnyZdNYZdJT6JznYOeqtPAlpxGqrmMOh+NKgWxAWB8WUrR+mK/qJkTewGB4FrgG9DbCosUJVOy2yk+jPIWw7cIUhnDWwgdR3RRotG4+5jdKr2Ce7dgAmbDdZspX57MzFMx92W9yxmitGzYPholmbYDWZUjaOqxrVXXno1oe6d4T3Y2sRaOvfyxd3bq/Szx4w+G4UjGYnwC2gGxGdQphC3ANyBSwnnDw4xjoFEizL7SeAnmKsA3ksebvHwhbaT4JPMLs3pOXvzEXgMFwNbCl+ZsCfoIgUK8zbV8FTKGMNatFx0FOAKeJ/aD8J+Bx0MeBH3JgX98Jy5cEB6enzr7o/mP/TpAvA5MIxw/un+o7MG1L2iJVpNkiNf6OWQLPa7mgRDZ4CvS1wF9MH1nxB7IthhuBNYCxattFMrpzmk2LC27ZAltMay+le2JiUkYU4BQ+n1wchFN1pxCdQtmIyAaCQvhPA4+TVcAW86ymEFYD9pk/g8gzRoY5gXIc4TSqxxA5Cfr/gBwHPQHyDKpPI/K0B64vM2aGqxC2AVubhfX/tuHhUwRXofXA2ib3s0Eo17MgxwgHJ/5D83kEeJzZvSeWXHe7sLAAcrJyEZDrgI8CoDrW8JqTiHwU+HbKrnq2WZi+4HMY7gBu6bgKlUyuJgyXgnLHVYnitxGS7cp9n4m2rKNm6eizfqS6CkG/I/DbW8oyrOVkEeWi9lnWWytHdQHhb0Daw4hmhrcQB4ElJbYrbl2rJg1jRUkrd2bVKf00eTLLS9Fk+5mtXmWrZV9FuIfZvSvjIKXBcD2qzcu7yPjoe56xjX2Kc+pD2nT7HHIrVdgLvdY/g+HqhvE0dcgEMJkR0tIwgchkN/5FQVmNMJVdaBXwNcA/M216P7N7L44gEXy1NzZM9HqC3/ZOlLVhwpTVlLwp2zoyjj+ZQHVtM952mn4+g+gpkGeYmX8Y+Bvgu4gcWVGTaOiHLahuReSFwItQ3QUyCboakdWgYy0fIn+n0nssU2E8AMgLzPM/BTwLcoLB8DsoX0f4PmHyueTC9YP7pyINiygreo1dQU/bqRLOcwicuB2j5vyFJxXeJshfXTRlYTBcjbIHYQ+qX+PAvsu4mYT+fHumgmGkab6y/NbkS+c00N5DkWZfn5Qv1mPr41nQpy52y65qhLMzNiFMEXa5+heBt7EdYXXgs1HRb97nqvuYfW5pvG8ENnbm2eyLAJwGOQOcCcoEp5mZfypYi+QJ4B9RnkT0RBAg9VlUziB6ApUFhGeXZS4eDNeCrjdz4mrCgkgNk8AE3ckMVNcjrE0eH/EjzNX/DRDnwH8E/uiSLCTNDFcjuhVkF/By4AZgXaBbVneEI7MeDaxDWNek7zLNO4PqSeAEg+GjKH8HGueyPostKGcRWQjjzcoGGZ4A/WtUbkDkBcAPEflV0IeZ3dfyU5Fxmvn4/BWGwXAb8DZi3EIpRHXciioPuYbSrahWdk1gS4HGjLgmRTnNPx3hr6Y8MLp9lk9bRUVH3J9VaYXz5h4pr1nlARA5BXwz808TDoKuQ2V9R1Eom1joPC3Nlj6t9GlkdvbF7BaT8th2tNcHoB+HFWP+/ihxZ4AyYL6cWzHXEsxKXc1tbrE0y0BChz6M8HqgxthuBPm0eS7jJKZQCNbCBKqT3XeiECzSrZV3NLTr68BfV2hZGgbDVaAbQF4Mui8wVdkC2tAtdJTVjF7IXAM7Y8oMQGECojIhW1FegfA06EPMDD8L+h1Ejud+nZcJQdnbDHITsB/V6xDZBM3KYmfRgC7bLA/qCjd2v2tUOtiAci3hAJ+jIN9hMPwC8BDw7LL0Q44t5VOPwdL1aUMgrLrddevhQ8OLRsVguBPVexD2ApPNRPl7F6380XWvBa7vPmuKuYV8jqyOD2xH9l+vz5Wn6I81cUC0Aq4DtgE3gb4Ila3AFCL5ohP0zJ12jpfimkmyFqXR7tNBIYnPNJS7LSsv3H4aeBZ4FuEMKicRFkBPMjNcMIPjBCLH8zlQ67wnjMd5ZvfNjSKwB78OvDm1EV2FRoVBjGyhgKxGWFWVI8tF4DI9XlN9AuSvCTFVF46Z+XFEplCmEX6RsGofrL+97+UIuclcbjCByHqCNWIbwisILkIPMxh+BWWI8FSHhwsngJOobAauYzA80uZJz/QI8E5Ed4J8HdXNBItIsRW1bgSZQnni/BSGwRDgLaDXdif4yOhNWm313GTtvd6BXbGtlW/J0GIQ9dxjhfpeS0NNkDHXspe0+R0He0zrq9+6UXWsGqYt8f5Up4LK00j5cDkB8jWEN3X6uezKUkDL+FZMK54XNk/ZT5V6pJYfgG0gL2AlKAyD4STwSmD16LaMmn3jPTVBt5Zejh/K8fdNtHdldnuzKl0Zs+X4rpAc00qloZovEfezDIZ/fU7C5WCeZnXtJSivQuQlBDebYkxWJsqIcmItdxarSkfF2BUai4bchjANchD4JIPhXzC799K76szMjyEyCdyGMgPchOi67J2D4llWJWXal3CElJj1WTbhjzdCxDbQ20EeAD7KYPid5bK83Ld9d3NoW0urYk5wNnnjVUQeBd5465FDD10UIgbDMdAbUb6AsKXprAUWtYxcVOyhfyWQZJmMrKY6PPrGDHXe1XG5VYLwse/KcuO71JgZgjABbEV5Kej/QLCMbgkZZMQzsajM473veMGTawumNdmij9e35a4CXQWyPr9meGxWfzG3dMaRElay+Y+9zR6NnwbZmhFalUuKOjs8vw+dsjaCbuBCFYaZ4TjC9cDrmwWpqex63uf0KnxV0hcdSBsQXga8FOEHwHubuay1CszuPctg+B2EFwK/gOpfjKjn+8BnQN4BvIvg5n4UCLK+8nKE1QgHz9fCsBV4Aypj7UReaasdjOWKbG2Vo8+KULov2e/x/pEWjkr5VkDrFaxsuY12HSvNaNKWZluPlt+pj3VrOUiyZ9EWmz8NQIadiX527wKD4ecIW9xO5v1SNjCWWwouley2nzsXRzC/mjLXpr+WwXC47G5JqreArMr6PVtZMf2n0H3+sRybZO6v8Njs/qrQKP+eA7398pPVlehIV68FrqS18k5SPq90/QWEVfClCVEzwy3AAOHNKFvbMR/fuaYCa6WqTY61d9KKkV06K9eytDGEG1Hdg8jdDIZ3Ad++ZC46g+F1KK8HbgedyhYFSvTxOdvG2PSSF/TyCzOe88l/AtVphFuAOWbm38uBfZd9H1KBtaq6VkSaYaft7tSxqzJZSB4S+KXpw4cuzkLDYDgB3I7KHyJMmnllATmH7UVn5tcj8lLiymKV30H92SvArY0g16QtMvfZudUW05k7imvZmKiWs5qZ+dsXXcDrU26r89wofqQLwEPM7lt5W7kOhuOEQPRbQH+J4O43lvf5IgszGYpnWbUUUu/X2vX0LBcRMMtYykUJ7bveW88CnOdWvMqWLo+O86Z0x29JX6cPyzmtM4dPEFyFvnVe9ALMzL8M4S7gpcD46O5cYp/3ta+aN8kVYwjbQbdmKyst/hfQN6DyGkQ+QIiH6M4ds/vOMDN/DyKvBHaheheD4V3NnLiJ4A1yCuRL564wDObHUX07IiE4q1dQLySkmJ7yGcLLXRuq1olF7rF11cqItGUE5Ld0yi5fSDFlWdqSybAoV2zhmDJMP0VFJGu/uaXPnSoIbvPUcRB4BPTGzhWF9jC6Sr/btlgBMqva0ljQ3LGGmOdu+zkkvICwulDdn/2yYDCcQHU/YRWafJDG34ZBp+dM3j8RVhC2/ZH1D/alz+ton8e3eugdBzY3mdvypfjdcasy4y3WU27rS0mzSRN2ga5hMYVhMNxJWHW5HdUNIGNtn2D6MpVraLDvR0yL/WYnD/O9ZrHs/qjwKcaA61HuB/0Ug+GHmN17cXy3Q2zCDag2k4quBakLGtl7FAjLfZltwX08r2yfeeYlrOAaPsdQvQ2RGxkMPwB8Ih3wczkgrEVlbdt6aYZeE73Q8CtFFoA5gdeDXpxtUwfDNai+B5G3EoNNW7rOci4HmInsQflcVT7QMiGmZ4Lc+Mg5yV7I5tca76C9uRSY7Pxmx1k7Dl8IfLbD13LCu3NpSaedv0r+ZxfplFOI7ON8Bc6LjWBtuhaVvaC/SnDlm0QkzA/l4teSPCP6UOt/Ks+8B2K/2Gdd5hs19npoqtJQLRyCwvBE5eLiCC4wRVql8k7Vdt7rfVny5HZRdvc50zkYjqN6A/DuxlKe84slP7SerL23VgZG3tSzIF/lQHXB6/sgQ4QB8GEGwzcyu/dkR5YDOLDvJIP596LyaUTuQPU+BsNvA+8DtqHyHYQHzl1hUDYg8mrSXq2VlpYPySoLNQZYEl9bFSsZcWflRdoBka6r4Z/meqm8lEzYDi6b3ruqYtuodB5IyTSrSkRFeLft7AwweQp4lBqCOepLwA0EP9w6SuGjtJrUnq8VQqEyIZn0hFpbBGAL8GKWU2EIfu43doT/NPcWDL0T5F387nwvn1+cqBMBtIwv9f8P6XfVWkPwZ8zv6UzEPe9SJmxbes1zTUM8e/ZTBEWlK1QPhhC2aPs1VF8DsjkI5JYW845kwnKNIVbG5ChebGWkWF/nPYt5jMIWaFoN8q9Q3cVgeDeze89/lX1mOIZwHfAWgnVlfZfQovPLSd8mVhdjCv4Sx0D5upU8RUaUEbAe+ADKP2cwfC+zey+Xq+Ba0DVBOZCiPwJUOSPCn6rqPdNHHrlwZSGY2TcSNod4JTBRGSrnumr6IsSeQ2TKk3KAxp/F73K+UwrUxnPtxai84MmlqRgrlO88Y4RV2Lpg0ydopqRCeFt8tfwUqsvH/yMG82sJLrJ3grwE0c2d9yqiOxd35+8ayjx9ltTE/0aV09xk5YTOM7D3lHVUyq7JWyOVoVToWc5H4RsMNxB2vysQaRglhNu+rk1ohj7L+0LaTgbDiSW7YQ6GW4DfQuQ1UB4wWdC8FNTevxKlVShbJMhueYi+vp/de6pZBHox8ApUn2YwfA9hB6R7gMdRTB/ILEG+WNcYBN4B3I7qcYT3M7vv9LkpDCF24VcoO80KW5ksVA7ARgvO+Gc52dlJznaWqUzNfbHcrHMrzFE5i3CGsPvMWYSzoAvNCsdTwEJbT/byTaJsAB1DGCccbDGOyhjoBMg4yFimmMR2djuJZGevrgCXWpV2laD298OIjNLqHwCeaH3dTbn2u1VY7IOwzyjRWLSrmBs66fH+mgAUvo8Bv8xg+JnLsWtLFcEPMaxyWNo6EzOVCZxK35n+jOOvVE7jMxBbp61Dv03wC60hvNBWscwUhUI5q9LbbV6HIWXvqAIyBryQwKBaDIaTKLcQTnrfVQgfpl7LB+wEm81i+budqi5oLicSochQGZClGd+OZWUc5KXAlxgMf5WwHStLRvBxXge8gbARRGsBqn5aUi2vKcZCuZoJPc9Vqa8umnozJaEc26meiaYNG5kZvp0De+v7d19EKLpORNZCuyNSvNLQeUZE/q2q3nvrkUcu3Lc+WH+2IXwa5cVI5N3FewnHl7yNYZgXr+8sOpSMsHQh7GSr8Jzsd02wKMsZJbgU47Dm8lFbTKvxK8sgMt7VXMsWCWyflO3XJziwb3kO2hvMQ9gN7mWgb0a5kbStqe2bUUJzROUdDzdX0kuGVo692hgpaYj8tEZXJW0x8lNZNd7ae0PMfuw8rZKbkcLFq1N+nxxYEDdKtyjLDIsjWwkbJ/RjZjiB8DLQ94PsZJQ72nmjuL+PF9RxFvjzqlzS4hHg7aCfReRNhGD9e0D/NbP7cpfn2b2nGQw/AWwGfQ/KaxA5g3AvKt+Ec90lSXUdwkz2ILum/pjX3tdes6sttQ7PBq2271tkhlWmWHtBBOBZVL+HyCOI/keQJwkR5k8jPMPsvv5tqWoYzK8nmKI2gk4S9lVej3ANsBnVzahsQmRLZaY3P42wl6XbthmBRmjyZpPRfSOF7Nm9P2Qw/AbCr49mPKbe2jPNFAdpB7PSCm5p1bbIW06eqR0ZriecbnoZty9sEE4p/+Xc7Yu6oJbFsthCpNt3nTGqbXlJcDaTaiwnlHEGlb8dIbA2FgYzNiyNduaurTDXYlCqbTPPtc37s8An0n2D4VbgAwivBBk3QkB9LPTWW3zP3g/Msyh4QyYI22sV/lC6D5bvY0jfCXwd5Bfos96VCC4M1wOfROWFRNe2cuUvs26a72lsSPFsKjRanoEtr9ZnZT5MH5jvlje39d2C6AYGw1cxu/eSuopI2JN8vCWnPY+BsLBzjyofufXIIxcrKPsG0M+BXFu8yJGg2DfnoiytpRanU/JdO15rz760MNfejVHzbd9qvh0LaYjFZ12Ms3Ihq9sveTm2D9NYlPa3hR3fqTweZjkQdjp6BcG9+obOO5TmuXJOLPqwXKDpe68saha+Gl+Wom+zfMX7XhP2+ywR5QJDZzHBzmF97crmlaOcH7YSXCIL/mfbY+jrs4pgr1XenywfEJTELYxSGAbD9aDvAXkrMN7KCKbc6hxfeQdrzyijp21qtlhelcdsGieABziwr7cZjYw428RqfYwQ2/oSkL9gZv4+RB4DfRJkA7AT1V9A5HaQKcJBm3eh8qcxnvIcXZLkWpQXpoZlHVR0lH1RaowjjsVijNsi8gmTnIll92WD5ClEhqB/DnwHkdPAQrav7Plidl/cbi5f2Q8uGWMgY43AMIHItYSV658C2Qa6GdiKSuPXTf8LYCebJIBiZa6nQcrdkWr4AnA70gQ/Y+rsKAVWOLN5DF32un2+pT96Nvjp3pcJNWwgBF5efoVB2ITKTe0kkM3w4XsnSbrt7Eyymj8/U2FHRmlf/njtBGGXgj7ELdbaydkOI4GOO1I2CRqaszy0z1HN71SmgrC9MSM/g3AH8EHClp1kwkdUNtSWacouJyekyxhL2joKR0F3YrJl+Yt9p6hbNwIHGAx/mdm9o8fkYH4t6F0gvw1M5pX3TcgxS4032vej5A0Zjea6aXdqS7xcCAZZVcXEZGNuRGiUn882/XApt9n8CaKSoBB3RxI4qaq/JciXb70YZywEy8KbQD+Ayrr8GZDzpJB89BxK34bo+nbsk4/ldGYNXf6bnk3xkMr3IL1aJU+K5RR5LKpzND30iEkvxqF9T8o2lrTae2sCVssz/08uJ4LgdAfwdmAnNjYhovbd9mHn1RyVv5LPzrtxHJa82QrrfXV1fteuaeU5lXNGhdf0tTGjPWU6T0ukBoWhxvv76ChZY60vRwncYXBOAtcC9S2ZB8ObgD8knKcwVn+nY312zitot3Nblk63rZVHnfV5+W6Hdn0PkdFWkhZfJOyGdA8wjepvILwJ1QXzro+BjBO23p1r8j5s4yPOTWEQ9qOsqjbOZAK6D9bO9xkDKzLmA7Eo2j704iEE16IvovpRRB5ndt/l2yYwrAYvNH8AZwgP5/vALDPzE4isRjWsDgs7Uf1pRHaBbgLZALo2F+Bj0yQXREOWh1nahPYocBDVl3ZXKOxE0fy2jL7MlwkTRimM98Tn1mfBKAXxNkt0S/rIZXdLCgekXNu2vb3QEbL6Vvg6AlvzjxpmUciR8bZO2eHF/SEyKoBMtyZ6e5m6uVgqPDGfGVKd1zALUs7K3gy6C+RW4E2Eg9/ydsTxkISKot2JpiZvTcCv7dqV0dh5H6j3iWmHbVOVL2X9tR34GDPD13Kgx5d/MNyJ8mGEmwmH42EY7+ITcu0BlmMko0+7/VRTcPuUlg60zVoVeAC4CfgwM8O3cOASbT+rbMl/K4g8gerbRWRu+vDFUBbmVwHvRvUdiKxpLaMUgob95D8vuXzVrSBr2/JKQWXE+9g3ziMppWJRe5/jD8t78ueY11FL7whCo74b5aK8aBe8RrU7/DiJyOVZKBoMVxHOTHgvcAPptPgLQK+s0tfJS0SnzAqvqPH/2vXqQs35lNP8qI+rpb8rEeGwux8LdfTJDBV0uqaYa0q+q+VNaRD+dJUm0d8guNe226RW+WQPQbX5rEwvh0fnGdh5qufZo2cR+fMlu86GfI8xM/96kF0IryJsDbweWIXKWYSnCQd7/q/A92sHwy1dYRgMV6P64l4NywqRUAwA00MdLa1Iyyb5kog+bY4zwPtQ/QMO7Lt8O3wsFQf2hRMYw+rxEwRF4vMNE9vY/G1H+e+AFyBsANai2h5gYqH6dxxYgjvV7N4TDIYHCNt/5cw8mx8jE9CuUBnvs2mZ8NzcX1uxtnVK5dnFyVV5ASI7Cf52lwfB7/hWYLwj9AP5qdfkk2Q2iVsGasa1RfYqGEWiRGBu3+jZ8SDS9ROZkG5p6wg/tEIHNXrjfUVbyzzxh+p6RD6NsAUq20eqKc+2taQTpWsFsbTaBMgEvKr2VfysuW2k4Vdw6+yerMibQd/JYPjObNvfENh8M/BJwipVXXCyqCaPEgqKmcVO/FleoSu8mcb2uqnE/i8Halm+joHcDvwHBsNPXZLtj4X1qmLl5MdQvVtEQkxfCgAAIABJREFUHrgoysLMcANwL+ibSBtAFO90VxA6C3p06W2QnyYeYFrt+5gvu6dSDoYWrY+b6MqYxqp57t0x3H3nenfgsnWX3027unMvVStWbVGFIk84lPLSBtfPzI8hXAvcDfwKxIPVWFxYXgwl7xgpmY+4P0P1oVfuXYTXdJ7HKBr6yjLtKueVFqc5nx2SRFeBhFivPlmxS1BXSeuMq6ItnbEax6Jcn6UP5mOQ77uJJ02XyvpSUH33CtqW8HhbPiL582zzP0nYDfPccGDfqea+gwzmVyOyjtDeM4S4rZELQ+diYdgCsqX9WYzMPg2x0+k1AaFgUr3vnKRsdoZB+Bqiv98J4ljpCIFCR5u/g8CfMjM/AbIVZCfCzwQljV3AKoTxps3fOIda5ghB3RsB03fF5BBfxFLoSjJFMfDtMxDqk0smj5jrmU+igOg4MM1g+OhltDJsBG5uaYr/xDFdtKHzwpYdQMEgirGaJmzpCtIpnz4L8u9HUi1NQG2rbJE9G1tfh/CCxporWZ91IdA8Rji8qEmvCEUxvRQuMkZfo7fJlJuOK20QqsJY28BuPbENZZptb3dCHEfkDcDfEE+4DlvavhrVjyGybuQuHr16jenfLL0cL02aPbCrzJu1q3K5757O3uR9EFAdR+TdBP60FDfIc8WC0cF/CPLa6cOHLryemXkQ2Qr6hyC3lBNG+OiVpp7lXARZ5YVdIcAM7j6FcqQiGZ+RFvlLgaMspPxdCk81nmYVUJOvNoizeyydRX29cp+Za1RPIHK0zHFREDYiGEd5A2HF2PDNCm0Z31zi86rOfT3ySyfN8tkentXLXnqUyT5kz6JoX3e79hZpDBf35XWfBp5eIiW28HHQqXojpOd5lGMtwijRRXL9vQSUa5kZruXA3hPMzK9F5QOI/nrYzIbKc63U2Scf2HZ0iFlkzijrzmQHW44c5EJ3l5zdd4pzPJzyXBSGbdjT7JJgbxpjfbFr7imL8bZ4czZQaTOVK90h7yng41ecstCHYI040vx9FYDBcC3BjPrfI2xAl+y3BuFl/iqqb23dQKzQaHKWQUfZGC8YRsjUPnd7T8xUukFZpqja5lEZQ/RVIP+WsOp0OfASYEugzwgQnUkg0ZjfXZo7haL9zb2preaF73NXQB5n8WDbazsKs60rMhf7bDIlpTKhJWG+VBbKicxMVBr7pDLZWeZm4yAg74tysaAjsBR9WCpjicyChurKekVQz+qpMvE1hJOQv9n8fgfwXkRW5+01fZJtBDCCTqmkpXQzcyx2MNFSJqIOakpLWU4m7E4B9zIzP9OsUF1M/CVwnaAHQd550Q5kgz2o/gki1wH1MdHfZafQyvbBNQQr8a70O7O+luPD1Lekx9UjGNaU/vQO0zP+7W/yMWffGandU6M73hPTKuOn6uaU1fHopTtpXa8D+TDC3oyIrH0G0vliyzL31n4XqNXRyWv5QKWfekmxz6lC56gFhPTD8Jc0R/RVOKo8BZVTnI+VKLhxbq4XXplT+gsifxa2z0e+ZOMI1zEYHgU+Dryi5dtLqbfg4yOypB/2HV00f3Gh274Dy7Gz5NIVBtXrCatubZode0BHSVjM6pAKoSso1Do3CT4xAxC2ljq/Q0OuFITt/R5gMPxG86It3e0qnMnwBYTfaFYLG6WBtr+zuaQi1HR/mGfRCBX2PSv9JrPnBp2XPHzuBK7jfMxs54dfDn2ZiKbTF3Y8lrJUSusRDLD3mr7rCIBi36HvoiNWawbD4KqWbpWczvjOLBaMWHWHsgpMpNmUb5+rbV7nvA377GuTjR038R7yejK6pB1DNcnLKm22jnLpJ5XfI7X1CWZwLSK/C/xXKL+J0O/73HHrqgrfpmzbYDV91ido9ClY9t3CpFcljvK9a5Lj86heBHgJwq8An68UeiH4POhXETk9ffjQhbuTDoZjKLeDfhBkqrsAYGDHX574LCJLE4JUtyGszvqrNibLekYLMy0ticYeYab2uNItZdtsmabczG2J4l2j/m4URXbfM3u9wiPCLf/XiFLPD4PhKpQ7QO8BNmV1juJ/Nfqy3+W7vRiWksf0f+251Kqvue90XEr7q6pMUv3Pp9MeO15iGqdAz11hEFkH2u72FxeXOlUrnUWnDl19tI/oj7BF/s2gLwduWlIflnTV8laT+9q2lOItnyf2/Q/QS2LtXRRLVxhEfqoVNNXMxzXBxApRSi7Y0H5JY6VHwLEoJ9j2+jjBveTokttypSJolOczqX4f5HsIe4BRDJxscEb0PZvaChLmu0C2et9XXkgcA17FYP6hi7Kj1SgMhpuANh4nE5Tozg1lYJXN01kdpt4XnTyd+xaAeQ6MDGLaQNjON08t5Yhy9dB+TfSXimGcuMr760XV2ypdRlctp3JzxhxHKK1RGCuL6MjSVsDqFJSXZwWccjEjfL2b4BI4UW1XyddK3pgx+07Z3d/V3TiK8vvGbpbVTFTVnVdqylNNWBEIitLbGQy/xuzei2YFnD58KMZ3XThm5idR3oTovYStE0ejquwriDxVC/irQuR6sAe2xfnO8tVSILQ0NP8sZXGt5s9sC0rjPmNe3XLK514dkxW+0Svw1C5WeFQ+9BYIAZYXByEmbSOq70cYgEyGemp8rk5iN3EUIz9HVPuvMjeWdaWvI/q4b96uFllj3D11J5SyF3YsPtm4tpwrNnf6tzb2+t6bKuJ7sphSCChjoO8inuLdx0cXq6vs9L4xtdicmNFWvJNZUQLKN5FLHPvTg7FzyLudVmMgn+CKnGWfJI00XtdWOAHaFY3Kiki5Mt1ZNdHVKO9mMFzbMA1HiRCs+AWCNSagKhz29H+WrHl6dC2ylh8tn6+pr/zMcTNhP+BLh5l5gGniSn2ix+TpdEkhVHR8O23+arvqefIhfxR0saDv9WjjDhP7OPJx+y5q5RkkmMbZvLVrS2mjVUDi6nV53bazr3u0EW6zVbdOpub91/w+S7oaGlS612PZtfsgF6ratqxBdaIoqNvHthuzcg3z79Bj6k5FVSYV+95kfVwKZrZ/DI+2CzjpvZVKu6XbrhY7gWlmViCfHQzXIXIvwgfRUcpCHGfQER6TIqZL2yYybNX6z7EKg11MSbzT9H2b0Twrw19sPjXlmGK6z8YoC51ypPusbftr47lSfOe9toqG3eQga7cpL90vMd9xRllTzwXhOVwHHABeh8pkaoTtk5JnWh6Xvcc973XtWple8t7aa1p6SXTmULp12DmnQ59pV05Und6ul0bP9ZjFPlOyIcv5e3ds671ix2855iwf7JtLMktu/KsNatYAY52yOv3Vkx4qy/OUqL7zI/LW5JH82S4QzuBaFhf8pSkMg2FzuqwU2jrd7zYhMjEpBly1k0vmFZMNAy4HQrxPuA24D+WlzT7Lji7+GqJfbmTsRY70YpUTh31JzQQUOYddudTid1a+mtuqL/V1oC+4wHaOhjCB6quI1jXbD2r+MJ8dBRgzpsuLUpRRYz7mHWpv/w7hYMFR2IAw2fZfKQQm4mifS8mAtH1+UfnJXMoMbWlisMKGyWMn3Gw8mXe+VGjs2MoEdzueapNft8NSUuwDS0csL7laFPSXbnKWPpvQcfEy70LJk8oJLbUrFmnKsZN2WXbWRNsu896VwmEpIGXXCnpEi/4pENslhsbwOUHYv/4cz++5xBgMNwKfQ3kHMFHtv/SCmL4uhbhWKP4vS6pXdRzYWe3nTDCtMBI7Dsvnbi11Ja9M1y2TKcuxz9p8lit8NaG04zYXbyvHin1/irGXWSwkv96+A08iS4wTWRS6F7gfuIl4rkIpY8R6BfJXvKSZbj9kzS7f+SI9XY/vV0ZnUZet2/LhnvfS5u/0a3WSql/rW72GgtfZooR8fKZnf+5bqgb8ZO8VW0855jJ5cAm1pPmn0geyWP9U6OmgxrOpP8fau1ylqSgvv+dxkG/3F3JpsVTGv44QJFJ/2aorHDajmkFWvKB9QmRfv6qpM890E8I88Bgzwy+Bfhd4lAP7TiyxjVc3lKOI/hXIb3a7zgqZMUnbZ5wJY5WXICtP83LSmOl7ttmYmEB5FXFXmksC2Ybw4tFZ6A6vOKbtKnjMaMdueU9tEuiUCwhfX8KqwRa02Qa2VMoz4ovGlKvcVeZmfhRyRF5uU5aW6VTaZ97xdN3mseVYIXiRyWCxiULotjkTpipCQqShcwJqbfIsiaiU2bHciclmy630Xzb2Rl2Pgl98d+24LNq6KCKNVsmKk5ehVfUGRG5g9OGClwfBonw98BVgezlEs+/Ze2Le484YENAlHkQVtmndk/VdPtNnH3XCDF12vGVBxJEue71yzyjY51qVezTvnzJTppj2CFRlPaPH3uOgF3Yg4GA4hupbQe4B1o2uu+QFS30vOI/8ZZ2VMvqKLHlLbW6tlj+q7nNAR1iO70pvvnM/tC1YhCoBz4tg1GOw43fUWM54Z59Mcr6w73Sl0N46inmn/oLGd/BrhI1+lgVLUxhUNwRhbsSDsMJk6ixdZNJNN3eZTpmeld1cs0Jt255dCDtBTgLHGQwfQfVBkEcJfl9PA880W5o+f3BgL82ZDLcjzV7UqW+jYBB/G4kxCb2x/3smRKX7rFIBTaaOfGaUC01Z9zAz3MKBvUfPt6m9GMyPAb9K8F+sT7RZkuZ9k5nyyzSMcKKtoJX6QtqusKb7oFA8g+pStsr9yY7iUQr3ZdkpTyY55X2fyqow0Y6MYwStmlLV2SfePH9bZk246rzjS0BNgLdjtiO09UzGKeitFNSot1VsP9Jtr6WrI6MUz6Gkv3ev/HLyjs+ibEylfX2yS2pufGbZgGgz5uPlXzIYPrRcZnEAZubHgVtQPoro1tEnWpO3N/2WWr7ToEt1s9hCPHU9FqdF59qAzQrrbImqZNAi82KKQe197PA5M7ZrvDy9OyWNtOOkyt/J5w07JqXIF3DkgmLVwu5Uv4NI8EO3baj1baZsFdcq2XN0Ji4qL/WIWyINJn2x631VXzKUQusImto+PYWwmFW8hnCAbVnHyLpq1wzsmB21gFabB/rQp1yk6z0yxFILXsIwKua30wj3LcfuSBFLtDDY49N7mFv8qAn7neLsdzshNb+TwNN3E4s8LB0DWYvqWkS2Aa9EWCAoC0+j+kzYTkv/E2Eby6PASZDThD24Ty/nQ7mEeDj86c35ZElFgDTCUBIUS2j20ZZnGXTPOOh7fsIWwgmzR5fSoHPERuC2JNRmgj3dIW0ZRk3Q6LRBi77qEcDjtXYCewBkKZawzYWiQcZ10jkPhgYrAJiqswbG519T8roPt217rR8sTbaejnxRjgsj+HZW+Yu684ZUYGmzt9n8ts8o6ijeBVt1jZbsccdnWigeadzUJsCin9XeX29WS2Nsp5ApMXacloWMbFcs27SlFDpVbyYc+HNxfNDPFTPDVYi+DvR9QNhpZVFrinku9h3s3nMcZalW6fzwp2zMSPbR/rDPv6KQWboyl7CettnxUFro7Bgo+UYmCFXm7HK8dtJLAkZIu3bXvDj+VP9DvUFLwGA4iep7EPkd4sGbsY0ZTSbNuvCkvjfoiDWVvsnSi3o60l+Zr4+/GnQecQ+P7UXJ35aSL+Yt+XHBt2sQTnB+26CvQVnfUeBGtX8p251mc8aocWnTR0jt1arsu9Iz3js09BCanbHTQ2f2fvM4yLJads9hW1VyZlGuZNJc67xDlYk1K7e5P1MczJtbCrKxYBnxcLQYAIHOMWAjIhsrjGUB5TjoMUSeAI4xM//3hGPrHyP4/p8l7GSzsOTjuFcaZveeYGb+zxG5GTDvSinwWSZLqzhk35tnJmU5RRl9KN2a4jNVJhB+icHwixe/n+UG0P+fvbePtSy7Cvx+66n0VCpVSqVSqaamVClet4um1TEe09iOQxzjOA55xdhgPupiJgyY74BxYMIwLQ8iFrKQ5XgYiwGDARMgxgO8Z4wxLdcdyzGOY0jHOD0dp2kaY7eLSqunVSp1Sq1WqVQqvZU/ztn7rLX2Ovfde99XteklvXfP2Wd/rLX22utj7332uW8wYJmxHsGRQOuAr3cS4sk8me3wzuxt0D9h48Lsk2K67Rfn25kyCeMsjIUo6hbnOFttDWk2Q6/QtO/kRQdcIl+sg5TZWUyZxh8JfRN1kU80ZYNOaPR7ovDF5I3jw/K54lqZEHC0Y8g4qVH3OB6pqS8xeOmWLetcRnoS58YFYwlPos621ZS+Fu6jewH6k+wnXJwCehjhncB/B3I49eO220o2Vqa7eQaRZ7bFZTIF5eWDDASI362JenambJo+S0XB1i0DXXEMpO/12LYbOxjamZHH1lPqtkMhlVGKbb7d29bFYTI9Qvchtn8BrPgxmYwf5w/GMWdpGUuw/DR1uLQsf6JbxhqL/Z/pt7lmsqPenZFvDKI/Z22za0fpx8n2Y6WFowgnts01tk0n2xbt0Iu4mud2ItPVO4tpQc7ngUZOsgBizrpqHfIRNg9wVZd5A4ZZRiUaUHc9g0HO4EboH45GabahpA67LaLky+oZ6l8BPYXIKeClyX645+i+qvc48NdMpo911/rFbR29Ow1EHgTehto9hEkfFmgcwMTJsPnqTZ/XLVOH/nczGLYNfQ3IGru5ytC9DP+DICvtF5JlQNlCdPKi8SlOhnV0M2eTkO5nbq6DPLg9AXoC5URqsOpvlPvwrCAw2o9KDbYbpWzHWqC7Pjd12r2vTunHdINzo9QjEaE+G+BYpmc6aYaa8WlZ4GGbmOGU1P41tJUHrsoxxEaQbQziPF6BRcZU4miwj/u0zHFxAagCskJ3fvn+BgzCCZQPoKxTX25Nosy46pc505CzHq7BXCsMRxG9txkHadSb4GUn3CoCVqZKfySGtcp9lKtIn7SPbFknhpkBHzUILQ4xmHFyFvBQvgC6+LuF3TcW3gn6E7X/Hd8TGmdOUiwIkT2jlemIcxnyjm3BXAa3WWXH6M1WyCONxVbECrtyz6C6TMBwgm61fzai8+A8qy+zyeZZ/uZC+CwoRM3kelbnDFC5huifzt/g3sBip13YLRz1Xob0aNDzSnCdWGele63TzBaYMplCLc/rqgLJIBwRhixqjtm7PEdRvR+R+/uiNxG67UuTS4+APAz8e7oXgL54h78f8TTKg4j+uKPZntcOOIfDBQ1WGZrruH1J1Q/Yqs+t45cNIoXuDPV1JtP37eIqw0uBV7RygzHMhW6Ppk3urjU8t/WYsukeeqLcfozNuc58P0v3kmVf1BibaJhjP7mtKslYcOWj44Dv/ygeboUwOMJRwVojqiOyU+sODY2N1XptdITiy9p2nAGMfInj31hNN1tb8I04GF47JgXeq23bEJ7OgIY+Vltv5JXRz6OrruU+kYXoxMbrWoUC8gouTo+wuVdf6g0wmd6P8l5EXlllx+KYOhFB11jZcLT0CV3fPTXf14f1GHC355kM9dSmjby7fhuxd42NtTiafKjvmwY9HZpz/dj/i5NilSdBXuOEj8XH2uyKginrdJPD/wlgMbnpPsj3NoQfQWU43TGOH6dL7LiQEX4Zei1E2m16pQvTF6bfG91ncHH8pE2r6VZflUQjV1aXNk0lfRtJKTp7Ft12jLUIAjy55Jff72747iYlS+MjfQBBZgOOpe9jQD66VSnwyuJj67Eq1OqdMTnJ0pq8QS9nk3Rdti/Q+ZkHCvMGDM8Ctxvl5paurHAPyQ7SCMsaSWnTs4rcFoHyPDOA5ZH6Dq44E2SmUWw5Ct1HjA6jHAfOIrwe9BbIVeApJpceAvlfUR5DmNMA7RN0X37+XZAfwX65uzo82YDqIc7WVGNE6EeSfg7VunymrS5wOQR8F/B+7LcjdgbfCpwalbfqvPVIjinjofAAGnlSsiXy5IrKDYQ/nhP/NeDQwL8Z+EnAadRpEv+rI9d2jDTjIslfYGwLRqms4ZN1cgoNxtA6p75cJ4bBvZBc2gmK3ynppH5Lt6Mz5ouGI8izLWP1ZrrylpU347LRYzrwvQlIogEO7SihHWn7N3Ua6781ui/pfoG9hO5ElW9G9V3AfV6WSXgCwwpz5IGRhVpPeVZlZs5jIuUUsNaOiawPTbt1nFjHwchkI2djtNL2jZULp9/CmI32MwsSmwDbOGjVec3sqq076rtaweOg80+qdTLwQwj/nO4Dim2dleVzjo9GDmaNFwON72PaTwMFk2dswibV5VleqzPH2jHPMp2c5g15tiszwHLfYFDWUruQ+XzRP3B5gz/iimb1OxwaFTvqm6b6wjyfya9GqMbGRJ89tZlbqP4Jm+sHvptl3oDhOqq3x6MpOgVtbCg26naDMg4E6yyatLQTthncTZp1gkeUpkMhEYxqWAudQUnWmXRWEc4CZ1FegehPIFxB5VEml/4dKg/SnTt98+DfgdCH6b7+/IqaJKEPogM05jBlM0hNmVInIzJg5aqmfwPoaVjqFAYPk+kp4DudLR+TsaJs4upAFkDGGStnqKwRo22ry3sZ1TnPVJY10EPe8BTHz7RfFJKT30BD1INpIJ+gkDlGs2YTi9Ma63TjNDhWHmHc9qVoAN3WJjv+Q/9ZXOyEgZhn9d2NhG7n6Fm0RwzFtkfk0fKxjqdQJDq8vhLDusQwNjwI5ewkj62n9mN86PA6A3qOvQwYJtNDoN+L8k6QU+79mgJjKM5AfcijNFv4ROY9JvJ+tP9gW5TJIoMQ7EyWL6Q3/ZLRmqSNPa9tGRkeEYm2HoPn2PZC1465jyvR3q7+5dwnJHUn270GeBdwpG8o1pe0OUZUpKGvL7732AT95Hq8Ps/8ifBsHkfcrQzZesfG8nb1EUiaQeNo2aDrBxW93DcYhBfNl7GMT2n5MRZ8pdUEfTarr0YQ3t4eJrgXQxxN3CiejPX1NUTmOUVxz2G+D7dtrD+FyPXWkBioglUc6KJoSoYwmNUVHPKUQTm2FDULikDV6mw9SZ2NjzqmYMTgZAaMmmeF1irQsgKsAa9H+WXQvwL9I5Qf6R3YAwS5jUr35ech4HEy3ucbilTHtOeDNYyK6c9QNqZbHlo+lroHXbaKMlmaRN/o64G1Rmxt+xHP0qfRCLu8RiG4PEHBRFoHJ/9BNi/M84LlCvAfu6X40k7lmVEy2dCxhkjNfaUDy/uhDCNpjYHtK3BtJ4g0YzAyKoy7gpfF1y5H2zbs8/jM1pPhouJ/Y/EoBxmUNqvei3hGWvFpNuCpZa0STYKa2h9JXznQ9mFWj2szKVPR1lVEXpy1tCvQvXP0cyC/hnDK2RK1ePUPLM2NTEFqT6Lv1MHl+RDUr6/6QRM+2f6zNlDCc5T6oUJ34IBxbioNNg2TVuxurLuHIlN1gouhTFbEBTAWz7bqoX4GnVkSU8ddoTtIZF54MfCbwPGUvwReNCtiY0o+DO7GrTHENv5bAs0k6NgzoHt/43G6d4CmqL4f9P0o7wc2QD6JyCdRfRjhMujNObzagDtepmryiI8zWo0h3nZnd734Nxi6Kse/8pz1ix03283qz7M9KA24o2zM4X82KCT2xI352I5JczLWVPwInbwcOCzyDsPjIPcCxoAnCmx0Fs46g9p2YjY7mT3Llk5H61Cfb3T5i0GJbjdLYOmqyrfUZ/I4f0pA9QjKNyOsA+/i4qUPIfLbwP6fZ76xDpNLHwJ5G8IZd7a2dcbiSgqBNsDRbCEmWZlpZypqVT6/fBuT6f/MxvrOPr6n8sMIq0N/JO1b+qyzZxGyZWvGINc1UC4yN0Jb92LlH81JwSGUtVahWFyCEmxoFZyMa6S19Atz1Bloj7TaQpF+O24auckcDFO2tJ/xtMmcpY/ppm0gy9usKkHLADueBH9yTuBNs0oX8E79kbG21Tt9DU5tdodMcbxiFTEoEb52pJGdQffl5l8EfRPIyvanCDmFNJKXge7UARTozpV/anv8Lh1GeXGr+xK5FXcxXIvBveIlA342X60+q8e0Gx55XMzYViMfzexr/y+uejS6J9BZHlVags2ueMpzqM4XMEymp1H9JYS7u3osf4TRvow6Kt6OzQyPyVkcK5HPDQ7u5grwMKp/icjDwKMg1ygnLgKIbNViKiuGoWWCaAXVPwT5ltxJjXJneZ/p5aSKBm37IKXrBswxViJcnJ4APTaOlCR8lbbP0jFM6NdgZ8bKlHab65kFPF5Rh9cqEj2frdTP7tfNO2Vb+yIBw/+J8MZ6lznf864K2O0U0dGueUL+bJl2VuSYps+yGJp3uFUwcXlwZrBC4EsVihXgOPBDwLejPMRk+l5UP83mhXleft0d2LjwNJPpgyA/4gMAWn53if1vEPDoOM0KHmK/jSr6en8/cA/w2fmISmAyfRXK/a7LrZGGMNiNAd0uIJ05cxGUVCt2f4Hy6JxUrCB6tmHQzEDNOiaJY+lupb2eJc/2unEMkjFk8cnwTh0r87AEOJm8NConMDoO+Wxc24zxBKKZMhD1QgJxxrMl2uCU6JXcKpq+SgyOJSmtJ9BoeZ996Xq0T2fNFC4Jk+lLgF8GXgXxJJwUhxYceZGnVq81FT1J9y2e7eo/g8iZyuBGd4Tq42/MG98Nc+PQlMu2umUyPCYz8TLb7iKmnegEjULEfSRP1+bn2ZxjO9JkeojuWwuvGhItv2fQao80tgHRPKRs5yRm48xn36Kbef808CfAIyjPLPBycM6b0V0Jse9JZHABmrZ90PeBytPIgi+ud1WepjvUZHt84nb27VBr6BzRi3NDYovGbPBY3am8bIeUs19XEe6I7UiwWMDwEN3Lz8fyFQJmK/bG8PaDPpt1TvWdVWhRUY8gEpWh9xZ8Q7PoaRzdGcZ3DKIBA1A9gcg3A69GZMpk+i7gkf1bcdDfB/lOsMd1lr4IWS0vsq1pbnUi8CcGIw0ahPaK86JHQN7Qf1V2QdowR6myur2RDLiP7eufFXNmNDXtAp1R2Jz7hBnlEHWWbYbsN3ooc0BtveodA4XcaU3KlTaacROcH+903gJ9DuQWcKt/dgg4DBxFZNUS7YyhdYoc76Myb+MqAAAgAElEQVTBVN+f0VHWpD733Do/hTk6ZHXkjugMy8f4vLu4gchNVG8yvNS/CnIY1WOIrGy7P9b1mW17xCGOH5KzfNQ+r2R0Gp7UMV7H5xkm06NszHXK12yYTAF9NfBrqN5X8dnOac1UcfY9EKuz4pa14V27p9B5nCA5g+qp2r6ru+Bk9Ai0/LdyGN8xGFMurl9H5Kspliis+J7FLGd6O7ts2xjT404vySNjtVSYTEH1jYh8b6/7GMashswjMpLiGhDMgv/MAbf5wZcZHLtbCI+i/BYwRbmya2fmd1tSzzco+ZUbvJ5qjEHA2Y6RyNsxG+gQeHq+sdLACVSPDc1I247zL9TnqbqV/HmD5hxQbZapq8C2k83qL/NJ4kDXdk6EeSZ8hu47YHcELBAw6KMgT6C8NO0Y2/mQGDPJ81cQ9zM0ax678lHQXcUMhm5MqYpR2gGHmqc4GDIYhoinm83A5As4xnZLWtfMUdDvRHgtyq8wmf4ycG3vX46Wh4BHUX11g2PNkgxkl4bRVYZ/9dbwy/gqmEdpmWHAfRPwHpb5QIzqOUS+xeFZ+z32dTJwI54ayljbFfWAraS0N4jPU+gCswaix9B+H7fFLdNlFiGXZuQwNY60ys7RZuW4/y3OY7Z60VWxBXIT5fN0syT/D8gVlOsIz/bljgAngTXgG4FvQTiNsuIdL0w/Rach0D1rdUSSNJcvKnHTb6O6vqE76qotVG+AfAbhz1B5nM4IXEWkP/lCj6N6CuE+lP8KkdehHMu/uSBp0kBTwh+1z0NiRscoOLk6DHoC2FnAcHF6CHgjyK9B/wVYO0YjZLJveeLsTbQL0NgMobcV+iQi8zhBTwIPtBNIRu4au2iuO3g3IkcNUoY+CeUNXTH/6GTAHPm6pOugvwDynLN7BD0fJ+ysHah2zuCeOaxduc/kCDvkTyLyHsDMRIf+zPo9NNfSHfVU9iy2N1YXhdYtuv3lvwT8AZvry3z5eDZ0euHoqE4bEuaoLApW1N/RWS5OdGhPeJJFj8bt4JSXe1o6sn4Z80+yvhyzk2OwLV9tpTN4nsmKlhUjx+eVvC4Dgw74ozvpmP75A4aNC9eYTD+O8FIgMcpJVFb5YwzTmIM29jGiosCss1mVlk0w+RpFEi2MxTPrNB0GyEyFoZ6W9HPz4nEnXFd6hG7Fgf8ReCPoP2OvP4y0sX6TyfS3gFc3wZdmfRZwzp6PBU1V4YT0WocwsgT5EuBlwMcXoq2blfkxVE8EgzU4zQX5OjgTR9mWc3IXDKhTqGZsOCNX699AFpo1WPOKU2nFOYzH4tCPOZADcl5G45ip/Sy0Yz7wtfIQELkM+puI/B4b69sdv/dFuhXMP2Ay/WngAZCfgn4mqvZTwKU8K9dR5jJnwgVMtH07ZBraHQukorw4uar8ehz4dUQ22Fiftef3KbqXQT8F/CoXL92LyM+CvAn0UOpARzmo8pnpUTMOo2Ngy7iiycCufBIQOQycYtnjFaH7GBf8c+DnULMSaOUwE99s+1uz9auMba23zfj2M5OX55oV3ly/DLxv23xjMJmeAnlvKq8VUStXfT+7Cagxx26kzir3eL6pPs3mhX+1NC27DZNLqyA/D5xtaHXjsAent61z26c3B1CEsV1tdNTZ4Feqoh4ARK4B70L1fXu6nVjkXDeBYuS42KBmuzRejEieO30dDXjUbyXZ6l8AucLGUsd8rgGHnLyK6YuO3rZUuqtFt88fv69Un9d/iS8SeTZL77sxtoXo06g8inAFeArR/wBsGXk7hPAPUTmF6DlUXoJwmnIAkcVb5TmEj7bEHRws+uG23wd+AJGT7bNgXB3McMLi8lM2QKvhD0qxUarS1t+0H5VuolDSGfRQpijfNFixOJdKDCruqEir1GqBlwCbTKbvQPnVPT5/91O9U3NvMzMXHeHqZxicCz+ckiakFYgGzPRrxpcOh8MIb2DRgAG9G+SNrr4C5ThF26fWkSqzZ43xLXQFR606UoZGp9T7Njve3gZ+e8Hl6vO+3uAEFAfV9os1Bm7GMtBO4U0YB3E8Fhl2DnbJZg2tXEX5DYT3glxlY32+4xMLbKzfYDJ9B8JfofLLiA57d+0YscFZNDzleePgE8oW/EOZJigq/LHlTN12nNexoldB3gn8W7rVwsX4sHnhcSbTHwX+b5B3IkZX221j1Zkcoa2ipoFnI2UsWPVpx3cdM7IKenwhuixMpsdA3w3yZuy2QeuZuJlF89zKM7HfAn1OX5s0p9sUdMljIhcF1e4462wGP16PPctml70NSWycGe9DPZeXIWHvQF4FvLmRN/rrOA7T1USjE5svPheeBJ2Xjpux57IFfBr0J4HH2Lywt1uIuwMvVlp9A+PygO/zwsvIv6bCsfRoH/jy9oincJeru/HxZkCxo03Z8lwTfszSbc5uMa4XZ/FLnqN7x/LfIXwS5DKiN0Buzdxa3q2qriJ6BDgHsg78Y4SX0W1PBeEj7HT1dpdhsYChcyw/AvxQM2i7DD5/6eBsBjc6piVoEFoD4YKKikzy3OE6i46hjgyvlgjTXjE+xpDZWedouLJzhE019VlpasDlBMI7Ef4BF6fvZnN9mU+wzwNPgX4c5F5PS0HSgO2H2uUS8Q592teTOR213hFlPTjd38RkeoqN9avzkyVvRHVtwDVTflEh2IDGBoTq+8kZZcURN+qoVsX9KRY7VhCQNa/MQpuujV7mMH0Vi5S8UbRjPW6M2bFC2+ddf38O+GcID+3oPZzu44IfRjgB8kvA6vh4Tvic0eXSjJNZZTM6maVcoltsffamq3sLeBh4C/C5hQMFC13w9G+Ar0P1TYi0x2DHWcOIXKV7RHc2ARdJPhtcMvBROUS3yrAk6E8BbwZWfXrU5bbhWXkGdN3YjeM9Ti6VCmTJYyIXgcklgJdDPCJZPY7DA5q+bMrZ52Z8RpvZyIKC3kEBw2R6EvRnQY6079wwMuYyvZCMA/d4TN/P8BkGuAH8DvB2kH3YNgwI56hH4I/QVGD08Xa02YJFJ8RiLuHyNhWOtXO+7Z+k7Qjz9M12unC0XLzYJr/qFvAkIh9D9YMgjwDPsbmALHQThrfp5Okak+nDoL8B8hrQtwAvBZn3FMV9g8UChm4Lyy+BfieImVkKyrc4EzYIyGBWv8SXD0d8o8GBUf/MKoJSR9N+EujE2VY3u14cR5sW8mQKaMwJt/KpRgEOdR4G/gWiJ5hMH9jx8aIZ1C8/64+DHGqW5yzYsV2MeFwdCTp+2C4iLb9cvSEIw9avZ1FeBXx4LpouTs8A34d9eTQ1tpYWBke7URyhzxx9gX4Y2mvF6ybwW71TOR9MpiugL2oMfwy6LIJODgPeLni1RFnI6i5GRPCzdUC35PoJlB9mc9vtR/PBxvptLl76A0Quory2tSulXzPnz3Ss285RyJXhN6bFKkpb9HS7F4BL5sqTLZRPI/r9bFy4vBtsYGP9FpPpO+k+XnWm4lYu4oxaCY5n2b5on10+DXY86DM7Vjp+LGZDoH/BmfuBnwZ73HGGpMEnOngWbzsmsuAo0z92HHdl9z5gUA4jcl/jK2W6r443BvpmBYLWxkTb4lYJsWW+tHvE7RBUvx14VRPIaexX49D2Weq1SxPPkwYSnZ1lG+AG8A7g3+zbMZcXpyvAXaAr3nbqIMvpdqQZOtxd9jqNwCtti7ixJ7LsBxvNyWpmbJbG4tjM3imzkK2U22BH+zoyXZbWkTdj4FmE94H8NvCFuU78mge6wPMa8CEm00/Q6ftPH/xHfj3M9+E2C8pjIL9CeZmjdkxw2MecGevk12RpsvkARIPMGIGoikSGazdjHSpTg6vaZyawiG2PBR2FFg1p6QAuOPaeZMWhlA+Kf6hzBZUfQvUd3ZdP9wQeR+VTA2+kHUAFsdLXiudzdD7jMrrjaWg9KvtaTbV6R0C+Y25qRL8d5V6fFtpr+gwjt4kCyeqKchrztE7QZeBjbFzYhgBX5ijIaYeLNZ6qLd8iztVpqHVu0wcjfV/zSGhHP4nw3+5asFBg88J14DerYbOyF/sp6wi3IqZtlsxxLt+rcI5WyVfk2DixYivSTyP8010LFgpsrD+KyMebbXXN6qTFZwZEXRodrqozrUEPxr3jxxHQZT5CeRj0AeBYMw7rtWnPBWcFNaP3S6JzHAjXJsDQcA8g8izLHKywKIgcAe5LA7pZOrL0twug8LRGR9rqC8xYcPpjH1ZV5oGL05OIvAV7Ulrpp7GVLyvrVSZwIjHwIsjELL3egIJyG+VngX+9r2fiC6vA2hAcDA+ayQJXLvo8fZlybydLM1sVVEAt1/XHTboX/xeDyfQ4bqI5tmV9hqKvRzulzxcGUMTbynxaJrvvf72MlG1o3wjyABvrj+9o9XgWbKxfZ2P9I2zs2a6SpWHxgGFzfQv4BYSHnBF2ynqGwcqEQGfkt3VvW6+27cd7K5gOjUwwjWYuzrRzJhIa4ovPDn8GA+hXEvAOkXb1DMZuBZEfAf5lRvouwA2ED1I/JDOg1PC84CyBfmfAkiBLQ76mUvxAr8qplvvmTuFsAxenR0F+DNFDMxpslWEmC/FdhdI/Ae1mm1lSFXAblV9nY9FTNOQIcNrja+VZAs/icxsNYZzgZFzUXyvnoU6njBXQh4EfZmP92mJ0zQ0fR3lucBIMvTM9rPI8CJ7lYdb/jbGJYBnjZOGLID+I6uKGdD74I8qJSlaHur4o1wl+KcQyeJp9P4cy29U9s90zIK9v6nbsbhz61vGp2dTQnzmYhLS+D73T/gQ6cgb+7sIJ6jtJYzw0waCV9exdI+s0ayLjsd5ix7p810EX2Oa5hyD8E+A+m9D6CpltzSpL9JrN2KxIjtQ9pG8hvBXhV5Z80XcHoKvAmXQFYduiic6udczjr41GVZcZ+17EbDhHs/1wDDJjOkcRWLBcyOv4VJ89g+pPg15g48Ijd9qs/37C4gED0B/z9JPtEq6ZxYgwS8AzBZ/ml21kwTjjPTrtErWpf1u5CkIb63UKvdQbHOSsEfvMbZkw/LN+SdfWKsrPcPHSq/sl/d2DjXVQPoxwrUVZWl7V+2KoQpmGJyGIqGWSQk3btf6jwOtn0j6ZgvAmVP0HpWqwN+bsqG1nuHdZA/62botn9NUG3l1GeHAc+VE4Apyq+GuCm+ubHp96L7iVIOt4WKPRrKT1RDiDa/tPQXkGkZ9hc5dn1D3cAP2s77KsH2Y596aMe9/KMjDqAw15QzvF6Hbj8ybdC5CX2Vxk9Wgh+CLly6qZ3nL0h/71GWlpjc+TNlxAMWuwzwPyGjq5pups2F4fWJKavFVZ5ninMuMGzheXImVRUO4DVuuqTdoPxRYQ9GTCE6t/Gt7E+oOjrFxH5OBnMSfTYyhvgTLJMyKf0QaloH4sjG2vbSpsjFb5uQ3yPuD9+/d9JAtyiM7RDskxaA6gJs8sP6fx10aNipWvyyyyrXaAc6iupm00OCZjeWaQZI3uNkFmHBNpdbX9J1C+G5FfYWPuj+99xcJyAQPAxvrngAdAzfGQc3TwWKc3y8gypFknydqFWUrD/WbtJEolu46RfWOHw8ycXTrG0BEjfLsnuDiptq04kLvbo8C76c6t313ozo/+UDPYLN02uLHGSICofO2MYFwWLKSNzuCaOmteDoF+B917HWNwFPSt3bJ27LcxbyA4lVl/jIHAsNJi+9g6ZTXxQdAnZleYwjFUT/rtBAHthlchuKn+lOk/J4+hf2yaq8OMye7+fcAc56rvCG4hPA4k490GUImDX/C16qDqDZNY+snOdtetMEmbFrpz2P8AkemeLVF3cA24NvT7PHrUPcA5Yi5eMryz+4lDPOX4Vl+sX4IS5asbZyHuK3Z6J9JhMmS6OGkwfeb4KE8s6QQtBsLLO3SUVg5NP7ixTcsDu9pNzGNtUUTA6nR5FvRgA4aLlwD9FsqHKRtQ9zOswBdn2ASbXt+2/oPaisJ9zWPkq/NDPgP83MEEC0Bn608Mt8m4z3Y12LxORrStwtHeD7jCy8w36k7WWmasnEE4NPDd9F1FN/pn1o4lwu50VFImDR4TmpwsAMgWqp8H/TaETxxg/99RsHzA0MFHUN6Kct2MyAGi41zTbFajAOIMZ/3FyI9pp+7pNIPeIxCUcqnH1qkeJ2tEsmX66IjZ34Z2SweDw6aWN7GyRJh9va8AvpeLu7zK0MEfgl5vjHWDK94YWb65GT1rnIKD5viYKangQHTwGpzyNNB9HfRbUHmJX00wuLiZu6AoxLTXdEWRF4FGpgxvquPT5x1ovorqb7Ox1AtS5wYla8COB1VvOCHQYtJi8G2h9kuQwaaMAnIF+KU9X6LfWN8C+Q8uYCnHwtYAylzH4NyOQcHkK32J7++4rcPVZWWyPrgKvHOPgwXo9tdfqy9eR0/a3SbOdH2HypY1+i3bpjk4loZHpZ4lqehWAe/275nFPkt0dlwVSx3pPqFJC/rb9aFAd1rJlxZ7t2gJuDg9hOqLOxzF87XKspHt+sjqEkx/qZdX+70jCHwwOnbg/bNwwCsM3Slb3wccGhxIl4Ga6HYPBFqbIkWmDJ/FFIgBannk055CeNsB7yU/1/gJmZ8TITHZaXY7cVnTCHxwftAW8LcL27Luu0gvohysEu287Z+4eji226T8VBq0LSPalslkwMpGh8ujiHwXGxc+vw+6/XkDOwsYOkZ+GNHvBrnWSqlV8onD2V2YrFZJ2gsrNOLz2a85R2Pu6gj11UBDvPKpPt5IIGIVlobf2JZ1bqKCqm3bIgYfh5PFBUDfwuiMzE5A/wKRRxx+0aDZZ2N8rrNf1gDI8Bv1W3RGo2KvfJbjwLfnqOtJuiM9c+VXA4OSwcpMkbFIW8QFcy++T9K99UURykfpjiReBs4P9RiaLNRVhyI/mRU1uNW8pT4ja5VXtm7jbHSJW6DvAfbqvYUIT4LeHuQkGns7cM117Uo3sIds4OltDGepYCzCArqtCsueGDI/dLr22a7/EsNoadVAa4SGrkTXNXyg5WP3TZFFv0LafbW81pvQgumTWfjAwIs4w1yzWLqsvnc8usXevXticOU0wnnPxyCvYPpQ22f2xo3LaHcJstC35YI/feIOmDm9h26LmpezAcchrU5CGWXodJettk+I9ZTrxleIcgGI/CIb6w/tgLZdAL2n8SlmrnxHXyWMjzj516wqq+djO6t/e6mxoqygIfgZ2w7VBHKz6CX0ZZR9q9+b/m3b7q4fB76LjfVlbfZXLOx0hYHuWCmZAm+gO398q3Weo7Nsn4WsMSFztkt6Vk5Dnqg0xwKPpu3oPOToNU5GExiZfK568ek2uChOWjOYa31rKN8zgvzysHHhNsoHQG83wc2I75EGZQ3uGGfb5KlOPH7Qx1Ou3HPe0L3Y3MA/Qbh/kC3DL4VWCSXX0WGOTqnE/JLULZFfN4D37mAm/mvqVVw9cMiQyGKWx+QdK5eOiz5P1zfXgI19n3nxctBDkE2p/0getGWL/GlIs2VGDQtXgD+cB/VdAaV9QbXqhRFHoaYZuhoeZnJjxmdIHi7kFrDoUc/HgJND0BfGqqMhttdeurSarrkI1GCrzzzM5N+iWzHbY9BTqJztUEnG8KwxWMdoIu9F5rOJglQfVMd7fz5UNwYXL60A30d5d8FNVtjgwAZNibzDYDuHjMl1D6Nm3wqR/gXwe/MRspcgX+Vvx5CPPldJKz4F43T7BpKMru5byBJjRVhBWPPKdsypyiDm3dYhGdEhs3w+BbiK8oPA3k8CPQ9h5wEDdC/NdpH4d6Pye4h0L4cogyNc7ueBOKNvnX7rAGYzK41TOhaRz4iy67aGGUaq2JrGiROP/xhd6erFjGcWZWUF4du6D93sMgifROWJmTOOFZ8xPC2dtd5YuNVtJV/ha6P3FeAVCP6l5sn0HCI/CKw0Tn28ToOfOPtkyqj5y+qIvllxaoc2P4zqgh9q66H7BsOaq3xMtuKsemYzNSaU26TOJs2OP/0YGxeemoX67sOIoo+BqH0Q+z3W44LLwr/Y+aaslucVPgPs5yzUViqLZGnFKS5phq6xgLhJK+kJg4f2FgsalaMIJ1Ob4N6f0JDGiJxu12DAXe3gqM9uIuxDwCD3IPQnvWWIR/sgQf8kwh63drVtJs3UPl3mnardA5GTKK/O43ord0E2tyNzm3ihhabAFt0HIw/2BKnJpRW06P848AnjIfDGBVdxDM8VOYzk12VX41ag7IpIjHQ6HGbQNxcN24yxJkluAW9D5LMvbEPKYXcChgIb619A+FG6r5xeQXTLzYwUsPfF+QfcnrZyH9OaeqwTFRyqOniy4KAoYzMQrfNf0jXiw5DW+FQxeDBpqQMXBsR2ys3z8Tzdx492G64g+BckstkuR1fmhLmEBKzS0ODk9vy12w1qlXoceGWt5uIlgO8Fva/Zx2/53Cx3WwUsQ55sNlmg3UNs6k5Es4ebwHvZvLDc6oJyDOSEc6Cs4my2dKR1DL81wE2cwqZs4MPAlxuI/MmClOwQYtSWGYssmEqMZKoLRorEdvz42wL9w33f0hG3Y9VhlDmGRjYdK4xuGzLHwkNaelS0gujiKwzCMVRPtGPQtisDPVnbmYOZOp02TcwzCfn0+uLHHS8F/8ggNFxmwVGzIm3GbbripckYNmnVnpUyCt13YQ4Q9F6El6STSZndtM8rJEGEHafNzgZoV2KsTgXgUeBjB398phwDTvfX3U/cNgW+j8vYjuMi8zm2m3xK0+QmIotPFml/2t9YcyMqvW0+Scvu43aktFJXdgv4EPC/3AHb9O5Y2N2AAbojVzfWfwf4z+iOIxtWG6LjEwXF7U3sL2uaKReFJtu6Y++zYMM593EGQ4f0Zh8oHunB6Ph6Yx22fkuXWynRgG+gz6/WHAX+G3Ybusj6g5Qz36Nhq863eHoqruWCgZ7o72HyY57Vbg5BnfN6BNDvYDLtznMWWQN+GORQM6Nc78XzVWE4bjQ4kBbP+KXQqHxtmeYBoPqZne2B1RPA8YHXwQGMM0eR9y6dgZeZYxGLOta4Mk/TbT3cRxDzRxiPI5ZRA51OLWQOc9ZsYqWG5i6jsr98EE6OGrysvxua+98iB7O2N1jd7NjkKl/mHYZzSP9154hDdeZHnKK47xyTfzTQ0/bPTkR0+fdp+4G+LE0u49ad0lWeZTQb2Y06rqnY8lKs3rjOQb/wjPzXlC99N3hmsmlsds1q+DDGq1ImHRcWHQWR28BvAc8tQsnegB6lnoho+zvxJ+p99H80yYPxT/q6U52awhPLzb6Ho84zHFPn3o5ZbR9n9UDLmwGPvB7hMvDAC8HCbNj9gKHAxvpTwFtBXw78BiLX073tMMNwR8NAK1TRSbSZGmER/2zmuKiV0myJKm1Zp6oYNLsNys+MDz8xEnZO6ZhXjXEapbT9unkoWAIeAz450BhwGNsrX/JWfplB65zZWC70C7HNclECFu4DLV9yfgDVc/W5xbHU09BgcTKExIAnC0A0puP7b3hwHfiFnOA5QeQkcNzc++dOdkwe61y5IaQz5D6RVS+o5eKLsB/bNxwcA1ZS+ZHoAFu6TX63QjNj8EfneDSm0IeQfd+y0MmCmyVM9OLM7jNjN1uNLQLtAmHThncsbrL4to27veIcwbG2afpzdEuS7U/1Vbv3JEb7fe+35kwunQYx5+lH3ltvNnFqbBF70Ee2ZSubQXfvAih0gf/BOcWT6WHgtd1N3y+ZvI469+HCriJbfmbjd2yrb3d9HfjQwa8uAM0Kw7xOS+I3NVlCntHJg6ae5YJrkSRgCJ0cUXBjex7a5+VNY0dvoryDjfW9P/jgeQ57FzBAN1u9ceEx4K3AN4L+BvAEGs67dluSSpp5ni6dh6jYOknOeDSzSd6Ztc9mvVRqZ6fF3I+9J+HwSZzntK1wH2cMoqITzjKZnmHXQZ+jW2WgBihptt6wOUci4y/BKEKjyOP+VLvy4soLCKdBXsZk+lLgewZjIyWgGH7Ls7iNqhGp0L9NvgT3sb3/Cqg8SHeG9w6grDAYXLJ4UmOCxdGmS5IOjcG2gZGlv7v+7L4a027L2T9AWUkNS+rQaxvYFXCzWdn4tPqF1r4M/Pjzff3q68XpYco3SGIwBN4hdM4ngVZMWiwf85Xxb25tUKl6C1hsK4/yVa4Z59xnAeE29cW+GT0hbGTsd4l/s00rOwdlDR05EjoGR2MO3Nz80SSDGf9d0tPoAQYMyt2g/QvgyXMnZ8PlqAKME5FxKDRBZJKnsy1/0U923glwAjETRmOQBkXzZNqmsnwi90tzVhTrXWvTwsRBo5OWaSZWZORnLBAX+STCh5do7e8d7G3AUGBj/RYb658HfgzVfwz8JKoPUfa/uvcUrIIwTnVzHYIMb8ioicW4js04p4pEB5wiHtFBdrIZ8tW6wvPiwMYPbMX2YlobWK12ineXoTuP/GOUYzObGRn1+Nj9tZj+cH2jweBp22d2sNtrsfmVznnkAvA2uo+1De3ZrTtScDPOnyb41QbV0GLaY0jq924PxSrZrs1rCL/O5k6XN2UN+/VTy0NLayY3lR/m16aXcnXsQbM07Pqg1vGXO6NpQRA5BHrK8bkZs4mRq6xJdEjhY7blqB6DzMArO3tZ22V/j1sUjoIeG3DE9Kt6vsQ+t+PDjTNp6XJt2nHNoHcrf+Q5NtYXfYfhvJ9QcJ0Z9KrVoUbfVFzCtdUTdTIj9LELegTQ/TkhSeQ8okPAUPrPbWFluHY2xtCQrSoOjZS2QjnTntR81xAO8su150G6ya5oQ+P2mKq7TOdV/tmxEGx8KR95OzQWebSF8qc7pmy3QPUcSOujtbrIp1u9n42nrL6a1/IwCppuoVxelIz+Gwx3NTgWlKIPN7bLIspGdl/l24yZqg96+fHlboD+8j69w/S8h0P72lr3sY/Hgce5OP0N4BXAtyLyRmAN1UNmuw1NUNCANSDlnxWQkk3aazsW4r6+ZktNMoiccTb5quMoyaCLbYcAKVshmb2SsUqZpVwyNQsAACAASURBVNl9uA66AfLjjYGK/LT2363EJHwfEjAZza3hUazDBZX6+qpMm3dELE6W56adBpUEv9J+lQubHpwpmx+dAp9NWloMVL+qoa3IuQS6MgUfy6bPbHsY2bVtVsf0OZSn2U9QDoGccfIVbH47icBAh4V0FbBtsB3vjXN9nf09HQm67xccGwK7xOGOeBc5zWRI3IWBlCmmvBp+L/jS7OTSEdBTjqdRh8+SaxuUl/FW+wbT58lYcGQ53l1H9+V7Ii9vnL9GVxZdGGTOrlRHOxD1ARhabZ3lniLHl5c+jGE3QPTlIP1xqokNiGMvrcPYSxvkp2Db6AONRj9wlX1/P2sWyFqe3P/6AHD4dduhgy5P68vGSipPN1jq5Cg9jHLa6eTMNln/q23c6J0+fRH9PuaLqH6KHe8E+PsD+7PCkMHm+i021j/DxvrPAF+D6tch8gCqnwCeqYahCm/ocOuwl9/q1DEIXpyBhCB0Jj0NDEz0nc3c2DpqHmmabGaUSprFveQpKMc6LCnd7yrC3gQM3Rd2f5eyz9Up8IJDmBkYHnibnK7mmIvKG/L+qNeF/wIih0FXid0b5UKT3xig2TQ3C5vgYWf7xNwPqw7PgLxjV7arlONj1fw5AwF1hs2twiV1WfpTOW7a9nzqjmK8hsii5+7vDIRDCOd8onWSy68xKg19Rv5SGbRpaWJ89jjdC7/7CSeAk8kgYXAyTVL9jQPBQjTMMW2saE1YbD+zyklUjvp2bF9mA9lA1QGlP+xf6NzGPozW9yz7cXymcn8z3iqORT6FRl+5vIbuTD9JKGzNZpT7g/4Gg/Li4SbIswtuXJlxsLYpinAzaSepmKN6le6jXXcGiPkGDxj6rT6K417bZzNihRY04V+9ehbRJcaKHEVk8FNG+zHxmyIy1fcLgt3IieSy31Qvv8bm+h3wgvvzAw4uYLCwsb7F5oVHgf8JkW8D/hO6D8H9a+AToJeRYKDt4CiQKeTo/DnHPzOOOvzGiLfWZQ20tPXXbR5Bs9fVC3xavdf2eRNgNFHEHq4S6cPAIw6XMQfc8c3V0V7HMpmBaJbjbRnjDRSejBqW0hcYX0t9+66c0TI2IIjOZm0zKjDeD7o7L1Fqv32jyroO9JqfZrY4czbE3DRjIpSpsm/TFeAZVPd56VYP0e3/piWMNihIwRpOK09GxiTypWeaBp538Bi67wHDSaQ/MSvbjpPJfzp2TAY3ZpMgK/0uAhgv/MsLUSB6CuGYa6eJWUo7WTBTbqP32+CV9HVSvvu9zl5/sXwyPQLc29qDgk8W7DmFFXSR+PE8CrYPo63T/T64wINId2iF1T1ODznlFtJsUpa23fNGmZemPs/GhYPcpjXAxekK6N1urKaOf2Rgwq+U3llyE7PWvNdBllhh1iPUl7dHeA+Yba8z8It5kqCojiv1+Vu9+TDw6TkIeAF62N8tSdtB9zLlc/3fg1ycPgh6FOQ0cBZ4GfCPUF6M6Em6UwR6A4SfSagGyRh9CXm2m2F0s94hYq3L/saQupnNqKh1yCMmj1tyFl9vs1WKVo8uMO4Xho0Lt7k4/V3QV2KPLXUOVMHXlHPbeMToiDi4Q184WqLiM/RLQnxjF0sZ037TrjXG4XlcDar4FTkwhYY2r4K8h40LO3cmJ9NjwInUOaq4GN47uTayVuiyq18NHxloqvIlnidd3mvIwl/23SmcRDiay4+51hnPIB//bqYu5C9MSh03/g5Z8INlO4c1sv3MKU8SJ9GOi6j30i1CkuSx7ckWi5+WdYLuw22+38b0gWuXMEZLmjKq99Mx2sDT+zDD+GKEI27MxfGKkG5ztOBWEhKCKi+zPmzqPrgv2U4unUY57uSggVlyPVZuRHZhXM58+b8ew2bfQTgBYk7IixnieM0yJbIWn7nxkjZk/BCugy5xFK8cpX6Doch5mm/kOubJaM+yjukwiv76E+6I43OfP3BnBQwRNmsA8cX+71NAN2OjrCF6BuQ88LXAS7qIXI4Ch7otK/1RjLP279mZROcI9lCcrXqDV9guSLCOrcmj1iBocPqN81sdbzVOns9S60udnD0A0U+gXEbsbDcJTw0/1OLvHOoRhDODaXlpnsX9vINHHOo2vG8CGgyOkZ6oQB0vcLOuNWAUUG4j8h7YpT3+qmeBI42DoYYvFi8bCNj8sb+k4G4fGh7WLXVJ4ApPsnFh0XP3dwYq54eZpx7HKCaN/JQ+SdKawnFwhTxu7AJwG+HJAzh28UUuCG6DVWq/gRl3VT7DeEnuoa2v5FNw70MozyKLzszLGYQjoaG+vqink36ruiDgZ3W8HevprGwzyXB5MRqWAb0XpftuTLM6YHR+xUkTOktacLZinpoY+Of5sPerKjNBziD9iV8QxnBNYDZNJTnKrtHrdneAs9mjuuBgv3xtodvzfzwm+jFu0mKe5n5E7830jWJefXKpyTDVs4g55S72a9Et2bO0/4MMjDpBY74BoHoTkQ+98EXnxeDODhjGYGP9Bt23Ah4DPlHTJ9NVlHMId6PcjfA1KOeB83T7wT291YgSBs6owzQ8r3VYYZQg36FsVWKhusaplTC+jRNgjct+wMaFy0wufRzlvFO+UckXJex4iudBMYINTwtdxsGTwMvIk6o4Q/81ekRavaGYcv19dLRd26aMbd/+Co8Dv7prjqRwFhVjVNUbwAyHcjm21a5ZySq3oX9KWitmX16ckB3D+cZwNCwIRqHQUZ/h+7HpQ3PtgnErCzXvbfb/OxSgerenJcEXcl2lyb11qsDwxRjlhmdiHz8DLDbbqPqidtbPBkGmraorbNsxaLA0WT4EHRLrqfgIwN7u5e9OiPk6ZJbt6f9Z/d+A0Y3ONoQxa/PbNK9Ln2T/t9RZOA19AOUmaBLZ6x6G4hl/yOWj2tYRefZ13jnn8HfvbZ2yCcNlZgO2u59VZjYiQJHXywsUNFVk32AINiviNz5eg/5jBjmRdusv8AU21h+bB/0XYIDnZ8AwBt2LpmU1olPWIiugh+iW8+8DzoN+bRdIyD10qxLDvlrnLERH3io3BqXfOKAlTUMwYIWfIb/3SocAwZ2+xFCndZZHl/d2E+QDCN+DcqzypILFNeBdZnvQllc28LEOnFMKWqvxzVnnsa+7th+dhvDc7cumdbDcalLMo55OqXluILydjQu7uL9fToGuDu1HnhkZsH0St8jFwKfksc6hrccq4qFAuT+IGbi7up/oFBYwRiF7Hh0Gt13O5ME8j+CTbrHo6UC7ASJ358bR0o/vxiIvdXsOXr6djU4cC+O/NYmq11n0BXiRtaEa0y+BjGZFF9o8Ee9su0pWTxzfIl9chISFQXUVkVcmDxjGXkExpLlASnP6m3rEp0lSD1ym+6LxAYEeRTnU2sXQT1FuJbumlZnMgczSvL54BtU7Z3uKavcVbGjpTnlhBr3V3WLSRnVjEmw7uaw8XfZ7Jf7l7WjXJchvpM/REvCvSGbjwOSzstRl+NgyhPx9h6+sgCFCt9y0xXCiyef6vz9gMl0FjqMcQ/RekP8U+AbgPN37EiutE9LfR4ejKqxg/BzMGOS1njBoS147u2RxUr3Nviwt62OoPIToN7ngKW7HssqJoIwKj5xBs+Q6j3aGo2uMTFFm6MCfVDnAsK+fVqkUY13ZboyRxcn+uoBSpyDTcf4tBWsIqy2/qydoeBpKOgVscTf1xHKRz7Yu6Pm3z/uey4phxIXY1/hr63xFXyTKWuqEl2dqbFHNdBtkfz/sNJmeBo7nW/aC3lH7jMEhr+rDloeGeBc8JcwZ5Okq6KK6Z/hmTKPrYp9Gw6+4VQeLetU3JVFM2cSBGJ7fYK9nlUVWUb13tiNr8e3vK2069Fsmq6U/bD01eAw6dWjjcm87DgaUUx1fGHRR3KrlnOAIwa5g6gkNOdly5Qn8YetggygDk0uraP8V7FS/WfqTPrdjpDxL2WjrY5Ahx5vetitbLPPey+TSCrDm+yDqqwSf0razx+pxdHRZ3R941qyi8hzony9MywuwTcAwuXQIlR9HuAL6aeB6/y2F5z90qxFX+78vAg/2n6u/G3gl8N3dbzkG0ETpdRbXKOEYJXcXXsgLZLOYSm6g3XNTvsPlNrrgtoBlYOPCs0ymfwjyTXVFwwU8lidWYamn1Sq6yEvIn9m9vHZW3dqBMYeva9RcW0/D9KFbRbJ9FopHR7sr8zQi7+q3ye0eKHcNjoLpfDsr1OCkCU9tHSGIs3RFh83RqSByk/04ftLDUYTTs2fWDET5AeMzGAfDOqW170OQpIEfQ2VP7npfbw+noez9LzDGj2Q8OcNb6CLSZWQqtJFPWFxZaP9vtzXnnO+j0lYiey4wNuMznYkM4wPTt41MO35dZc9fetQ1kONeR2lyGcddxgdamq2j11QaHUEFYQvly2weoB2X5PsLcby1+gcfAARwwULCm0YGrC2AVJ8cBEym0E1c3u31VqB/nlUHKz/WDlidJ4E34PlQ9YReZ6kDL+QYcHK2vgr02Um/OmkT+i2TGQcz2lKeQeTRxWl5AbZZYZBjCN8PvATks8BvMpl+CHj2AF7623vYWL9JeTfi4qXfQ2Qd4T0od7fORg+ZA0aWD/IBgTGcwckp9Q+VmgcKcBvZh6+UdvAgypOInG0UkMWzvt+AwbXgK4YeJdX/6TJpX1fG08zAZAa5cZBKHTMUTa0/tKsYB0rfD7L7H/uRfu9+dFhnOc6ZLNnZ5lmRVaHJ0W7r40mEfX7huQ8YLE5W9ux4iDwq4GatokGMz0bGq8fpIN5fOIXEgCEzuIwb/hgBR6cpjudaLDgeQ9m/W4wGOhpsoOZw06SvYp8maW5cY/ot0EDMJ6A8jez1McHyijZYCI5PvZhhM5q0ch91WtCxLb+2WHxlaPegc4iPej7IQFcjA5YnhUdJvU0QoK76VA+4DHcMrAAX6U6H3MYGmnGR6bdqFwQ/0VfK4uuLttjbm2W3bB0HTrQ4FpJm2ORm1dgiKUkd4XmzOldpucqd9L7K8whmf4dBOYfqi1FWQF+J6m+h/DXwDiaX7ulnjb4yYfPCLTbWPwq8AeFq0V1VEBtFxuBcuS0dtlLxdcRZFPtbGiztii1H37bcYl9O+QC6Fxw/PMw4WkVlFEHBrTp3mfOuXgFYBWf5ZXkSHRnLv+bX9IuY+uNWm1ivCPUro5YWZeB7nRED0EdB3sPG+u4vZSvnnRJV85dkHvg/YgC1/2cVp/0D3MvShdahX5+CfQ4YhKPAyTrearo1ChT8TB8FsH1nHSibV6M8GLmu+QSEvd3znoHIsMIQ9VCkN11poB0/gPtQmDPIJX9wMpz+W/CjbcJZ0NW234IOrTojOgEBtwbvgqAMf4UGm9/qFOEqyN6uMChf7XkvNPc1r3i+WzqaMuJpiXal6mkY+KIg3Eb2eUudhQ7lfzj0JR7fNq+/b8axyahRZoyj7OoJ/INBJx48nAV9c+pIQx5AWP1UdXbwQaIOkPqvb8bY9SqDLkB5GpFlgusTqB5vcHS6V9s08Hos7ZrQZxryxsnWgZZHXjgdaTnYxuHX1wGHqnAJdEeZ8i9R/nfgg1y89M1Mpsdn1fI8h8eAL+BmNqxjGdJt5Fvz2vtSpgzOks0Iv4QydnC7oESvsF+zRRvrt0F/G+F2Y+ztqUkuiDKKPTshqTqumD/LB9O+5Vdxevsm3a9zLkY97CFPDXwY8lt/yzkmzom6icjPIsucS70NTKaHEU73X7Q27RdcAu0YfkY8o+NV+8DUVYK+aqMM8VrL7X/AgJ6E/mhBTWh2geeQ7DLG1Rj7LNJrg99oXAfnbNkX/3YCL+ombYoOBu/MB1rdeLK6JhhXIaRHfo7UDaALviysnAM5NOgJ24TFC98vJb8GPCLeVuQt3VZvtpMOV/pV5b2ByaVDiJ5tnGOHf8b7KK+MO7TRz7YTJLVNc93Bwe3VL7Jr7Z6dKIqTA5YX1vap+XUKe6weSOV/gFVEVpcjapdgcukw6NtAjgwyn/R7psfGAsroo9gJkWzCzdbhVjO4CiweMKieQOREI+/ZeLR5rF/g68N1nNWFTT5LR30Ayr9fmI4XAJi1Janbz/+NgFFKVfGtIJwC3gTyeuBxJtPfB6bA5QPY47uXsILdP2yd3qqserBGqsxsOIcFr8yLg5050XaGYeyjM8rn2LywK0TOBSKfBx5CeJVDxTnwxpEpclN/Iy9COTdzrK0xVMMvpzQyx8b+Qm5wS1vxeQkipL3v2t4C/QjIx9jYE/6vDfRgZANPu7OTwUlw/HeKv603FG+C1y7zFdBbOyFqcZDh2x9lrFl6LI1VP0VDYYUU8wxmHuFrP34HJc8tZJe+s7EY3NPojciLimtwlMe+G2LHSHQw7XiJ2xu6eq7BgvuZywqD64/GKQn6YChcHYNIQ3mO5UNJM2WaugX2/JhgOQyccM5KHGcl3eI61gd28klCupMFS3P5Z/SrHvRhJ+L54PRvIgvg6cpsYayw0G31h5dh0zbQfQD2xI7I2imovBLhTd2NoTPzGZo8w2MfjGdlo25j5NdUqjzB5hLfYBA5AxxqfARJcC9tRrtPlGeMbYvykNg6bz+3EL1zvrfxPIPxFQblLN0xpDQRXBmA3WA8SvcF5l9E9c9AP8Bk+j1MLp3i4nS137P4/ITJJYB7gDUXoVvlVvgABCn3ac0gYEivWZMRVGx/nFVAbiPs75v+3TLeB6FfZYgrAdE5r+QE/mSzvs4o6kB3eVaNiWFYNB5q6wyGswnWYv2lvoB7Af9tgysgb9+TrUgd3IPKinP8wDuFQwJuJsk6Ug3/CiT1NrNvjWH+8h4FR+Ogelez+hENQjQssxyOzOluVglNxTFNeJbd+jDfYjCcFBWX7xt5jeOqv3bb9ExZC1FHlbqruFWH9irK/JNC3dbVuyhfqi7BXwwWnJkRotmpaW5G2jwzP2k9kWd7fUywcpi6QhYCuYijHZN2G02Udafv+nxRh6Y8rZ1+CBFzvv8+QydPZlVHvTzafo06KeWdfV7AGQ/3U9vBP+759NLtCdgjmExPg/48xI+1RQg2sOj+bFU+Hc99pjj2LWTjTuTvZuM1Cl8zoG3kNI710VvTl1YXFTa4epO6GpBnQfb+oJivUBgPGIR7QdfcrEc0HBa6TjuFyrej+gFU/gr0d0HfxOTS6b1Bf49BWQHeDpxoBlFRbvFYwyFDrcT92sFdjHfmyNaluYhUbesqe/Gy7fbwUeCpQS6Cc14DyWSQR2KywAEGw+qCEgkKQYefTFk2fFVfV2OAwvOKk/nrytxEeTsb63t5xOja+OyLcf4sCZUtNniwEGhtHO3+1wVWxmHUA9m7P3zwR8u/xMm1smD7sSQ6dgSjVWVN87Jg055D9/2kKIDzlbYaIITx4iYU1OuQGmSWdFOzLZbp9KasgvAUogts5dHuhKTajpZ6vKxKkNsY6Ba6q6OMEQcrw0bn1DK0Y2nR9zAWBWEFOOxXpA1e9jrahe6Bry9OGtX+CDrU0u5kWItNO7MTsnYEmxdA9P9t7RpBb6nvf4mCG27dBEd8GO6ztrvx9F9sg/3ewGR6CNWfQ3h1nmFEl5cx20yG9A+zoMCOsVQPRNtQYVn93x6l3Ex+bgN1WAQ6baBp7cBsuI4uc9rTCwAzVxj0Au5bBHgjlUX8Il2eLu9JRN4E8gGQv2Uy/TMm059iMv2G58U7D5PpMUR+EZi0M1/BKFWnRP11OvjEG21rKOxAEqgvZzH8DO3qE+y1wcvhKeDDfpmv/GZKOig3Z+yNQxqX5922A2tQC09NkCIMeewMasTHtYevtwYYAb+KUgnu+AjChxdj2QLQnVv91Q63oc8LYQPt1smodJlgKzpP1pCUPLaMdbiqsVZA9/8bDNXJNDgWcA6WBfH9WAS0yqcZv252KpsAEc9n5Tm67Tj7B5PpKeg/mEjo7wxXZ4uNk2oDIzdWzZhyOg0fWKupE55EZYFtp7JC922b0I8yGPtm5cTiHZ7bIKYJ8itTQhlDc9fec6ju9WrRKnDUrQJV2XPRy0BDY1vwNHp59GVs4Fvy1ybq+F4B/nMuXjq4/frO9uHxtwYljld33VdkbafaX9sQuHfjan5bHkDv5+KlF+8BxdvB2xH5IYNc0G1mDEQ7mOnBjFcNj4cfN1lix6N37JcNGNZc/W4Swo5t9fQ5nCJtSZmqEkb4MaRd25P3Dv+eQL6XcTI9SncWcAdVsIwzFjvd/loFLRyi+5bBa0BfDXIdeJrJ9LPAnwGPgT6FcnWpPXK7DZPpEdBXAT+D6msQWXEOfiXbKDTn64rPE6Fhm3VggnNtnRw7arrLP97TF/bGYGMdJpf+GOTNoMcrQZamMnDF8KJkqHwL95WnMBwBh+eLuzeKIxrS6OhFp8P1Z1BapW5btsxqKk8gvJ2N9b07WUVlFeG0QzI6Q6PbuTBjD0MDgR/m3naaq8fd36J76Xk/4QRwzOMLQwAQHC5nWIIwOvlg6OMoGxJ53vDu6u5+zXsOUM4hrHh8hodez1j9QUgrshzHRp/H8sXpmqDnuusn2VxoO94KdqbRe8Oz+6OqP0u46aPqODDom4YXQWa6VeHL7PXLv91Xno+6Pqr81jYNPC9ivpItsxXDjdevkOTj1XTbkg7qaMmnEW5Becm44I2RSfMbZdjJSmIrmoAM/Ipc/WfSBLqVl+8GfnZ3yNwGukmRHwB+Clg1TkGDnh8nYXxGSPVcX28GcbKuXc25Brr4rPzk0jG6j/Thxp8b28HmVrC+lZEBN2bwZTL+uHoA4TosddrTC8BYwKDcB3o2dSAaYzMU8o4amYOyQnlrHr0P5M10H9F4EuEKF6cPI/xfwOOgz4LcAG7s4V7xsr/2KJ2D8g2g/7T75ZhXPlbYC70MQm+Paht3vHowg6XclzprPX2TktbzNMjHd4X+pUAeBh4GeW0TPFkHrXFKS3GM7Y8DekThW6fAOQE2i5G9ajgZfgeHxyuv8izKLwbP7psXbwfd2605wipwpnGkLI4F79H74IxEPjSG1RIbx7gA+iQb+xzMKyeQMAbtTFJ0EKyj1BimhC4IMhBkt8vgx/pBrOgJd6ParQQ3Y0MSPiT5mmsMzUNV9SLSH/mk/O1CNChHQU8O/Iz6bhu8I121r0KZjP6Mrq7+K8DevsTfjMHg7EAue071hf4YKjRiOaJ/m1mcypcToD/KZPrzu2pbO1t6HOU6mzOOrRS5DnobZLUZo0Meh7ajz/kWc46FsecuDysgP8DFSx9AeHxP39m6OD0K+t+DvA042uDT0Nk/U9pnxHxWPgzdUcZMk65d63h09T+FyBJjRc6CHqH4M02g3+Pn7JuRa2u73LWxz2VLuBvb0Vcw9/BE/9HeF2AJGDst4WUg/YkBjtkMSi8IslXM9UfbdAtdZ57onYOXIPL63ojcQuQy8CSqV5hc+hLdjNAV4GrntBVhYMvXl1BThGZ46e4kwhpwL/D1dC93vxT0RMXVDdLonBEM6Rj9FoIRK4M58sgqtayi7vmnkQWPNdxN2Fh/jsn0g6h2n6+PdinOFmR9AuNOTTQMkNeXOv3WCU4cj9ie7ddSp6Whq3sLkY8C/3bPv3SuehjkrONFkQmLV5wFamaTjOJv+K8tv22eaFhF9v9Uie4UtuPNBESkOZ1VLA5ClB17nzkM4mXOOmQd/N2u0TcPdIcu3I0UvRWdyqiLR+TdGs5R/WQgC9YtPxcNmoVzg9PQ15eN7XS82/FsHL84tmuS5YXivjzv6brMXgcMBazTm9pR2j6sBWn5o7Z8cJRs0ODaNzzq7n8c5c+ZTKc7+ghrd6jJCnAvqt+HyN0IP8isIzhVn6b7cvwRTz9JHzLQVx1go7+sXDe6wpYNjvCYDMFpkPcC38ZkuvsfqJ1MQfUswrtA3oTqivMlrG62dq6MedvPGY/q9Sh9RhbGHKYCVY9cQZc6Ie8UIodnyqNBs97U4R50euorlGJGR2T5qk3c65PRvrIhDxiE/v2F7sYpO3cdvQxM5xtlXe6L0anlYzBSKtBVkHtA73HCZGesVZ9D5CrKswjXfNv9CR6qRwac5TjCCZSziK42hoVaL26ZrFScBQXFgXPecjIAo+PhyokvlzosdhDIbYT3Hsh2JAuqHwMeB+5tg8eioGGgr7/u+sKkmTJdxaaIUfRNEasMTD5jMz1fdShnDW7jYBDKCAiPAz+5Lx97ETmM6jk3y+L4Ruv8NbOXpj/czJ1xLqzRHSoNY6I+3/+AQfUMcZWvmTVmwDXOtnWVGNFL6slWWqIh88/2eYVBDgF3EVcYCnLp7LTRyxLko4yJ6KC6YANPdwxSuueLTlbcM9qHtasS3ZnNFo/iZsa+1QfOxtQ2tkC/vPfBfyCpCcTwvM8cvsTEjtpYNeUsT1yAVpXjCUQ2gXczmf4qG+uLvZszmR6hO1XoNcAbUH1FF9jqQ5SJuXG4AnrT6xuDe5TnaKcb+cWY0hFd0AZMfrx4J/S1wCboj7KbH0adTFdRvheRn0f1jG+bFuexia5CR5OWjJ+Snk7OjaVHf0iWXI3TMyBHnBDH1Y0qkwFvhx/DtaWnoa3Y8IQfg968vDgdL0CBNmCYXDqGfX+hgJOjzLiQDESTKRsEjNTlGjX1e8E/iv3E/NiAKJVHx4imviGfFmfJ0l2Us1RfyiBtFHJ5xtAGmPQwGC1vSqb6KfdiIB2PPgF6EKcjBZBrCB9Fubfp0+650QPi2O791+LUGVqt8rf1RKXqHAlzb/vCtp8GdxZ3a3zLM64DD7Cxvl/7fe9uDIHDx2rbXlYq3lHe1d/H8TlUjhtDjo8A+te7TOMcIGt5AGqhMWzmUejPMp6b+qI+6tOiDCm3QPf7PY5DKGfaYJlAb8IfS7/TsaUy64zUQoOc1PyYPFLGw4L7mXWt1hdxt46DhmfOgQ5OhU2L/WoDC8u8ogOErX1xHLrV79vRH6o4jzm+bhxaGSbwB0OjqWvI7GWE5vIo6M+BfD8Xpx9G+N+AJ0FvgDzTI3Sky8dxgcHhyQAAIABJREFU4DTKvYh+PV2wcALlKFImF4vt2pYzz4BcxZ3WVAXBIFh1cLi39DLIdNGR0RZXtWjkGJOn1uV8ktcBl5hc+gWQj7Kxvvy+9+7ggtcBP4bwCrT/HkkWPNfuS/Rd4+PgZSgNyoM8WP7aQCX22RBMbaH6JTaXCa7lDN2L/yap/2dxc/2ibb9YGmLgZ9MsidZh9frmIA6K+YqBNmBQvgHRo60EWWcKP67tg7GAAFpjkDkBdlZkbGDbfGPGxSoKkvIRH5uvyWPRyRyMwIPMGStZ1OYpAz2hIzMe3T7C94Ds3Uu388Lm+m0m0w8g/BTl5bWquDPnDWgCB2vwDR8cj/D1ZLMLBTKnoiq+ojxi3VEebV/JbeBX6D5IuF8wHCXqZLr+swnkfDLl3aPGKuB44rLW+m+C7LejDOhdwSqEcdinNZMD5ZF4kuIHzOxMmtr6rcPJIBfdKuY+vyynq4ica3Bzs8e048nqjuwL69FRxT63uslWXuEJYH7n4eKlFZC7HD9de6GJxiGyDk5/2TgIhpbM0XZ0QY//lblpWBZUb9I5x2cbm5SYvgFGdJJNqzJvgqGiI+Lqo5X1mrfaz0Moa8D/APxEj+8t4Nm+/sN0H6A7Snda14qvp/BatqHJwOYFuHjpYUReOvR36aPCnyzYyQIS64xo4Fm0O4l9sHX45ysg96L66whvYTL9IPAp0GvAM2xcyGfcJ9MVlCMIJ0HXUL4V9LUg9wKrHo+x33IdfCgxfIiO81hwrbGsbS7IRbHDMUjtVhiWga9ukzIblqXhA4k4DiKOYPigeLpqxmcRXjghaQfgA4ZO2L8RWHWKCILAaeuUNJ2FF0Ds8/5hfc6QFiPEKCeYZzZfAWtUmuWvWN4qX/Vtx6jbGWrzO2YEs3sCPpYGV7ep0w1uHmRj/QBfdm7gcdDPgLx2wD8M2Gb1wSh4G3RZw18Ss/6L9Yw5PmlQYZ0hKz9joJ9A5T0LngizM1C9C/CyAH58VTktYzTQao2mC6hI+Iwv2/CPWxzEx8qkP1XHrjiBlwEXKCRy04y9Ip9DI91PkFVnqCuzF/+68U5BWUXs0bKGCc6hHgrgHEbFO3QaeJY4IM4JtNkKj3gCdP6AQeQwcNo3Fx2e4uw3hUOZQnvBGc+ThhZbxun82+zLCoN0KwzOgU3wtDywpLggJ9RhA6SmDkO/7cSm/6NzqKsop51eTO3vUGVtJ+2/GSDyf4D+gOvP1GEOlVrZboKAyL8ow7bKwBv70E9sHkH1lYi8EngGlcsIV5hcugJcB/n/unQ9hch/RHca2GmUuxFZw66+jMlzvc+eR9kJMuT7L+HdSDuWZ2P91unZLVj2HTY93zI++Hv1J+trhjIxuLE4NmNkVBCfQnWB46BfgAhxheEwQvciazvCcB1STwbq02vnbtPBtm53TCumHN7oZ0txznDIDFmJgzBpO+ar+BgBj8ECBJxiw+KVeFbeNliTAl1Dnqt0H5G7k+A2yAfojqHtVxn6f7X/CE5rUBp2sDd9WyrMjGmoV5N0O7NY0jJxjsv4XYYnEd7Kxvr+zkgIax0aFl/Ls3KtPqnwLMqhY3cxtJY/oYxN6xyOmxzI8Yvmo22Qj7vuARSHeCjrn2lJi/rIKA03QSDmca1r/1cYhOMox1s9aH/V6LKoVwytmWHNWJHqa8M30SszDHIGRygBg535z/RhpkfjykH5zo+VZeesSlIGfBDFdTbW9+MDfDdw33owMtjYHvXiWQNCI5dFHtMVhFg2jgkSPVLApDVmrPCZtr5mgqz/NzqT7+DzINdQTvqTbqJyjiD+saM/lmfA2/oHoxN7mX5xaJygew/y/iZfNoNvIZLTjMWRsWrHpSbl0sDHXKcykLSTId/xbYvl32FbcxOJM1+yniUzhr5RPpLQ0uj7pxEO9t3P5zmEl5P0JPAyl1QVVNNTYWyODO7GGcM4LCG7zVoHiY4IRY/TTEdyhsGsqyRl0BVHqvxa5WqajM5Kk7XUa4yZJuUVn+7OVibCLeBdwKPNk4OEjXVAPwLydKOoLZ0WrFEoytvmJ6TFmfAYbBRFX/R9vTcGqBragF9U8kNf3QT9MXSfT6KaTI+CnBnkRDwP6goA3gBafsZxYSE6EqW+Olxser3f/4BhMj0HHO6RGXcko2Et6VWuZLhPZ6dMPQMzPZ8pyfI0us9bATUETeDHQ9EbVlfa/iy8m8U/+rIlTcxz144CugXy5d6JmBcOo3raOfbzOJ+jaQZfgrwWsGOmmZwR2L+X+G8gXHOBS+0nTH8Vp5HQX8FWONMXdWSQ7ygL9t4F3jrUH8FOWrh7O2b6DAWH+YIF6I4ofqLibQPIGERmNqLg5eyG7eOgP13RYFdSOxPyx9v56Wxpc38m3fkMIa0QXNMMD0obsc0xXErBbLw1eHOVzfUlvsEwPQJyppHPKENWlt14gKaf+qRtoRZp5OUpVF4IGHYAIWCQ14EOR/gN6VTHq4KGPEbruLO1Q5bxxDD4bVo2GKzDp/5ZOuOCF8RKlnEWikK3qyOjMwdaszTPbD11hks8DrXtvq44EOq9gvIg8Du7fsTbbsDGhesoH3JpURnbX2sEHa8ZnldbWZwMI3vKkN8qPyuPhc+W/1aeNJY3eMEt0H8F8jE2953fx4GTjVwX2alBjzGIlQTrNARhtOWtYa9/USmLreKpAzi3+gw1YEgcBxv4OBnA9Ln9hWZ8FYiBJLHu6lA9cQDycL7RfekMY3/vgsGS35YJ9bihp56fztCXe7mFcnlBPhxFesch9pHDhzAuk/6VkK/SB26brHVm87G+PxMBG+tbqPyNk0fwOtH2gw2qrFMYg/wY3NrgokDt96iLTZrlczNhY2xS1OFp3bR9M5s314G/aCZ2Yr/bthqZCTI69ut0fv8v07HWtkTI7E98kBVVaPvb/hmarb9RdTa+H7J89tcN/ISA1A4HPLFZdNn3F9ZAD9V6xmRItKUv87lS3o4wXPytqesKmy98g2EnMAQM3VcH/8vK7VHHqocoYGWwlx81fwXq4CAkzqFk3AxJqVt9uzEwcMYP/8x6+mlEOyZ1/b19GY8wGCzOUVlZg16rzdqqivQLoG/f960xi4Dwx4g+U2dMrPKKs4Sl70qfWOPunB3rANR/RrGb/E7pmoZc8KhDexKf1XJbCB8Fefe+HKHawjFUh++fOAgGvTgVlY99nrGx6ngWnQMzftryB3CqhJ4FHba42YAH/Jgq4GQsMU5WNw0Zh98xp7oGsPrl5WjZAYh+9ThdgSejDuMYXQx1pM9cReXmFrLo+yx6hrr1NYxP2150rKKDU/V8Ms4x/Chliq7P+hX9m8Vo2AEIjzXy2OCV9OXYaUOFN2LKFnABSRwD2VgY0RdpAGJ1Zmbvsr7ZBlT/FOWmm6CwfegT8jFu82RlUlthwcraDFyrvo0ZZ4wloNXjY3WPPUj6Yp7VEIn5Rhpp1Ecss2xwrWtJ5SMNb8v48bHQ8MJmDMEDsv86/CsMzAqDngTud95FdbRDpzVOoAx5uwxDfjFJjZyXICAZEI1CLX99PfHFPOtoZ46FNbK2bUdYBsUJxjj+RWkXpzbMMjglZRyyQlszE25JcDjfAt6KyGMzEDx4UD4H8shAr+VrMqjtbCC0PKw/MuSPM1oQ6tWQnpRx8tuXcTNUfB7kgR0dobcTUD2GyMkm0O2e4WSxyFXhXTXorj4v/57WQTTT2bya9Uu7TucsmExB5QzIYb+qYJwtO05swBSXtrFpDL/Z0nt9Lr5cLbOL57HPA5PpIZSzKV0xreIZx1ASAFZaA49cv6vhrVoZucWipwspa+3Er8XP5c3pySZemn61OjgamjJWFNDb6L6exf65AQdG6GP4HXUGE3tl+8byaFuZMXXGS9cnI2PBpRnezru6UEE+j/BIOx+XyEcznoMecLjR4jKTrqQOV64oGGeoQxsZ7VFus7E6Qt+stFhnxpuxOuZ9NsBiX3UfYI3iX6b1W77a5AX4kEHWX0Peg/vY7VcImIBB1oB7GievOifgBpwblEFZ1FlmZTjWqxilUlH/zNYP2whHorgG/A0uAVdXh9RsNb36uZkQ2iDFtGFXLayXZmdLSjtxy4d7ZmdB3MNbwFuAjx/QbPf8sLl+E/hNsuMWrZPeXWAY7oPAUsAGqGoHPr6P4nJ22odxlqPUb4Nhge788R9mY33/P1JWQPpzq90MXxmH4T4+L0lOrjM+Cul4srcmK+jlZclZGoQX9b8hwMfQZAxnyWdnX5tVJFNPTAtzE92vG5e36T7et59wDORUMwEXV1ui7knTjH7OtiRUWk3d6SqcLv6ycOnL2lip3/SbxctOshS5bVYCjU6opFqaTZ1V7ks98hwLr5LsCK4Bjwz6puC3nWwmeqyRW9NHdnJvO5kpdbvxZNsPbTtbl8mRwSF1nEdgc/0aqr+fqWiHt8NB8mdNeaMbwD/P7rNVoNpOZCi4vkorN2kRz3idtT+rXMOHUHb0mbGVo/iZtlRvs8yH6ybTFbojVYcPTkY6GOHr6GSv4feoTiDpL6MrDuIDpF9hYFcYLlD2nIFXDsURq2nF2TOZ47KilmAhc3CCoIwNpNpuUES1rajYCi464BAVXA0+xQiXcTJcWy7y8GWtMnLZNXfaNPALW08THN0Eecf/3977x9hZnXmen2+pZHksj+W1vJZleehq2kMzCLE0Qkyaphk6S0iZTtJJOa5bHZJb0IQQQmiGZAiiaRYhlqQJTWiG/KLBieuGQN0ydUNIBiqEgNvDeD00YtwMY3k9LO31Wl7LsryWx+uxLG89+8d5f5xz3vdW3Xttl238fiW73vu+5/d5znOe5znPOQdonJH7Fkphm4HtgTBeKux6k5yvzGXWsTgOYZi0j1MhKGCgPhMvie+XKbSaHcUpZ6f7QrwLwp/RpOQrqLHiFAhZeLTlt3dEy2kf+G0XWrCOgE7DCUnJzcBA6WEA8n4UhBSRbSQss+75tJjyB3+8mhc2H/97sF5uOj0R2EJgWSbIQ0l9vH8BPZCHD174ybcRDvMAebw0L/VyvKIG8vS8vH0lPy53Qbn3ipQJp1HfBXOVvPaJ8+YIMJf3ihwDNgJh/fwTBn2+BPnc6RtLfPg0GvBJC3moz2+DMCU8wbywGS+OM055dlRWxe3dBaTngL3FMvtF9mkdCmPaq1qeRMQ7/bGTjZmyyBC0e5EXlMeJXwdli9MqKfuMyUZ1z2QbP0jUx3HclI/4oldhvPllN5CO4E5n7BLWj7u0LSqbBX+KbeDRbqzslWp+Ec2k8fx/aZ3hKDan4/5DCacwDL8yH+PqImFHWlzWAbEWR5HBiOKghWKYjFl6gyIT3qGMXxYGeyBcREQYx1dMiKWTChljjS1XwWQcKQ6ZEkLEkKOJr5BOUMBjSH8L/M1p2Gx6AtBu4OX8J4TCngpd074NSsIEQkT6N25/P72YHiOhK++no4gHMXuZiV5uszypiC66iQTEMsW6IBR6Y6Cd5cklGGaVTRRB2EPM9d0DjicN5Pxllkk6M0xEKLPEhQFCOkrDKI4jwPbg3APnDsZCnJto8LJYNgj5Swk/y8K3S8dLKo9QJuDu7KoOa6fmg60MFLwgz7L+zbPMyuqXOxMmk/orpnW8eaekj7EehaAeMTE4jdkbuJPXyMdXGsArY/YqosMU/qp/bAnP4qV04Y2fgPfOwjficdN2PjVK6bFsLM6MA8AzuBuFKbSPb1wq4+F++YIqpe3jlz0qq/wAaVrp3OC1dfoQNIU//kraqKwZyvh3KflH8pefd7uxk9Ul4YeZXKXouxcufk6D5+3Xo3KteZitzH/GtBa3rVeJIu8tSb+kffw5LzAGZ9iFujrdrUIJEh8zrUI6P3sbMIt0EJEP1PQTXrB0kJn3MVAGyNPx0w4YXJZYruXGVOVrjekgCCz1XloBvXlEFlssYmZQOlklv1PByi9fVj2jQMvp90xrj5P2BEK3qfDbwH1MDJ7+25y7gdEH/F+5suXXNWqUgLzMazdvkBcsXBa2oz95BrTifQue8eg3YzTToGeBv2HD6rm7nK09zsvLHNOeR8xlVmaL2iRD3I6Ek1Vh6T0Ywwdx9w/MJfqw5LKytFy+9dNXojL+EfVzQH9R5YO2UzEOXpycbvfAHK8wSEuRlgTvsvFC2G94v8vCtFMisnS9+sZWUL8dzbrzZxaLQYsLwk6hfb3XBaujV78yS7ap2Kc+P455grQ/OaFn7iC9DuwNaLeM1gqrKZAfaU6R1o1oTm7D9+J80r8Fq3Tcvt47eXFSXh1ET8vYhsbawbnbfo/s6OZoHJbqHyV5BH0e1wGv3D7iOiTvArkjEvJLV33K+iAWdqNx5UXNvueW/eI4jOfSoBxen2SKn59lOoZ8JaXkWV7ZXT5HwLpfYTbmIa1suwriG1LbhQnkq7gtIp5XyL+krY1ddHNDfYVSJD5mXII7zSLsqNRiYN7Aipl2QMzkQntArP4AK2GKRGGzyaEkXmYt8coXKB5e4ilDjfPNrCFRunE54oGbKSoK+UpZ9azkXVA/oglOx4B7MR4865SF4ak+ZH+O8VCpdadAM+RtkLZlGZP3mWRgdfP7xuuLIFKUd4FZGcBLiLuZGDz9ZzMPTy0EludKU0SXWR1LZtCAzsnbN43oCx3433w6TIMHE+ZBjLlWGFYACwJ68Ps+mCe9NopXsHyaCN6XjXcvn1JFgl0wxxf+GKuCsqUorLx6Qgbe+3gFoox2fAElpQVfqPetdOI43bsk5RfPBVVRTrPyP1ixXjEvKOPz+N+8wAGPyAhi7jc+TgwexniuKAB7tFa2ApsGiYW7dMz61c2S8uobKCFem6f5BW2fPGfvKaYR9EEaxeufiM10jInBvWCPkCrlgUAZB/YFcmYoW8k4L7S9Rd9jWaGkMoWVyuh9oBS3eZ4xjbJyp++tJJ+kvIGsErVJbKwsk1eyH15Ys0NMrO5euRbzgBWFemZDMKL7UKH36NSvhz9/E8aNK+K/z8fK9t6Is4KPdBf7x0B95cTsTSQW/Q6CxcyQqEM9IvGZeJk26K8YFCwhaVppHu2qFjG1YGXEckYYWwbiv34Vgu/RxOVbs7K6U6xfaOFO220P2A3A37Bh8EywdHeO4aklGE+DvoVYlL33lar0d8wMywS59H2Z8JaRUqxQEIYrW8KOlRjjdeC2Obc2tsdyLGm/drSYIhaeZprQ0w/+6T9BvIhOAyHD9rFh9ZETqVQPuCBXOhOeU7DIRfUFcmMF3qRj4Vzto2Cpi2kz5Q8C2T/O/V4i+52C1bnMAl1msQiUzGispOn4dFCWTiz8GYeha+VxKSJfJfEFmOw5bnuFfWJx5LheitolKXi8ApOn0eupLyeKn4J2F+rqo0yQiwXeQAEKPpC3VzQO0iBZmlZO9xlvVPv2iwVTX8huOxd3Aq1HTBX6u7CClvKuKHqp5d1PXpEsEdOXlwaEc4rPg0rlkXbxk4dIJwvCW8n7OM2g7jOkFa/g5fJF/py+j8NkUP5P6vVI7QuA/qJsl8oEJfOTT1eF7tMM7eM/R+2f9qEbN/9ItcJwwuhjeGoR0tVAyJxLBfmIyZRZMLIk/InI/5t+82akgvU3fY6Zhhc/Hvzx8mqswMSW2kDIiiZmP49As48GZZy+L8yk9Yrz85mdbBq0GVRDtM7405B8DE/1MTx1ITCJuBGYV7686At7FvZh2vZxP6dxC7+T8H7f+KsPpOlR/B1YK7UV6TZn2TpjsBSxIHhTsPD5Yy1q21KlooTL+tbkNJ4I88jTmntrbOqO5E8eflmTQF548vqUTH6ZBSvKJ7Do+u3hpe+ep5mri758SAOhQhSPpTLpLBZm4vFYFsXCdo1lhyyeDtG9e9oSjIUzhsiE4DaClTxa99vAVxoCZZd87ihXuE/P0Yqy7cALWT3aCUBlY7pUQC2bOwl5YTwH+gar0lUCf/718onLW7Y6lz33qDVMDB4BPYi0s3y8RuXxy+0rCWX18mm8MKe06YiUf8arcP63QpxYoI/b2kK6lSjswZmpz/2LXv3fgfHTf/YqE9CCJ9ekeceKkHveWSxERxgI0o3lq6Ae3r9SltZ2oJSkm6ZJPm+4PjiGtJuJ1d3XpEKAPswuBZYGQm1B44QCkfmfgs4uGbABzAunUFjJ3kcDIWUgKQHEQk4Qz/J0y9IAgsEfctRyxpC9KlFM/L+BNSAduF4W4fLbEdB6ZDcwMfjmGbDhtnOsnZoHfALj58A1mIXHp5VapyCx1oZhKKE5X5nIFAK/7T1GEVtVjDCcJ2Mkie4Cbua0XEg2I5YDC4uKbvLXF5Z8JcJv6wJplk3sRnBCy4yWTs2tNXZ4CsTvuqxLJt8yHhO7QCoK6yv97kX+t6TqWSKhcrazl+r0DHcs4UBer2hiDGjBjyivqiXjK2DlyunI529ZUlGbyg6DutwsbAOlgn2ZcSbj2RH/9r9nyXqCmC8sZeGivs35/1Gsy3skThYcf38a9H7BwJH1lz9ZkD+XrjJQ/JaRtqKwXkcWhMk4nEf3fpwwg+RTPLYi+aBr2Faw+0H5qqbPu9PsfONdgYb9evmCckk9YrpSnIjyucf/nUuj7auSxYvHqZ+eV69MaPb6rpCO3zce3QRzof8cp5f2fdzH3ve0sO6xxwsObSBU+P12t7AtCv/azHNlimAporq5eMfAqhOSTgL6kK4CFoYTqbLHcsE6eZ25OUSdmgptZcysLB2IiMBLL+BjPqONCCgbEH4ZPAYZ82K8tAtlajOw/LCZFSuqW7sVF38ASfuAO4BbmFi9k7MJw1OLgAcx+wlKj79MGZjlbeTTQNwOmcCSvouEvuy3wvfpu0K7mpefl7/fH46B7kZ8gYnBd87A42qXY8wv0JS/RyetIxDQp1/3mKaD9o6EE4vCpApv3sY7T1lty+FO1wjqSUgvBQucLxQQ0h/k9Y5XpSwK6/OZkF9MI821kLkMY0kpPftjqtSCjCfLeAJLHCduk/Rdlk6hnQ8xMdjlCoN+uzDpl6UdjGdfyIr+KmqHgrJA+byU0rTYz9yf+uXBtmP2WNjOlMxd/jilOOb9vvTHRBAWCvRd6He/DB6vLaMFX6DMyhaNqRPFxOpp0ARm38nLWlKGjEf54znKP6APr10hihPTfNw2Ka+MaDXrIy9coQ28/pEXNkg7DefPa3G9SuqZ8UQV8y/QABToJG6ngN4ANI1Z93xv7Stg+p2AhjLX8oTGCvQX0aLP54IypumlaZe0SYFvAXAM05nkTXDWop90/4Iv6EIbwdfy3/6O+uyzN/nEne4zK7z0Yg3SnxAVJp8NvFILVZR+YJXxBNpSK4OfbxomysOvQ5lmHjNkonTcnyPAOO4UpLOLgJ3V8zLgacSleZ09OvGZYmztQ+QWKXIGlV3yl74UBSEgQ5tJKSPFiNZ8KdK0H+lWJgY39VD7ucDvth0jhTGZfopo1ozc7ctvC/L4gcAQjQGfjt0xkHN8B4PNB1YGfCEpVk5rfplL6CVcGcjf+eTQjn9AyMPc457TcAjBMmQLMyHCZ0cFATnmN4RtVQinMJ2Al0VzQNDm6uXiugvCtvd4e1YGrwjZc1TGQr38MpbQSvDs07sOIA70UI+Tg4nV0wxPrcfsDzE+F/ZNGqiE/7Ub9/Gc5rdd+qLQPh7f9tPxomQ8u9D2Hr/O6DKiswLP7hITg8cYnrofWIb0Rcz6CjQc04BPC0TlCerfhmbK2iiuS3zMaln4QnrenJhGnjF+9HcmPhX0efBQHj+jlzDJ0v5yYff3NFbEQsxWFPlym3xL+6ms7AlS2p2tH8J6HUWn4QLSDyH6kAbApjPmA7F2RkE5yHiM/zvS/uJJLRMcU7TJK/4elEOhFumHKWMCYWTvu/+tJFzwPvod1CkKVirkAnAceB3jM2C3n33KwitLgb8AXsG4NHvv97vfJ5lQkEwwvgDi04kvmAGFjbmx5SxgMlF+frgsTPZ9H+JmjKleqj9HOL9Qb39iD9rZG1/x5J9O6PGYTOMWlDFPgPMteu6s+jkWlDUfaXnQBmVCUIpM54noJKWzWCDz65mFtTxOSkuhcLDzJFWuGywFLQpYjz8W2gkbPp/NLHp+OAvTSRMPxpn3KaMFgfF/dFWD4ak+sIGCMOwrtSG95cJqoa4Whs3aw+9H7136yRcgXR0O4u4WOX2YGDwKugvxXmjoSP+lfVg2l/lj1xPegzAeLftWWD+MP1cVDCv+72j8+OUJXEtL57ze4VZ/7waeRToa1D8wmUdlissdKIvk9BGPhUIYL02fztK+aSuzELarRfFimac0rwyHgQ8KYYoZRvwh7ZuSPHwhvlCfOH8dxNSLcr0QKb8/JmjrNu3Wts38OkZtmNWt5HehXdnJxBlxbPpZjz5gNeIB0FYkd3TgTAPIPRQFujRe+jeY9D2hMYmeM0j/nZ9GkHDJc8yoAo7m5V82wP28I8EpnqTjuL4ylE1+JW3k0jmG8S5wG2Zrkb3KxOrTf4Rnpxiemsfw1LWgSeB+YGlhknY/vIkr/Q25QhAJAO0YqX96R4H+Ynorob9yHMC4BXiZDWfypnIbCMaPLyDFim5QbZ/ePHo0L52CEkUYJxNSgq/7cCticwm3wuArQ4VJxqcXTxjMhnHyzo9fsNiS/015lb/6FTKB07FJdhnupue8OKU8OZpgUz6b1jW4QT5JKObLmcU24Fthmo6Pdnuk6lLQwuI8kZRRJf2Sfi8Iy8r7M1WGfQtu8C4tNx4NZP2+94w4snrD4D7gFhRtwPYPFfH7OjR+UJyoosc0nUwP8fiKn45F7wKLuEc/fjuW3aAcC3cnAxODhzDuwPguSvc0tBujRPQezccBnfk8o0QhiuuWGmGyPCP6jOsby0B+vNjyn7WdReH5ALNbwe5Hmg75nZevPzb8fvP/tltBMI/WVFYvDtCL+55pEdiyQE7IyqPonVeeLIhX/ixYWr9UnvDjxbQY96tAXfOuCm3Qz8TgduB/ZXjqh8C1mN2MdAVoIemxq3hwoDvUAAAgAElEQVQdmg3aMsbho2TQZmGjMPF334pC3PmQ+y9GzDRjgH5aFAlopvLFwlVB2ErL0CYt9+4YzjL5JOKFs3BFoQ/TUszuQ/ozSE46KbNOAsEER9Q3sZBj8Xvy9gSPuXvJBwIk7fuoYEnTAdBtiJfOwD0LOYan5gHnlSqnwepBRGdllkPfSmlt0griKAqb0fVe0FwLVyswWxCOaY8PlCkSvqKa0VEkIMTvsrDB7EPAT/Kwc38MpzEA9JWWp0wBAsIxmKWT82w/TkxTfpukeaVpunfTqOuVluVg8wOBPX0so+t4LPsCb/a+JGxZOjE/ARIh+sw56GBicAvDU7eAPQ1aVaxDWb18YSrit2kfpvPdTG0btkk5LRTozBMwQ6NYOPbKBNResWHwEMNT92P2fyI9jFhUoI943AdjJpqrCzwBr639dIjqbOXf27Wtz5+ytKJyZGHTMgPODXQKdDfS+7jjSfdgrCzmTUneEPR/nPdMYTKlKXs+wIYe7mCARVhylHIZfQT5xWVI24tieYDCMdmz0Xj+bWcP9ahQgv7syW1oGwfGGZ66CDEEtga4NJ+48TpW5D6NfpIpE/Im40DT9oO2maTTZz9KbB1JP2bMzQ/sUVWs1BSEhZIJs6C1+mVLAgZzdZbXccw2Iz0NevGMsGZ1i+GpBcDnEfcmgotDO6HVfYx+RwJCrPQV4ntpmN933oTmxykTGrI0PIZndisbVr/QadVPG8zOR+oPaTj76NNX/s63NmbNM4OgEE/kpROGx7SxvUzM+R0MA0Ed4okxRbAaEAzc4uQviu1RxktSnubHwY4Dc3+6huy38zEDmeCcTaJ+XZI4MwmGMxl44nRifuwsdgfAunXlWQaaH5CzLwSkecf9m/HYdCxDaNVuUwefPwfCVFp9gU7bHQzlmBjcyNqptcieRlw+ozLkI6ir5U0St20YyWvb8HWhH2JFAi+PUr4S9MNxpJO3kjsxeJS1U98H3sF4Cuni4HtAxzEv8OfqqN4xn83Cqhim3ZwVzztl/TBjWYOwWzEeRnqRieQupuGpPcA2pJWzlyOtny+T+fNDXL6o/EGZBNbjKYJiJWh+adlm4j+l8lVZ+/t5zcDPwzD/2FNdKhTQV/p2YnAb8E1Mf4D0e8BfIbZA4k+Y8YiIAZn3EC9dxhbPlAnNOImVDDp/Im0n5BPlWxI9FyTi9yVMNUvKfy//906M7wN/iPQx4NmzTlkYnupneGoIs78DvgcMAK6OER8OhHrz+tUs/Jcyr0D5SzuOMB7kk4+idP3MYytqXCb3dx+mmxCtrtrgtEErMfoLp3n4QmzaHgbZZtj0O4R067dR9hwTOuVh0raf6yNVXTlWBUofeOUhmBOT8BRoIx6jsRLlkV80hkNe4tI+gjTHG78BdFHhVSbQeXVK37s4Xl3Kxks0XuNxm9c5f5crlXtBXVobbSWwIGSlafm9MsTlzMpQVkcvrD8mYqgt/ZyeOxhmgtgKfBz0DEpuE/f7I1YCS/uKYphsLMRhvLx9C3zwMVAAkvy8ibOMzmAv2HcRN3Cy94lsGJxmYnAz8D8Df4V5m3FLaThFCZ/MaCZgBHncgCb9tNu989Ir8B+8dxFvdvQ/jbEDszsw+yOcN4Lva38Y+A9BukH68ZjB9VkgwkQKU+mY85PLvvfG/7Mb6ovFDPOMyqGZ6DSi6/g5g8rSP4LN9eEdH170t/3iLhE7AmxleOpdYAnYKsS1mH0M6QLcSQaJ0uEx+ux32fsUXrhsMkxfxYMiZp5xUm20VN9iOJPltcyKE+fvDzxnRdkLvA38DNiIO03l7NtY41YUrsAd83od0sJCe/jaPuSKlvm/SwavHy1l2hkzSxPw+x0KF+kEfUrxWyAQArAbcTvGy2fP3Ra2EqUKg4Xt6R8NXLBKGQUlA7y+K5Om/EmiHc0DMPd+n9I/B4r8oN0KgS/Q+Ba0WEEtjPE0TswvIKLbo8z1+d3DU/2QXF6XlaOEP5V1XVtLdFmYeHxTbPM8//2YuhQCtRLoD3hvIR/lJFpSrHK+kgSK798oBPH61aV5BDsNq0WzwblKHmB46k7QG8DdSJeQng6UkbeiceH9zdqs5J3Po/2/PjLe6c2vpdN1wGfBud5uB3sR1ATtOKVz4IbV+xieegDxC+Au4HrEgqBcsREw5ZWFsdCmHXy5JY1bmAsjvpEJ5HGabcffMaT3gCbwHGh3qcvsxCCsfWVjuYXdVxKKUQt1jU958p/LaEM98n/xW5nMFWSWttUMZW5flpJ3MS8nmiOyz4c5nSejfcjQXmHw4ZSH/cm/LQxPfQfjAsTFwMcwriDbqKd5LlLaif5EQRvhvKzDY+YVE1A0WcTMNBM+PQKKLZJxnvHvYElWh8EOgN5BTAJbkd53p16chXB+8xcBdwKfBhYXBvVMCCaklBl5jLlgJfO4eMSXA4E4/e0Lf7HAEQjOQZ/uRqqBbWHDWaIsDE+BExBDl6RYjg0QjY2gDYnGTPzOS6JsPOTJz63CMDw1D2N5wbZQNvkEY1ZhXVLBp6B8+g2q8rYNeIYAjp6G87uXQyIExYKO+R1OsT+zZ38SpaSLA8LJ0y60c/pT+1GXG+CNfx5O9BbSZfac1tOf6H0+4PH5rIxeOQvChCL6T9/ZbtJDPc5ETAweAZ5jeOpNYATpFuB85HsB+EaE5FU8x7V75xtV4tuF/XBxXj4dpWNC2ofZW0jPA5uR9s7ZHrGJwWPAZoan3gYGgVuAqwjmLz9CPKdFYyN9KAi4M82BAV2Rr/xF6YdpTAMHwd7BWIf0OhODs1+EKN7DuUWuCNL0L0EtK2sw7tuVqV0dbRrr+e6ZC0J5ikieCPhrUowSOaFUOfbTIPpWMsE5fnEQo8sLJyu0Q2cKQwzH3LYm/55leGo+6GLgIrDfx3QFsotB/cj6yqUfC/4Er4O5Pev4cJAEk0/M3PxJyPL0vCClioiZn/c04hiwBbQJ7D+C3u5okJ+pcMJpH8b5wL1gnwUtCicTim0fWGyiNvYF03hpuzDBW/guXjGKhYOi9BgykrBPtyNuTpauzyb0A78N5O2XTUBpfSOh0VfS0vCBVZ1Q0Mz6MR4Lfmf7E6mAOb4R12wJ0tJQ4SR8DtrH+x0rTBnSdzGv8eMZgWuGv8la7GPD4Fxf9LUcbF7pBWaBUGyEbeXxOhcp/xvctJrEb8c7C/kJYGfXlmMxMGN/FIwLXhEz44BXL/+SwYLLEeXpZHUApD3M/alf3WNicBfwbYan1gN1jBuASxB9Rf6IxzPb8IOyd36Xl/GE7Hc2LqaT9nsZeAPYxIbVp3e1xikOLzE89TLoCrAa0jCwDOjL56eytsCbhxIaD1Zw28gmsbKezUUWhg1pdxrjHaSfg73MxOp3uquojgBbgKE8Sa8D074PxkEczg+T8okyfpnWR/tQD0dqD08txGxZ4X2BDVjJO7w5yx/HAbHmZcz6N/pu0XfjEO7CxgonAb0pDDGclf3t5F8DgOFX5gMXgy4HfhfjQmAAt4FnYYGhB8+RIBMsMxUk/lCA8C0JBbeGOKr8OPsRO0A7EP/g6qKtZ91ehHZwF69dA9yOuB6YX1D2/XY2/306wOO+sjxcYVXCZ2JtBL0sXNI3ZStMARQUIQtnvJkoC2fOKSidow/nLrEloO3gQrv8dU7zeIJg2W9fuCTvr6wNvTwKbWpzL1xJ84CdoGNFIYbyycSfMAKFyReos5dhgr6ykJchpEGzjSexhp1iIWgrsnk5f4KSTorGla/4pd+94IHRBXIhJ0knWG2K25l/3301bC9oi0suTturQ0aTfpiIMcWrzWXuZbHLalbH7P2bwJm7whDDGab+muGp7wCXAp8BrkFcilvJJ2Ga0bxJ9M4bH2XzZEZb5nfNIcR2jPfA/h7YlOxrPPPgFNnNwGbWTt2LuA74ONKVGBdh1l86l5S7CkXvyjKM+agX0H06jtkOnCfCfwD9kg2DvfvQTwweZXjqZ8By5J1a6bsY+Twsm28VjYdIGYqrFFZ2O73tQ1mA2IHpaM5CfDmtLIpPi5E8kc1bfjIerWfGHgvDEjy/lRi4K5wEnByFoQzuvgGnRAy/0oc7MWM+MB+z85AGEkv3P8Mtty1O/i0AFuHOZF8UDIAyi1QZQWZCAyCmgUNgR5AOYXYA6RBume+/4o4v24Y7r/8I4shZuRdhJqx95XzgKeAKzBblblZpAK9NY6Uh/RGcce0pC+k7XxAJJnu8/vL6Td5vX0AsCAWR1aAgb1gLcSecjs2pJwHGMbC7kbyxGAvxZQzXD2Ml3yl5FzVe6TcDU7p/aS6xG+OmcOzGwq8vFEdCUkGeLmmM0ugRPYdC1bETrVQP2Az2yVyI89vCnxC9GIEw6CkAgZJY0k6ZEUUF0oiE8F4E7VvaljHOxxcE4jHuXobhgj6M4kePXp7HEqv02QXnDvwOw1NbccdbLwVdjNm/RLoEZ1FfAlqCmzf7wwby6CiFWzk/hHEQ6QBwALEL9J+BbZhtRzqCOHxWXXi1YfAI8CJrp36JWIRYgXEV8C+B83HufstwcgYhI4jhfSvf/3AEd1fNfrC9SB8A/xviXdBe4PBJpLcJsJeKvK5E2Y75RNnKQlaNYJLH44G98v/9oFsCnjrTWA6E/FgJ8+tSVid54SOeEBgMOHvo9yxAu9Eyt1g71YdYhGOI88AW4PZCLMQpNeeRnkuOlgL/QxY3oCX776A9OH9BMHYCx3DLa8dwg+AQJ3cwn/kYfmUA9F+SdnXv2m30Dgx9vsDifSxV3AgZUKzxW8QQYpeTMjcUn5/FFjM4BnoWuJuJwWpTU4UKFc4tuA3yizFbhLsZfAHGfOA8VHIConEU2W6M40iHMQ4jOwQ69KGeD4en+jBbiLQESP+txDgP+CeI89vOhwDGQbADwH8D9iDtccoWByH592FuvwoVEpwZCkOFU4/hqTfArnE/UqUheWy38TvwjY7ipM/ZN99SqzzdwFIaWxFSBSQPFiwvZr9jayuHgH8LPHzWbjqvUKFChQoVKlQ4S1B+D0OFDyHs+Wx5rrDJMH2OVgxS4T7bY+AnF7kw+WuB8r8TKhTpt3TzbuCC4LlP+D7XoSvTfuA2jAcqZaFChQoVKlSoUOHUo1IYzhnoVdwFTKF7T+z/6/+M3TYztyTvXSr8++5K2TGoypUC8+IWNqMn8WO3JApxtgJ/DIyzYfDsODa1QoUKFSpUqFDhLEelMJw72IX0Zvgq9kjzNIVAEUjgr0CEm+gonjYTJxutLvhpZosIlr/Lwgmk48BLYH8C9layEbBChQoVKlSoUKHCHKDaw3AuYXhqGPgJMK/0mL34b3ByTHRSQRwfZv5dln7pRjN/LwQkJ1p9H3i02txcoUKFChUqVKgw9zh1x6pWOBPxFvAB2IXh6UcezHuIz2wvrAQkQYNLgeITlEpOViqedx+WIT9ybS9wF8YLbPiQHXVboUKFChUqVKhwlqBaYTjXsHbqB4gvt73Ip+x3oDwQvU8ey5SA0nfQluzyjdLToNfBbmVi9Qe9VrVChQoVKlSoUKHCiaPaw3CuQfY8cDw8GpV8v4J/f0K6YZnodxYneR+vHAQrBp57UawoBKsZmRvTQdA3gTWgSlmoUKFChQoVKlQ4zahcks45aBvGu8Bl/kWghRsX0+dsA3PJfoPYRQkidyQvSf92xuBD5ho1jeld4D7gteoinAoVKlSoUKFChTMDlcJw7uEA2KtIl7V3RSpRGoKNyETfwuBBetkxrrESEcQ9CnoO8RATgztPSi0rVKhQoUKFChUqnBRUexjORQxPXQD87/n+A/9kopL7D8xfaUiDtrk3oWw1ovRUpCyxXRj3smHwuZNcywoVKlSoUKFChQonAdUehnMRxk5gS64uRncqpBe6xcpCfHEblBylWpJftpIQfDwC+i7wB4jxXqtSoUKFChUqVKhQ4dSickk6FyGOAU3gcrD+bA9DphTEm5PTI1P9W6KjvQ3BsapZxOhCNwCmgXcxHgSm2DB49ORWrkKFChUqVKhQocLJRLXCcC5iYhCw14BDpd/9LQfpSgMkrkvJN6WrEH5EC+Oa8ncu3H7gO8AnES9WykKFChUqVKhQocKZj2oPw7mM4alfA9eW37gM7W928/YhZEerzhLPeB3xALCZicHpEy16hQoVKlSoUKFChblB5ZJ0buN5jGuQ2tBBiRKRri6kywYzqpw2DbwPuh/RYqK6rblChQoVKlSoUOFsQ6UwnNOwjckpRednJx/hrRiY55cUKAbRCUh+GMvcknYj/Qh4monB3aewEhUqVKhQoUKFChVOISqF4ZyGdiLexuz8/L4EyF2KUkXBv2BNocdRcEqSQNoPvIR4AthWrSpUmA2N5mQ/aL5h6eLVkXptTeW2VqHCHKPRbM23RC6QcRxxtF4bOlV59QHzyfdSHq3Xhqr5okKFMxTVHoZzHWtf+TTSJEZfKTVkikCb+Pmxq0cQGzF7BLSJDYOnsNCnBo3x1lLgasS8pNZvg71fr6053UWbFY3xyXkmhtxJVnwwWht664TSa7Y+AgyYGZKOAL+s14ZOihCfCAqLzOwy0L+SuABYDPQlyuh+4D9jbEa8AxzpNu+xZmuR4HoAM9s2OrLm3VnKhMFimV3ruegdBDbWa0OnfHN+Y7y1wuDqRB9/a7Q29EHHcZutVcDlyVDcVK8N7ekk3lizNSC4Augz73Z2JUaAsncRNtZrQ3s7KF8/8FnP0PAusK0TQXRsvLVAsutA84Hd9drQm7NGAsaarfmCa4GFQGHrVX7DfRTR2I1sB+jAbMJro9m6CLgkSfKQsNfrtTUd0cpYc7JP6DJgVfLqINhr9dqaORWYE2V9GXAV2O8bDMi0IDEUHQXtNePvJTYCu8CO9coPG81Jkn68ALgG+J+A5Wb0J+R1ENgB/B2whR7GvcunNQ+4Glia0PAuiS3dGiEa461FJq5WSkOwvV4b2tphGeab2aflG9SiMZQbSLL305jtQXoXONxj3QEuBS5MXh01eH20NlR+wEnn6X4ap9yB2Q6krZ2Ur9FsLcT19UKMXYgt7eK5ecGuBK1M8tkH2lgf6awdGuOtfrArkVYkrz4A3j5Z81aFaoWhgvQOsB1xUfA+OzLVew5m1+zCtuPAL5MVhU1sWH3WDk7D7gH9G8+t6jWktbiJ7IyGofnCnjcZgh8BPSsMjWZrAPiFYUtzQdE+CfzyRMvZaLYWAV8FbpK0yjw3uEA3dROs2wNj/KAxPvnD+khnwliS2AqD5yUh6Zs4IXWmCNcKPQK6zGVtW0B3z4WykOR/KfC8mRB2M26y6xTXmPGUZH3AaqAjhUHwEbAx0LxMScASL8N0DCixB1jybP6F8B8HZlUYgHnA82C4+rEHMdoYb71WH5lZaZBsscGTmK2U1AI6UhgEi8AeNePC/FLKRPFJr5cp1RwM0H4zJhrN1j312tDhGbLZZ9htwNVCx8z4t41m695OrORC1wM/BpZiHDEYTeh9zjDWnLwYdCcwDLbI0lPt0n5SqjTqS2Ycl5jCeLzRbG3sVghrjE/OA30C7A4zXRNe35Pm5/rBzP5S0vvAukaz9Uy9NrS/q4oZC4AHEVdKwswOgL4AvNxpEmNOyb1f2NdAfUm6fwV0pDAACyU9n/2SIp3BUMLsXBPkq/rC9mA80Wi2vluvDR3ptMxJuiuAdTkfY1pwO/DD7tIp4AfAcsOQdNjMao1ma6oDOlgO9gRwPtJzwNvAsTZhp0HHgcfMWIF0VHD3WHPy+6OdKHuyL5rpUcwWInbI+Ex9pFqpPpmojlWtsBvjNcDbj0DRGheclwqgw6AXgT8EasDGs/n0o8b45BVCNzqGriMJM/8o8LnTXLTOkPaRgfl3X3SJxBr8gGFLQMexjLk/3Gi2lvWe7iRjzdalOOvhQ5itAo5JehusgfGAxH2C+4AG0psGR8xZIx9DeqPRbF3SaX4K3OtmKldrWaPZesKMSYzLEPsQdwEfB+tIOD0pSARZCazcmj9L/NRtsPO4Zua3zk4z24qxVbKtQluFtoJtBfcbsdXSv8ZWpJmE6ZIypsoHKzB+hvh0sto0QyGFULsVjvbRXIZpmx5y5ddWnMC3FWyrwVaMreDeG7bd0FFgqcSXDfvx2Pjk/Bny2C/TWjn+2S/pzw0ec1b7cjSarb7GeGsQ+CnGUuAA4maJ1ugcWUIb463+RrN1o0y/BvsisAi0X7JXEd9Huk+y+wy+DUwItkn0AZ9A+gXwRKPZWtJ5fpPLDK0Dngdd4w7DsG2YjUt8U9J9Eg+YaT1mWyQdNbfy8jDwm0azdVU39TOM7AhwQGIJ2FONZuvqTtOQ2V8AXwX1OV3Tv1+om7IA7jjxrRIJzdlWkHtOaBGxFfG+4BhoBeJhzB5O+HEX0O2gSwHk7lvqA+5uNFsXzhyvo3o4JccpQz8BhmYfv3lMm4UXJyuOW8Bqkr0vmI/xmODLyapRWzSarT8HPSKxUNI2oU8ibeugahW6QLXCcK5jYnCatVMbMPsKUn9+Y3MqvZjvdgSy/aBNwPeAt5gY7E5oOAPhmLI9ACwFDkvcA9wHWgHc3mi2Xq3Xht4/vaWcGfIeNAtjngVXASOgPsGriG1m9jVJF2Pc2Gi2vtOTn7HpYokNOEHguEmvC3sC9BZov7/snExCizEulOxWE58V+gjYDxrN1g312tDOWbNLrcllbidkfX4NZo+YdKncStlrwH2Ct+d8D4Vz/UoM+933n7LDCjqPq2SZIBne35L0kpdgbpEPVn7IlBuwA53kY6k1FTBjp7B5SCswnkL0jzVbL462oSlLMlWXrZJtsXJPW8H+VKbprJl8BSSrn/oRFwOPmNkloE9LfATYWJbHqBNw9o01WzdjPAVcB/YVg+ONZuvhem0oaJ/E5eJ6pHVgiwztF9xl2AsdWVBPAhrNVh9mddBjiMWgQxjPmXhSaJeww76rWKPZmmdmS4UuM7MHJV1i8CXBAuDm2fIba04uAq0TDIL1gbYJPQxsMrFvtDaUWZtd2VgCXCy4B+xa4BLQTxvjrT9GvNeJG1vuUgeSW20z5+byVKPZWmOwbbRNOo3xVh/i88DXgX6wtw0uV7YU0Dlylz69DNyTe/Ym4zwbstmq1zxkF2M8jbQCMYIxRoerGo1m63LDbhTqw2w7bqXhYcQAcGej2bq9V/ccz/yyR3DcjPMQTwr6xpqtF9oqu757YwdKf702RKPZ2gzcgtnThla5lV8jWW0KVicSherPcMrlQlxb3VyvDe3opZ4VZkalMFQAeBdpG2aXFDc+k7qG7Ed6HXgC2MrEh+PStUazBcYnkK5L6vwqsB7ox3gMcSHG7Y1m6+tnui9kdsl2LxZqoNFsLcG4DzFfZgdBjwHvSXITt7gNmGJW955CuguBB3DKwrQZz0jcV6+tKRU4k3Y+AGxuNFtvC/4e+C3Qr8zoSEgVbpIqs0w3mq3lwB2YvoJYjLEX8SRmP6yPlJfplCOXcLteIUpdGpS4PXQVURm5HOpkP0IvkCnZWgPINmP8GLN1SOdh9qQkxpqTrTKhOROwPKWjEyTOLWkKx5D2djh+dzfGWyskrcMJjFfQRmFIMVob2tVoTt4GPGWm6yT+NcaixKXpADhh2IzrBU8hlmE6CHYnaGJ0DvctmNmApEeAxWZ2UOJe0DPtFLZEQNsz1mztQXobuEvwfwObZ8srUU6+ghjErB9pCzBaHykX5pL+2Q9sbDRbW0GPAjeCnYf0OPAnQEcuOolbIYZ2CT2B2aOSLgTWCdZQ4rY31pzsAz4KPI6xCNlG0EOC3wBdrTAkrjtpWY6MjnQ2thrjrV2I9QZ/IWwp0io6UBgazVY/xr1CKww7AnpY4kXMPgO6EhjB+Emj2drcyyb2lJfK2Im4R6Lp3IZ4AuhvNFsTZYYkMzdula0wdKQ0TDearU0mbhaMYTaA9C0MGs3W36b5NMYn+w3qgkfBFoLeNbNbRkfWvNN1BSt0hEphqACyw5heQnIuH9mKgoG0FydA/5SJwfdOZzFPCcwWI91vWD9or+CRem3oSGO8tR5xE24D2Y3ATxrN1jun6sSQkwJ1xpDLkGyW+5TBR3GT3QSwCThmbrL9iWEDoLsazdYt3a0y2KWgwUS03Sp0f2x9bYdEYPlut/VxdQjfJHW8yozHJK5IrOSbJd2F8fZp93e1XNBIytpRHCCT+rvSFcvbx0u7aBXsif6Frw9Nm/SaoIbxC9ByM3sKWDjWbK0vt/xaWVFmzjKJYN7KTSdI2uCoyxXkNunOinptzc5Gc/ImyZpmXCXpz8zoazRbd+CE3OsETxssFxxD3IKpNZdGiLFmC5ndhFtJRdIzwN92sqk06Ze9wD2d5mfGQkl3AP0m7cW4Y7SNshCjXhs62Bhv3Q12PtJHMbvW4HIcT5oViWtpyhJfTmhgncFHJJ5IeFi2Ny059OBSYB3GEsQ2TLeabDpTW7vQxr0VtWRvRjew/zfZctMPNqMrDkBjvIXBNRKfSlYFNwET9drQscZ46yGgaWaLEQ9h+jjQtYKqfCxN12tDbzaarRskngeWY7bO0LxGc7IRr8zmq5huf0anyJQG+KSkn5mxSvCIwXSj2XL7MYw68DjOpW4HZqOjI2s63WNSoQdUexgqwMTqaeCnYG65TzoGtgl0E9jvMDF474dRWUiWn7+KcZlbcrYf1JPTheojQ4fMuA/jMO4En0c508dLYpnu0SHpfLD7JPow9prxUL02dKxeG0LiWcxed3YihjDr6ggsMz6COyUDM35cH+lyE2MPMN+FxZLVE3gU4w2JK4zUh197gO2dnsRxymCpwC8M7gJ+BfYr9zf8Z5a+t18hfoXZXZbRZldm0GxFwox7s7Qt+Sv9Cgvy7dgHvDQzXL+M1oao14a2ID6J2Im0RNLTmH2l4LNtrk697WEgdfXoyFXL+Unb1Th3lNQra1ZLeop6bc0e0B8nAlsfztAwZtgwZk3EckkHMbsBeGF0jmlOsAjpysRV5hDYj0+lwizM5kMAAA76SURBVCLsImCFc0lj0+jI0NvdxK+PDB1EejpJDEkf76EQKSaAO+SE5c+CPZ6sfKa4SPA8cB6wG1iTroRkHng9rNx2E2Ws2Vpg4qOgW91+H+1PNn/PkglLBI8B/Yh9Zvag57rzGvCCJIQ+KmykMT7LvoMSWKaAu9/12tBG3ErNTqH5kj1tpi+V77lwe5e61ZvqtSFGa0PvGayW2GpioeBJ4CuGfS1Z3ViEO1lrdb1SFk45qhWGCg5iB/ASxj7E8xjvsmHwhI5iO+MhLjPTrQlTfy+xuOWfxWvAi2b2edA1guGxZmu8nf/r6URugbWuNYbGeKvP4OtC54MdR/qWgiV7gewBnAVuCejBRrP1eqcneEj6H1PLubo7/ecEYP6+jstxAvBlwDSwUdCHdDUwZMbRRrN1V9ensZxMJIVNjlq8GHFxwQnHkt0A0YkruYd/l0K1ty9B4hKwS/JjINMwaSmMxE2nJ6Sn7oT1YQviJsy+h3SRpEcBxsZbz4yO5L7KqVtDN9UL9jCIqwz9Y2O8NZ19NK/+LhNwQv5i594AZnpJYks39azXhg6NjU/eIGmdxLXAkND1hi2Qc7e506B1mnjIfLDFCZ/Y5dyiTh0MnefsygLjH3pM5n1n2QaM5Z3lm/ynfAQlFuvnwH4L9JeGPofZgUazdS9uxWUdsMrM9iKNCrYXUu3WVTBzidTnG83JwYzg0qSy1YdsBawfs0VIi4RNg37JLO6fjWarL3HLuSThCT8SyhSz+sjQ8Uaz9ZgZ1yLOk3QvZpuAXd3UxT9FzcMWsLXAU6DLJHsU1J+4DeV7DVJlI33uEqO1ofcbzdaojKcNu0LSozL1GTZf7gjaL4DN0bxybuPMtphWmDtMDE5jugVxJxODb7Jh9YdaWUhOXbhDYiVOiHyQ6IjIem3omJk9LmmP27DH3YIVJcmdQVD3hjDxEYxhoA/0ruBHvuXRuaFoM8YLwLSJS4AbZz0hI4Xx3zzRt6NJ/0QR+fNfZ+JyYD/iXtypXl8weNnM+iRGgHVj462BuShbKcywTIrVy6Bvy51Sk/0z71ni22ZKftsUpEdyduE2YWSSi8FLoG9jlqTvnoW+jfFt9y0WorqtogV3OyRHqm6S9AXgHcMWAN+S+GJjPDkVRZCaJ2c7ZaVNrpgxX9h5hg0kG0AHDBvAbMDMBgwbMBjAWZfnG9oN+pHEbZh1fajD6Mia3ZjdathruDsuFuAEtDvAJkZPn+vbMYxDzqagJSYWzh7lBCD2u/Y3gN/q2M0uxPJ0LJs664vEG8mp0R7JuCOS9SjQEPQJfRnja2BPA1cYHBS6Z7Q29Hroeme92GE8hd4WghI6czQobEBiADRAQo9mtgKpz8w+MPgmcE8HxzpfJLjTKSe2DbOn6yMFd9EdEk/KbNqMi5Bu6f70JV8BcqjXhqYx3kb6AsY2QwuBh8C+1mi2clc+QbrBrtuVQi+vdxG3gt4BFhg2H6dM3VyvDb17NtyV9GFAtcJQIceGwTP+voGTBYPrMD4tZ+aZBj4DfHIsmdSUWyD7DKYTgfcy4M8a45PfnAt/90Qgn5f6jjLDpUmOJ6d++50z5WQz5oMkfs04nvC9MXfJUmoQSzNZkZju+jHuNfESbvl+Rhj2Dui4sH4zPt4Yn3yuqzsVekSupNhxoc1m3CPxVqoMNZqtmww2gF0FfEJiYaPZ+lOMfbPdD3AqSpvvu7DJem3NjzqN2Wi2vmjOR55u+j7fmCkEz9drQ+PdlbkLqPAAZBtd32k0WzcI/Qy40OBbgqWNZuubrqDOQtmVS4OyPQhIbAM96qy2kFJ0Stsy/SvEjWb0SdopuAnaXzDVCeoja3Y2mq37wa5LhKTngInTfIP5YaQPcBdprcDsykazteNU7ctKrPSHEQsNu1LupKJZ+UWKhP/9iUtMCP5j57mnvR+iXhs63Gi27gaWIj5hZg/J6EccFTyCeLY0NXWz5T6LhLmJ5HVkY9mhgylHVV7GhEamgX1yx4HumY3+kva5w7CBxJWxX+KBeA5LclvgCetfBH6OuxOhs6qAtxCSoz6yhkZzchtSTbDBzC6U9CDwT8aakw+nrkyF1cUeUK8NbR0bbz1u2E8AJJ6s17pzc6twYqgUhgrnHBrjrflmPIhsUcLG+g37XCYeJ5pCJiybZavRQrfhLjCbC3/JAbBHJC0z7E2hB2i3YU0s6FZgTPApwbUmS5fyL3HuKWn9U4eXdHk/bSVbKXe+993xUXeFornLAd8zuFRoCPHvxpqtZzs5d36s2UJwKWbLEBvrtTUz5hVmnIkNE8CtoyPhJVz12tC+RrO11oyfSlxr2EcFk4jP4NxH5g7KrZi9TKzhJWSdRkp60nq3/HUMKzwEqNeGto+Nt/5E4meCixD3G/xTwRPphstud3SnThS4fSqNdkr+WLPVklv5ut6wVUKfwV18eKLC/RGvN//76T5lrV4bOt5otn6Mc2HpR7oXV8+OzqsfG2/1SwwCH9RrQ53E2QdqCerm9jPc3Rhvfb3EAt4GNgz6bGIw2Qv2amfxPFWhhGTqtaH9jWbrdmCppI8kfO+vJf6mrI+8iwq7Q+7vtqNeW9PoMnYnuNaM4XTsyt1Zc0Fq0E/9DX1VJzEsLRfc32i21nR6eIUSPlGmtSdGrPca4601yf0Ml5nxv0j6/xAtyFcn/BXGXiDZkWxyxrq81K7CiaJySapwTqHRnOxDfEXiEqFpjE0Y6zHWW/JXsvVmrDez9RjrkdYLjSduHytM3Ds2y0UyJwmHQKtwN8l+Fbi4LFByK+nn3JUZhnXoL9wYb60AHk6W7/eBnkNy7YDWY7ZepvXAeiXtYdh6w7Ylk9SNwJUdZLUXd6zqQUQ/8KTgoUaztXLG8jVbSwRfSfYf/AL089ni+LB0H4Oxs92NvfXa0D5ko5iNywmIVwHNRrN1Xqf5nCy4W6mtt4vb/F2+neYXXK19iiFmzWd0ZGgHxlozNgH9gn8N9hBm89XlCkMqmORR2kcWHAZuRryPmxO/hPH5znObrQw9+LOcOryF8bfANNgFGD9vNFsjM12MNdZs9TWarQskfgw0gX/faLYe6iCv42APATtxF6B9CfHjRrN1wUzujI1ma0mj2foG7nbhxRJHgLtBnR15bLPqp+BcxG7CbDvG9yUeKTN85NZ/626cJFpIL5cOdoJkw/aDEotx9PusudMM14Otl9yz0Hqw5D3rzcxZ5KWPAsPd5Ok8A2eoi9gG9hkzppKV0vvN7D5gvlsB6VbpLyK7hT5VYCrMKaoVhgrnGHQexted4GrvmXTTaG1o1g1TjWarX2YLkD4Ful5wPfDiKS2qsR/ZJOhi3GkQzzearXVm9o6kg+aEqqVgnwRGEsH/A+fTPnt9wL6IcWHikvWo4DudWEHHxievQvwatAizexrN1lb/iMIYyWU8L2O63WRPgJYKvmHYcGN88k2kNwx2C6aTlYwVwO8bdo3QBUjzgAMYbzi/6A6aLp3fOxFUa2v2JMdfHsZdAnSNwVNjzcnbRmtrdnaS3wkj3fvY6y3dSi2h3a4wZHn/6Viz9XsyC9wv8hWPeO3DAP4f4Pv12pqO9jt1YqStjwxtazRbNwFPmtn1iM9L9HV9rGpmddWsGy0Tl5y9jfHJ24CfGLZc0iNj45NvI73X6wbl/ChK5kYp6wD12tCxZKPvQtBnDVbJWGeyO8eak68J/hNwwK2y2jxMq8D+CPiImVZKTGO8j/i7DvICeL/RbN2C2eNIF4F9HrgGtKXRbP0G2AHJ0aXuXP/fM7PrJF1kpn7JDmB6yGTjnV5ulw6hmWgm4Uk7QJ+R2NPOoJDKp10L/cpHTG97b9oj2QtyI3AZZtMmnhPc1kn7NJqty8F+DrYCdF+jOfnLTsZvtk4xQzMk/b2r0Zy81Yx1kq6VGHYHOSh1KzshpC63XS84VjgpqFYYKpwzcLeWcqe5jcvHQT/oRFkAt5yPu/Bov2ChGfdFx/KddDg/en0faBgcNeNCwx6V9Gvg14LfmNm/M/iyubOodwN3QgdH8bkbVG8B9eE2jz3bqcuEpLeACbdnVtdgNqtEVa8NHZd4TmgNZq9jdkRoFdKNZoy5uvCG0Bvmjvj9qtDFZhw3YzNQw7kMdLT3wQlpnc8oyQlJd+N8zcG4DtNTjeZkxysaJ4TUg0K9ToSpD10XkVNXapfhpwTfQPqG4Bsk/4Qlz/qGJc8G3zDTN0C34TY6dlK65O/s5au7MXkb4nVQP9DXraSRCnrO91odrdrUR9a8lozxo8AypO8p39vTNbxTcs6kFQbqtaFDuA3Yd0q8h+hzN6nrLw1Ngt4w2RuGfoX4nlMstAJxwOAZZLV6bei1LvJ7TWIt2DOg/cAKg8+aW0H4DegNsDdM/BT4N7jbpI8K3jT4AuL73Vxul+pn7uqF9g1frw1N10eGtiftUY7kdK9ehH5lLoYnXbJdZnCPuxmanRiPd7o3xszeATXMmMbtF/rKWAfHrKZGg06s+vXaml2CUWBzUv++eL2vV6Rn3yWuVSecXoXuUK0wVDiHYEslrQReBXbizubuGPXa0ObGeOsxE38kcdyMK4DXT0FB/TwPNJqt2zF7RdINhq4wbIXQErdJVocx3jPZa4J1YDs7PDHiCmAbYhvG9xAd3/KbWCkfEiw2mA/6vUazNX82YT6xQG0aa06uBl1p8HHB1RKrgGWpTCc4mCg9bwr7NdJrs+2TKMFhXD8D/NcO63Ww0WzdChyUuMBgGjQC/HWXeXcNg31Ky2vW8cbQBLuBVwV9hnWz92IvLs952eZEwrUE3wM6ffJOgtyn5JKzmWHHQa8m03xH7nL12tCuRrP1p+Ys00uTMvynTism7BjSm5jtQnqnc5HNfii0yOAPkjgfpUs+kZVBymnQuTudMUiE5Gca45Mv4G65/5jQFbjb2BdkO5WMnZLex+wN4CVJ23rZuF2vrdk+1mzdJnjCrdDax0EXkZ06J+QuuHsPbAumXxi8OVrr6XCE48BbBoeFttHDRWUZnM/8q8mJSx3xkQTHkF4FMPgvPedfjqsF28xt5m+Ojgx1fHrZ6Mia6Uaz9QPcPLhMpn9hYgGOX86EjaAlgo7uY6qPrNnTaLZqcqcPrkxWBv6BE98XtNfg1eTgtMJt3RVOLf5/vW7Wpv6ZHtsAAAAASUVORK5CYII=;" parent="1" vertex="1">
          <mxGeometry x="420" y="750" width="160" height="45" as="geometry"/>
        </mxCell>
        <mxCell id="MC85YrfVaI_m6A-9rOTC-14" style="edgeStyle=orthogonalEdgeStyle;rounded=0;orthogonalLoop=1;jettySize=auto;html=1;exitX=0.25;exitY=1;exitDx=0;exitDy=0;entryX=0.5;entryY=0;entryDx=0;entryDy=0;fillColor=#d5e8d4;strokeColor=#82b366;" parent="1" source="MC85YrfVaI_m6A-9rOTC-4" target="MC85YrfVaI_m6A-9rOTC-1" edge="1">
          <mxGeometry relative="1" as="geometry"/>
        </mxCell>
        <mxCell id="MC85YrfVaI_m6A-9rOTC-4" value="accounts-api" style="rounded=1;whiteSpace=wrap;html=1;" parent="1" vertex="1">
          <mxGeometry x="440" y="413" width="120" height="60" as="geometry"/>
        </mxCell>
        <mxCell id="MC85YrfVaI_m6A-9rOTC-18" style="edgeStyle=orthogonalEdgeStyle;rounded=0;orthogonalLoop=1;jettySize=auto;html=1;exitX=0.5;exitY=1;exitDx=0;exitDy=0;entryX=0.5;entryY=0;entryDx=0;entryDy=0;fillColor=#fff2cc;strokeColor=#d6b656;" parent="1" source="MC85YrfVaI_m6A-9rOTC-6" target="MC85YrfVaI_m6A-9rOTC-4" edge="1">
          <mxGeometry relative="1" as="geometry"/>
        </mxCell>
        <mxCell id="MC85YrfVaI_m6A-9rOTC-20" style="edgeStyle=orthogonalEdgeStyle;rounded=0;orthogonalLoop=1;jettySize=auto;html=1;exitX=0.5;exitY=0;exitDx=0;exitDy=0;endArrow=none;endFill=0;startArrow=classic;startFill=1;" parent="1" source="MC85YrfVaI_m6A-9rOTC-6" target="MC85YrfVaI_m6A-9rOTC-9" edge="1">
          <mxGeometry relative="1" as="geometry"/>
        </mxCell>
        <mxCell id="MC85YrfVaI_m6A-9rOTC-6" value="mobile-app" style="rounded=1;whiteSpace=wrap;html=1;" parent="1" vertex="1">
          <mxGeometry x="280" y="220" width="120" height="60" as="geometry"/>
        </mxCell>
        <mxCell id="MC85YrfVaI_m6A-9rOTC-19" style="edgeStyle=orthogonalEdgeStyle;rounded=0;orthogonalLoop=1;jettySize=auto;html=1;exitX=0.5;exitY=1;exitDx=0;exitDy=0;fillColor=#fff2cc;strokeColor=#d6b656;" parent="1" source="MC85YrfVaI_m6A-9rOTC-7" edge="1">
          <mxGeometry relative="1" as="geometry">
            <mxPoint x="500" y="410" as="targetPoint"/>
            <Array as="points">
              <mxPoint x="675" y="345"/>
              <mxPoint x="500" y="345"/>
            </Array>
          </mxGeometry>
        </mxCell>
        <mxCell id="MC85YrfVaI_m6A-9rOTC-21" style="edgeStyle=orthogonalEdgeStyle;rounded=0;orthogonalLoop=1;jettySize=auto;html=1;exitX=0.5;exitY=0;exitDx=0;exitDy=0;entryX=0.5;entryY=1;entryDx=0;entryDy=0;startArrow=classic;startFill=1;endArrow=none;endFill=0;" parent="1" source="MC85YrfVaI_m6A-9rOTC-7" target="MC85YrfVaI_m6A-9rOTC-10" edge="1">
          <mxGeometry relative="1" as="geometry"/>
        </mxCell>
        <mxCell id="MC85YrfVaI_m6A-9rOTC-7" value="diis-app" style="rounded=1;whiteSpace=wrap;html=1;" parent="1" vertex="1">
          <mxGeometry x="615" y="220" width="120" height="60" as="geometry"/>
        </mxCell>
        <mxCell id="MC85YrfVaI_m6A-9rOTC-9" value="" style="outlineConnect=0;fontColor=#232F3E;gradientColor=none;fillColor=#232F3E;strokeColor=none;dashed=0;verticalLabelPosition=bottom;verticalAlign=top;align=center;html=1;fontSize=12;fontStyle=0;aspect=fixed;pointerEvents=1;shape=mxgraph.aws4.mobile_client;" parent="1" vertex="1">
          <mxGeometry x="229.5" y="20" width="41" height="78" as="geometry"/>
        </mxCell>
        <mxCell id="MC85YrfVaI_m6A-9rOTC-10" value="" style="shape=image;verticalLabelPosition=bottom;labelBackgroundColor=#ffffff;verticalAlign=top;aspect=fixed;imageAspect=0;image=data:image/png,iVBORw0KGgoAAAANSUhEUgAAAfYAAADGCAYAAAAg5qKlAAAKMGlDQ1BJQ0MgUHJvZmlsZQAAeJydlndUVNcWh8+9d3qhzTAUKUPvvQ0gvTep0kRhmBlgKAMOMzSxIaICEUVEBBVBgiIGjIYisSKKhYBgwR6QIKDEYBRRUXkzslZ05eW9l5ffH2d9a5+99z1n733WugCQvP25vHRYCoA0noAf4uVKj4yKpmP7AQzwAAPMAGCyMjMCQj3DgEg+Hm70TJET+CIIgDd3xCsAN428g+h08P9JmpXBF4jSBInYgs3JZIm4UMSp2YIMsX1GxNT4FDHDKDHzRQcUsbyYExfZ8LPPIjuLmZ3GY4tYfOYMdhpbzD0i3pol5IgY8RdxURaXky3iWyLWTBWmcUX8VhybxmFmAoAiie0CDitJxKYiJvHDQtxEvBQAHCnxK47/igWcHIH4Um7pGbl8bmKSgK7L0qOb2doy6N6c7FSOQGAUxGSlMPlsult6WgaTlwvA4p0/S0ZcW7qoyNZmttbWRubGZl8V6r9u/k2Je7tIr4I/9wyi9X2x/ZVfej0AjFlRbXZ8scXvBaBjMwDy97/YNA8CICnqW/vAV/ehieclSSDIsDMxyc7ONuZyWMbigv6h/+nwN/TV94zF6f4oD92dk8AUpgro4rqx0lPThXx6ZgaTxaEb/XmI/3HgX5/DMISTwOFzeKKIcNGUcXmJonbz2FwBN51H5/L+UxP/YdiftDjXIlEaPgFqrDGQGqAC5Nc+gKIQARJzQLQD/dE3f3w4EL+8CNWJxbn/LOjfs8Jl4iWTm/g5zi0kjM4S8rMW98TPEqABAUgCKlAAKkAD6AIjYA5sgD1wBh7AFwSCMBAFVgEWSAJpgA+yQT7YCIpACdgBdoNqUAsaQBNoASdABzgNLoDL4Dq4AW6DB2AEjIPnYAa8AfMQBGEhMkSBFCBVSAsygMwhBuQIeUD+UAgUBcVBiRAPEkL50CaoBCqHqqE6qAn6HjoFXYCuQoPQPWgUmoJ+h97DCEyCqbAyrA2bwAzYBfaDw+CVcCK8Gs6DC+HtcBVcDx+D2+EL8HX4NjwCP4dnEYAQERqihhghDMQNCUSikQSEj6xDipFKpB5pQbqQXuQmMoJMI+9QGBQFRUcZoexR3qjlKBZqNWodqhRVjTqCakf1oG6iRlEzqE9oMloJbYC2Q/ugI9GJ6Gx0EboS3YhuQ19C30aPo99gMBgaRgdjg/HGRGGSMWswpZj9mFbMecwgZgwzi8ViFbAGWAdsIJaJFWCLsHuxx7DnsEPYcexbHBGnijPHeeKicTxcAa4SdxR3FjeEm8DN46XwWng7fCCejc/Fl+Eb8F34Afw4fp4gTdAhOBDCCMmEjYQqQgvhEuEh4RWRSFQn2hKDiVziBmIV8TjxCnGU+I4kQ9InuZFiSELSdtJh0nnSPdIrMpmsTXYmR5MF5O3kJvJF8mPyWwmKhLGEjwRbYr1EjUS7xJDEC0m8pJaki+QqyTzJSsmTkgOS01J4KW0pNymm1DqpGqlTUsNSs9IUaTPpQOk06VLpo9JXpSdlsDLaMh4ybJlCmUMyF2XGKAhFg+JGYVE2URoolyjjVAxVh+pDTaaWUL+j9lNnZGVkLWXDZXNka2TPyI7QEJo2zYeWSiujnaDdob2XU5ZzkePIbZNrkRuSm5NfIu8sz5Evlm+Vvy3/XoGu4KGQorBToUPhkSJKUV8xWDFb8YDiJcXpJdQl9ktYS4qXnFhyXwlW0lcKUVqjdEipT2lWWUXZSzlDea/yReVpFZqKs0qySoXKWZUpVYqqoypXtUL1nOozuizdhZ5Kr6L30GfUlNS81YRqdWr9avPqOurL1QvUW9UfaRA0GBoJGhUa3RozmqqaAZr5ms2a97XwWgytJK09Wr1ac9o62hHaW7Q7tCd15HV8dPJ0mnUe6pJ1nXRX69br3tLD6DH0UvT2693Qh/Wt9JP0a/QHDGADawOuwX6DQUO0oa0hz7DecNiIZORilGXUbDRqTDP2Ny4w7jB+YaJpEm2y06TX5JOplWmqaYPpAzMZM1+zArMus9/N9c1Z5jXmtyzIFp4W6y06LV5aGlhyLA9Y3rWiWAVYbbHqtvpobWPNt26xnrLRtImz2WczzKAyghiljCu2aFtX2/W2p23f2VnbCexO2P1mb2SfYn/UfnKpzlLO0oalYw7qDkyHOocRR7pjnONBxxEnNSemU73TE2cNZ7Zzo/OEi55Lsssxlxeupq581zbXOTc7t7Vu590Rdy/3Yvd+DxmP5R7VHo891T0TPZs9Z7ysvNZ4nfdGe/t57/Qe9lH2Yfk0+cz42viu9e3xI/mF+lX7PfHX9+f7dwXAAb4BuwIeLtNaxlvWEQgCfQJ3BT4K0glaHfRjMCY4KLgm+GmIWUh+SG8oJTQ29GjomzDXsLKwB8t1lwuXd4dLhseEN4XPRbhHlEeMRJpEro28HqUYxY3qjMZGh0c3Rs+u8Fixe8V4jFVMUcydlTorc1ZeXaW4KnXVmVjJWGbsyTh0XETc0bgPzEBmPXM23id+X/wMy421h/Wc7cyuYE9xHDjlnIkEh4TyhMlEh8RdiVNJTkmVSdNcN24192Wyd3Jt8lxKYMrhlIXUiNTWNFxaXNopngwvhdeTrpKekz6YYZBRlDGy2m717tUzfD9+YyaUuTKzU0AV/Uz1CXWFm4WjWY5ZNVlvs8OzT+ZI5/By+nL1c7flTuR55n27BrWGtaY7Xy1/Y/7oWpe1deugdfHrutdrrC9cP77Ba8ORjYSNKRt/KjAtKC94vSliU1ehcuGGwrHNXpubiySK+EXDW+y31G5FbeVu7d9msW3vtk/F7OJrJaYllSUfSlml174x+6bqm4XtCdv7y6zLDuzA7ODtuLPTaeeRcunyvPKxXQG72ivoFcUVr3fH7r5aaVlZu4ewR7hnpMq/qnOv5t4dez9UJ1XfrnGtad2ntG/bvrn97P1DB5wPtNQq15bUvj/IPXi3zquuvV67vvIQ5lDWoacN4Q293zK+bWpUbCxp/HiYd3jkSMiRniabpqajSkfLmuFmYfPUsZhjN75z/66zxailrpXWWnIcHBcef/Z93Pd3Tvid6D7JONnyg9YP+9oobcXtUHtu+0xHUsdIZ1Tn4CnfU91d9l1tPxr/ePi02umaM7Jnys4SzhaeXTiXd272fMb56QuJF8a6Y7sfXIy8eKsnuKf/kt+lK5c9L1/sdek9d8XhyumrdldPXWNc67hufb29z6qv7Sern9r6rfvbB2wGOm/Y3ugaXDp4dshp6MJN95uXb/ncun572e3BO8vv3B2OGR65y747eS/13sv7WffnH2x4iH5Y/EjqUeVjpcf1P+v93DpiPXJm1H2070nokwdjrLHnv2T+8mG88Cn5aeWE6kTTpPnk6SnPqRvPVjwbf57xfH666FfpX/e90H3xw2/Ov/XNRM6Mv+S/XPi99JXCq8OvLV93zwbNPn6T9mZ+rvitwtsj7xjvet9HvJ+Yz/6A/VD1Ue9j1ye/Tw8X0hYW/gUDmPP8uaxzGQAAAAlwSFlzAAAXEgAAFxIBZ5/SUgAAbPNJREFUeJztvXmcXFWZ//95zrm3lu6sQMIui2wGHB1gXEadTmQLAUSI1biM4zIjzOg4Dpvb6FSX358zoyyK+v1+h+gsyigzXQIqWyDBJOMGfsk4omREQUAgQPb0VlX33vM8vz/OubeqO53uTtJLJZw3r6I6Vffeuut5zrMDHo/H4/F4PB6Px+PxeDwej8fj8Xg8Ho/H4/F4PB6Px+PxeDwej8fj8Xg8Ho/H4/F4PB6Px+PxeDwej8fj8Xg8Ho/H4/F4PB6Px+PxeDwej8fj8Xg8Ho/H4/F4PB6Px+PxeDwej8fj8Xg8Ho/H4/F4PB6Px+PxeDwej8fj8Xg8Ho/H4/F4PB6Px+PxeDwej8fj8Xg8Ho/H4/F4PB6Px+PxeDwej8fj8Xg8Ho/H4/F4PB6Px+PxeDwej8fj8Xg8Ho/H4/F4PB6Px+PxeDwej8fj8Xg8Ho/H4/F4PB6Px+PxeDwej8fj8Xg8Ho/H4/F4PB6Px+PxeDwez/4HAUIzvRMej8fj8Xg8Ho/Hs9/hNSnP1LL0pjyCbRpnoI5KhWd6dzwej+dAR830DngOUEq9GgCgks+A5t2B/5p/mv2i7O85j8fjmUL8IOuZGn67Pb233gSdPxeCBQCA0qneSuTxeDxTiBfsnqlmCEnDAJTM9I54PB7PSwEv2D1TC4kCkYaw19Q9Ho9nGvCC3ePxeDyeAwgv2D0ej8fjOYDwgt3j8Xg8ngMIL9g9Ho/H4zmA8ILd4/F4PJ4DCC/YPR6Px+M5gPCC3ePxeDyeAwgv2D0ej8fjOYAIZnoHPB7PgYIQyj2EDacSNj26+4JEC08VoAosWiSoVASATN8+ejwHPu0u2AkyRc88EZAOKDJ+v/Byz/BOeBX0AD09w3eOyA9QbcFk9n/vIZRb/llJr3nL/TN90J795FTej06IDxPMJKjsyzkRAnrctZsUgb+v52sP158p9vY6T/Q5mc5xbU+e3Rl5BvcL2l2wixPAU8sEBHJltBuoUhn+bxHqWgs98Ov1dPz8MxiooloqsRf4082knm/BsMvc+o+ywhlHaMzaKFgMnoa2tDLDnZYJXWWNdT1mFyG+9KY8KD4GCqcAOATAcQDCUa8F0dMQ2Qoyz0L073D31c+5L4YL865ygHVgYK/P676er5k+31NMO45L7bhP+x9tLdgv+PYzJxqVvImjJFGaiJQSACCx79DNZZXWIAVJP8qWVdrdKHrY8qHih/7jrEOfAIBze59cGigcJiRMoqR1OQCgIIiF8CtEcYOTmFTHLFEsg0LGhLGqD3bq+h+ee1itQsTrgAQA1resf/nDEq5fvx7Hzz+DqyV4QT+VlEoajdcvgajDwCYBm72LIyERQAWA2gzETwN5QHOMWjIEFdQxt28A1UqE9bBCZx1sq9pNj9I+CqPdc/7n34Agd9y4x6U0Q+kAtfqdWP3xnZPy26VejWqJsY4SoAJc9NlDgcJxMHwRSP0BkJwOQR6gAoAAaoyhhQ0gMICKAWrgghv6IfIIgB8jCH+Mevw47r/mGayr2MZBXeUg+3tClBVQYSy96eUIkteCndlvrH4FpARG/wT3XfkUrDQXXHTD6yB0IsTEYGmveCRSgkApRKYPK6+9E+k+Twh3fs7//BsQhi+HSaJdjk9pBkQDNISB/Cqs+8sB2JisqZi82n1fetNRQPRGBKLASnZ7vUgJFBFitR73XflYdjyejPYU7CIEIomToaX5uYd+KZE+KK0BAogIRBogAZECpRq9IhAIpAAQueXSv5WddysCKbu+Gez7EID/AxFS1d9+NuiYdzonDbdtNA0F5LarFSgsAiBAAUltcIeCqnHIm4sxbf753c+9ePFdz25WgX5ChLdAaGOYy23epA/+9YozKQZahP1I0z95k9K+IwSQoP+NAXT89yjMPhPREKBz+7ZZIgB5gBQQ14BQPwclmzE4+0lc8IUnIPw4gF8jlMdR7X5m+P5kG9n3a1suKzysr0LQcSmS+tjHJQzkOgGOXwlgJ8pltffWBCGAgGq3AQCcf9350HQuGBciKJwAMrDuMrHv6d8cj3HM7iEmpQEUQGouQEeB1DKQAoJkC5Z98Q4gWQOKV+LuT2xv2Zfxz+UZR2isB0Ml50EX/jeUwdiaNwFggBrvBfAUSr0K1W4Dxl+hOO8daPQDur3kOiCAzgOq7zkAd6JcTt0iY1Pq1ah2G5z3hZOh5Q6o/AKr9IxyfkSAsABI3/sA/CtKJUK1OulHkp1vbV4HCm+FDgA11qG4ObepfwzA57Pr7cloT8Hu4ITjeKifuVE3hsTeek5QZ0Je2RuSnDBPJbIV4GgR8gTA/a00WCTOfgcyGNf6WeJYoIiGbcf+KIhIJN0uCKTUPBDNUzp/OOkASgegQEMHOZiojqQ2MBTH8bb58Yu/feu9LzxPwJMCPEiq8yd3EG0aeaxda9YEixcv5gqRv0H3nUHEDYaJDUB6/MXHRaxVlhS0PhKkjoTSrwYFgCKgMVBHTE/hght+A5b/Bza9uI8ey9Yul5W14O+rViF1JOlxjbQrDVvOIG5omH0Z7MpOkrn7cdnnLwbpvwRwFsIOQtIA4pqxD5gT/m4F9zaODVsASTXp9N9kz7NShyDIfwCsPgDR/4ULvvBtHLLjC/g61SEg9JRpQhMVRRGSiCEmNanvZp8IAAuUiod/LnV7HyUJ2m2sJDAECqCBPVqv+qizdiaXIZy9AI2BCKDRj43AiEUB8jFceHMvqlcMTXhytTcoHcPEDQiH7t7YzfUSgWKCkmhK9uMAoL1u1pEQEUQUM4siUuIEtIhkYROCVKCnyoLYfzMgqdau7BhCZJe3YwpnU3ACKQgpgQgJkYhYzR92MpANVQDAdoyQJBEhSt9FgexOKWISKKVVB+mgQ+cKR5EOwHGEpDEUEdV3XnrfC88I6Acq0PeEkvz85B8curmyhBJrzbXehGo3mWk80wcWAgWCgr3ck6RquZtAjIBZYGKxgysJiArQwSnQ4SkwjYsg+kpccOMjAL6KWO5F5eptAJra0t7vA03ouGQfj7tVw7/opteBk+tA+jXQQQ5JA4gGYwhpa94C9sEPTcP+JPewCQviQQMBIcyfDpLTsXn2O3H+DT2gq2+zgXUTEDDW8mfP1/g7KrsG0brzbc9lu6ns2PP9EgKIcc51CwH1XsQNBiHE7s+LAseCIH8KTP/ZAL637zs91u6xHa3Te3z3+yUgEHg6ArD2T9pbsMNaFcECUXCSWzUFNAAwO6FuPydFmSJgN5D+QYCyYzGEgNbhlQ1BaXcr2ftJWEAkVkYIIXXrZxOLzAdARE7ZIDe7EAGMsQLARHUBaSGCIhXkiNQC0sECEE5XYe4j8dDA1kfftO27yx/YtDqA/PQ/zqIn7H4LlXtAlQrEB5S0E843Y+8/nc32TMzW/CwaFMyHUl0AdSGMn8AFN3wFiL6Oavf2fTOLTwPp/i29aQ50fDU4+TR0SOAESBqJ87uGUxtTRgQgAEEQNwwICjo8DaBv44Ib/wmm9gmspM1Tqj0eyOTV26FyxyGJuOnLHANhAehjuPzme7Gix8C7Ddue9puFtmIAEQazfQkLJPubwcLue/t5+h23LsPN77PvhCHUHJqY7b0rIs1tif23/Tv9bWl+Lunyblluebk5gDOVaQgHIqLExGLiuphGTUy9LnF/n0Cpg3Wx8/1hce63EqH7L1216Zbl9794KYikUiEGSMplUeVymwXveFogAkEDCAAiSCLgWMAxQ+mXI8h/AVRYifOvvzAT6qXSZLgIJpdSr0alwrjgiydCx3ciKP4tAMDE7GbLwfgm9kklDaghcMIwESPI/ykof68NtMKEUlU9AFLT4xk3h2D+EMQ4C8m4q5HTpF+L5weXARVGqbf97l3PMNpaYxdhEmMFqPO+2ZjM1EJO1tzenLQLYJxpXpG1SBJBmO3C7BQtEvt385dIssAfSsOFnICWdGfs77EN2BPsosFnbiGCDei0Gj+an1Gq3cOtC3CSSNy3w4AAnS8er/P54+OhgcuWr9r8CwroFmoE36gspW0AcPnDD4crzjwj8VpKu9MMvYRJBCZhBPnXAFTFBV/4CmhHGdXKEEoljWq1PVwuqZvgnOteCzLfhsofhbhmtWXnmJphFEhFgORA+CV0wbo3vDV2YqQBaocNvBcUnAQ2wER9KMwGYVEjGvxTQL4HdKfr+nGoTWmHB3a3GGNG1ZYhTQ1bmK3f22nKTU3bQIxdN4vTSddngbSmUoxYJltOWiYMcF+1aPDD4n+kOQGQ9F3EuhKceX74diWdCJAAgQiCpDHEUf+OBCKhCnOnK5X7AuvoF6VVm64qrd5y5Iozz4wBGsUX6Glb0jSOpGEALkCH1wDz7sK5f3cCqlWDcrkNnsGyHfSXXvcHyIe3Q4VHwURJpi3vOe4hAu/yysLm93iLBmE+BxOvwD3XvBd3XTHU/C3P2Ahh0aOCrnIBIh+ADgGXljsxiJA0GEH+zTj/c2ejWjUo9bbBfevZHW19cRREMTPQYlofboJngNE0rztzvTW5Dzfjp8uk22LTVJSGmdLd32j5OzPPo/lZZqZvMeMPM9/DLQcZYaZvXde9wG64IyWCQIyRpFETUx8S0vqIcM78G6D1fcsf2PQBcamAECEv4CcJEbP7F0xTKGWCac8h0hARJHUDHS5BWFiFi774e6jMsGmzVNJAhXHB505EEHwHpI5AEhnsmTVPbF66M2uRJqiQEIQKQW74S4UEpSkzAggMxs+NZuQKGnF9Be468oNOWfT+9YnS1WNdLLM6z4fOnYYkYoyZVTECgoKwgc53gsK3o1xWqJbaN07E096C3cBYwTrMh22zV6zGLFZYC7LPRDjVyJsatpsciJGsVgW1BI0IszWay65CGqmFALCaPVLN3rkdxQwX9lktDDfmcHM7qQYvqQYPOyLa7XLLciCIzdTnJJb6zu0xaX1qEBZWvG31lh9cet+LbwCRgEjSKHrPXkIE5IoaYVEjN8oryGsroEIFUsr6HBEBSPZCyFvtPa4n0OGxYHMLzrvxcFS7Z0hzF8KiRYK3fG42JPgmVHAETMTNaPeJbEIMIECQ01ChPTecbIKJvw8T/ROS+k1I4q+Ao5tgGjeD4zXg5LcAagCAMK9BWgESY1TtmyIEeYW4cTPOvOovICVuiXKdWsQ55SQNlpzoa2+glvcJ/QY138c8CMK6ikHphiKEroDSRReSvGc7ShQiHhQQvR0/O+gU+2E7WJs8o9HWPnY2GjYJzUaiWSO3svclufw21ZIZwc7nTc4nL24xAC6NBhCCkLK+eUer6ZyaKyBNraXsn9atZP3pyBRnCDtfPjL/e9Pnnn6WDkXD/e+tjiq7PYXUEe9S9AgkYVKvGSJQkO94Q9KorSk9sPXvGv18Q/Wt1F/qFe3T4/YYASkC8xDi2kM2N3JUQT0XaTU1yCEQzEVhdg4mAZIGAEkjxSc+UBIFMFECnfs9cP2fcfnNb0Fl48xcv0qFccH1n0eQ+wMkDbPHQj0saJgEMNHPQLISWr6LnQPrx6wUVy4rPDjvZQhwDpLGxYC8HrnOgxANOjN9ei4lQdiRQzz0HQz0/SUqxKiUW9PXphYy/4Rk6EFA6hMLNHOwCAgfBelXuBn+7vOxKSBI8iyEbgTRNogEUBOsP2CiAGLjb2wPg8quy5R7CBUIGnQqlD4XcU326BqP2GHosAMm/iuA/nwvt+GZBtpasKvUT24YogAh5aoJCphdFTnDkLQYDZxAJICEoIjAClDuSVEuwZdtGPwwyW4Vc3GTWTtZJ2UnC1B2e0Ls3uEm8nYIIrcugdx6ygr1dHKd+tcBkFLDg+sILZMUWAtAWu1OKTuBsN9pEUhcH2IiFepiZzmUwcXL79l0ZXUZ/awsonxxmz1AINABQaKncPc1b97tcqVejaEn5iAXhIiDlwN8GOo7fw/QpwPyZuQ6ZsHEACdAdrdMiABJxMgVl+K5/k8BlfK0BtOVejWqZLD0xnNBuAIciYvsnwj2OMOCRhL9BJz8IzbNvRXrr4jHXROAywx4CsBXAXwVy657LaLaFSD9PpCCK8AD5IoBosH7ofABrKsk05cq6Kqr3f2xHwD4wV5tYtn174BSr4CMUfVOwNBKw9AWdEb/jOq+lP/djQUjbdKT4JMIQgJHe3KP7vIj4AQQsxxnf/kzWP3hjemwt7d77Zka2lqw23JvaVoZQGQ1bk4j4lODkhEbuKuQRbQDZM3uArCytm0m59pjAQ0Li0993mIriSHdfhpVL1meemoNsKtZqS6Zlu/M8Ma4injkJgKSpYtmEfrNqUCmo1hhDzsJINia2kR2Obu7RCQkiqXRv4NznbO7REcrl9+/5S8qRLdDxBUv8b7HPSDAGTeHWFBX2FzYVWhUu2MA292/0oqBd6BUzqFx0Alo1M6Ekg9D5c6EsIKYiVcpIyGYhAF1NS664V5Ur35wWoR7uaxQeVRw8RfmITEVqBwhiSamrQsYSiuIYSSNTwHRP+JeV/K1qxxkDWLGh1AqKWxaRLjn2ocAPISlN3wbmq9HmH+Frdsc3Q0O34l7PtIHYGLV5iaVskJpg3VX7Cn/b4/GVgWEs1Au92NP6rFvcPu22/PiBqjzPncyIBeAY+xT4SI4rSgoHAKKrwZwNRav0cCSPQjE80wHbS3YDRtnnh75XDmTONBi9uaWdDYAykp9Alk/d6rRszN1t4p1BtK4KCvMm9q4NbmT87NLJqhH7kX6fxpZ4IYUUg8CMDw9Lk2vc7YCq/m7incuPc5q69m+OheAESJFOh4cSFQut5AU3Xbp/S/89e1ENzkbPnnhPmEE66+Id68NugDF1j7jJx9BWHFFBGADgA044+ZbcdjAOwApIygej7huJqb9uvzssNCJuPZpdJUvRrViMHXNNiwbTiWg2yC+/q0IC69D0kgmJtRZoHMKJtkCmD/DPR/9LgCbG73+8iRrEDMxJJvA2AYzgpV0Dy658WdoRLdBUR80/THu+kjfvlfs21sqjL0tjb7shj17/hKy3QHLZUzaBKZUVajCQAfXQAehLaA0lstIxvneLuSCkS7B0n/4AlYufq6t0jY9ANo9eI6JmI3zjQvSnHZrnk8j1u14w3CBcWJGLSbDLLbanCsoY4ZVnnNif0SqWzN9jt3EAVkkfjM9jrNlbTCf08rh5Lb7PgvCa0mPywrcAHZeATTN9q0Bd8IugND+cBoTAEFgojqLCHSQ++Ly+zf93eUPIygDVG6LNKoDARKArFZU7TZYV0mw4ooYEEK5rFAuK6y/IsbdV38D2rwJcf2b0KFG5uAZb/MuFU7lzkPnnLMBCMrlKT0gVLtdMJVc7u7N8aO+BAydE0A2A+pC3PPR79pofiFrgt+HiWS122r55bLCHVc9jz/oeyMieSe+e+UOG4E9E0J9f8dNhi743ImAvMX5KMe+RhTQeLcBSDSSyCAoHAcdvs1e99Ik7rdnMmhrjR1gwAjYcLPZC6tUnwWxLUZjFXU7NlmLNVtdnQhpfXlbPt6atInZlaFJf0Wg0jQ3xU17PqUTWLcoWSuAjWR3K6tUrXfatzgdLxPgLiiO00qkLVYFYEQBHaelAxhWLVkIRGxN/mz3qamUk+IkFhEtuc7Zn9i6fUtxBS24EiKESqU1Ns8zqYzoR14qaVQ/thHAH2PZdTsQ5D/kfMUK4wtNINAaEr0fKN8/tSZnZ4uq4TUIcq9xZUXH09atL0uEkCQfx8prHkJXOUC1ezJNsOL8wanJfVvL3549petRwjoAHLwLucJCJPUEtLvxXgSkAUl+BcGxICpgt/dsGlTEApEP4pzrvoVqaXPbl0p+idHeWp0wSXoPcar1upS2TJt22rlJ/43mclmp2VYN3mrcwk0fe1YzBtLynuazc/bb0vqbLZo3BM6S37qPTYVNXKzvyBK1IzX4dOFMg3fpca0WgeEFbuDENpEkhqKBPqPC3F9fct/GK0FKSr2i9jr7xrNnpMVmymWFe679S5j4H6FSzX0cCBpJAxB1KS4sHpV9OiU4nxTjT0BKT+xXBNB5DY6+jpXX/POe90ffI9IZsp+U7i3lssK6isGy646BVu8FxwIZp2mQzhGIPg2hWxAUCIIxrCSkYSJGruNEhHrxPllrPFNCewt2dmbtTLijKahTE3gmIEeY4Fvyx5FVr+MWAd86pBkIGyf3WZhZRFhE0jcjwixi3Ofc8s4izMb9WyQT9C0TgUwgoym8m0J6+GRBRnzXFODZfrcsZyvzwUbfkRijTNRgHRZvvGTlxvdVu8mU2deYnzYqFbZpRwBM8DFw9N9QgQImmK2glQaCc+0/pmysFJxxcwjIebas6LhFjgSkCaaxGSrXAwA2QG5KES8s9hmB0ucjLB4DNmaMoDmGChXi2pNo8EoQ/zMka4e6+2tAUDCRAPw3uPzm0Gvr7UV7muLdUGNj2qwfmpR1BVLTEI/WHusga67OcsZVaorHsOWErBauWm5zEeR0kCMWELkv0l7u9u/Mbu4+V9n31Gqq58RWxgMbRQpQrEgUZUNnqos487zbuaZ5fjRSx/sIE35mps9cufZAJTECKFY6d+Py+7ZsqBA95PPcpxPnK658pA8XXn8NRFY30x3GQMCgQIH5fABfywKfJpPUXHrYwO8DOMQ1XhhPsBsE+QCNwa/j3qt/h8mu+FYuK9x1xN7lVa+/3PdN2BXrvih9ZRaG6tcirgnGHOfFIMwrROZfsOqqQbyr/D/YTj9GUFgM0xgjw4MIbAAd/B6eq70VQNUH0bUP7SnYHcJMmSkcsIIsHYuM2PxyStPGrNTLAs2zZjF2HLKB7S7BzDDYCfBStaqeTU5aqlDPoQZI0QW+7W6nQg6U6EVK0SEgdbwAxwB0IiDHAGo+adUZFjo12MDUh0SUxAA0uaaxyKL43b47bbx1EiIjfn1YgRtxfvi0wE3q0ye4CHqlTBJxmO+YZ7jxT5fc1//mRT/GFh8pP41UXL/wu3rW4PzZ30W+42LEtYmmwZ0CCKE6BVHxG061Qpz5dCidm0BsnzXhmigB4U4ANLkTDiFUyJXq3RuumJzdOJAolwmVimCwcRl0eLyrrzA6NnUxQDS0FZrvAoTwTerDhTdUAelyY8bY60MRpPEhdJXvwKIpzOTw7BFtLdgzP7PwsDS1NC9cUiHvApdBygrxVMin2qxSqZpsv1eSRcIDwE8++OpNu9+JUXlq5AeXP/xw+PivOt8IMa9IBvtPh1a/D6LTc7Pmh0l9AJLEDNvfDa51/PD0OGlJ33NWs9YKdpnDkSiLY2pJlEuPFgQGEam4MWhyHXNOTWoDn69UZr8XPb6u/DQi6OoJsK5iQDfcCchbmhaW3UCALWYiB+GCz5+Auz/2G1uycxJNnJseTU1Qr4IOCCYeu1iJCCPMayTRg+DcfwMQLHp0ciaH5bJChRhnf+4IdBSWgJM02GSC96kCcmYV7rh2T5/dA58Lyx0w8hdu9t8cUHZBAB0Sksb38b1rfoau/gDrYMD528GNjyDInYQk3n3qJgmBE4EOX4tZs5ehcs33cPnNoc0a8cwk7S3YhUk4jRpH06zuNNZm1DvcO7f8DavFOvXdxgK7WHjmVH12v7OPQq+nh2znNaxxL5x1+4aDUVd/0Bjc8Tol0q3yxVfAGIhJIEYMFBSac5B0R4C0wh0BaZT9MIGQpZpK8zjdqk0zvQBEOh7sFwr0u9961/P3fIeotySiq+RN8tPCwg02qELRzxANbYUKDrE+pd0OstaMI9QJUkcC+A1Kp9Je51GPxslH2EhpomOgAowr2EEGOqcRNx7Byo/0oascoDIJQXOlkkalYnDx9Ucjpu8g7Dx9zApto6KAeMe5AFZNuntgfyW9Phfc8BZo/XswYxakESilYBoJVPINAISFG8S1d30By264F8BJYxe0sY2nEXQUEPW/HaXeu7G9yv56zDztLdjBEHHlWTPbulNuBM2UMFfUBWkxFwKgGFmtw9aWBzaWDka1VJ7bdxO1AEC5LGot1iosXowHltBWACsBrOz65q++UoiT1xqJPqoQ/GGQLwRJNMj25lcKIwvcSNMPP6ECN+IK8Ig1+KcaPIMloJyCks9csmbLj6vAc7707DRR7bWz0Xr0BHLB76CDQ8AN2b3wyu7fIhQWAmhq2JOCEFZQgq41Afi/DnL1Fcbz/WuYCCB6DABh82QE25YVqhWDs798BJLodgS501Hf0RjWvGFCEBBIY9/350BBCOtg0IUA4HchKIZju38EIC0wyQYMDq0E0oJBvU6F+uLNSKLLoXQxLbM9OhQgGmQgWI7B527CPdWHUKrqSY8P8ewRbR0xLQwaFsnuistk7y1pbTBpoZiWqPg0tWyXCPp9cOuNQaVCvK6yJFm3hBKUy6qrvCYol0Wte9cpW+5758vvXv2uV3Sx4svi+uD3VVhUSueUsOHh6WzIIugnUuBG0vS49H8tEfQkpExUi4POWSfzwNCHQCQbqj4BbvoQwvxaDURDE3vUWEA6QCyHAgAGjpjsayWY+9MiSIrNYJQxliVoJLEAvB2AoHjEvk2Ay861UPrKLOSibyPInwkTJQDlQcjt8YuVv5dTSlXrh+yY+0dQ4XmI6wyM0flRSKBCAtFXbOpiarV0fs17rvwfCO4H6VSr2h1W0whyOcDYoAdfUGjGaWvBzkAm1LOKb5z2YbfNYdj1ROe0L7vLPUfak72lhzszt1aOm9pBoVLhdZUlSaVCjLR3ugitfsfJt69+9yvO4kbjvWzi3wXF2UqMGBF2crxlYgLXC15a+9Gj2ecdIyc8ae/45voiEkSD/UxB+GfL7nryFdVuMr4q3XRAglJPiGolAmSrjf+YoGVo6oMcJ7B9F7MCGQTkOQDA8fP3fjZsze+CUnkWhupfhw5fj7jBaHur4X4BodrNKJcViP8EOhdaLWY3VhCBuGY7zyNHd9kPe5rL2vGBoNRXkJaoHvPXScM0AMJyLP38y9GsQ+CZIdp7gHeC2haKESecnaBvyVUXZgi4uVwm4FoEobE2eFue1UxlJe5dcb3TQSSl3l4NEVr17pO/Xm9EbzRRvVcXOrTdR5Oq7Fahyvq/I9PWhW3uuhhpFsVBU4NHiwZvBTyRJDFUmD9Ec/hxAKj4nNNpRAi8p2bmtiIBqfq+baKsUK0avOdf8hia/a/QhUthYoM9aYXqGQMBUCb8dM6pUPod47ZmJTHIFRU4vgW/t/PFzJKSYmsxCCLzE5jopwjyBJGxtXBhgc7PgdLXABCUe/y1nUHaW7BjhAbbUnQm00hbzO1N8zRaCr00tVmR5vYMz8ygUu22ZqquNWuCH7z/lc/c/44TLjONoc9SEAqgIPbAhpvlRy1wk37XItQxYnkn4UVASa0mAr7k4nufPHYmjvulhxCqlQhdPXmQLHSlESd2z/EUPpfR0MTve+tbnQWhwwHspc/fCY23fG42Nm+5FTq/HKaRRlr7wX/SqDC0XAPSuXEMMgKQRlSrQdGdqFQYa0febyQo9WqsunYIrG615vjxrEgktuCRuRSX3HSUTfn0lsGZoq1PvGFRYGNN6OLM6saZ2KVpVmdm62NnBqc93MXWmGcDa54XBpvUhC8QSWZuUCGSdUuWJCiXlYjQqj8+5VPCjatsi1blKtmJTRPl1G3enNjY4zeZmyGbBDTN7y2xBjZWgZMEQViYbeLgLwGga414E+hUkg6DuVlzQOh0Pu1x7jnXI1hj0P57/eTv1+w5MbJKeGON1S46U+kARg4BsOc+/1KvBiqCs/9hLoy+BUHxrUj2qR+4ZyTlsvWtX3TdcWC5YALZBQZhkQCzFv39D6NUzmHhqZKVQ05fmxYQymVCEN+OePAZBGEwjtauwIlBUFyIyHwAgKDLX+eZor1PPNuuZrBm6hZhlZqirXke4szvmfBjJ9xhtY7UNJ+a8McvzDE9VCpMABb19uZWv+vUm4j5KkVKAYqFRWDsBGaY8G4NrHNC3E5Y7Plp5v6nr6wjnI3INrysdM/GBesWw/vap5Luqj23Sh8F0KFjFgoBkPm0hWtQ8gwA4PizJ9FlQoJyOUD16hqAbVB6fF++UIKgACiy9euP37gHgl1sF7mlN+WQC74GFV4M06jDSh4DINnNq00ezv2EVNtmXImweDDYjCXZrbaeNBIY+QbWVeqoViJUu40th9zyWrckQaXCuOvjvwOp29DsiDU21of4J7j4C8diXY9BqbR3VQU9+0Rba2228pzttU6krIBTLv0r63QGl94GgEdWbmvNc7O9zYXQPoIdAIhkAxCfcfnN4f3vPuWL59yy4Sidn3V1UutnkCIaZr2V7P+7FrhpVrJLXZetBW4AUFwfEhWEJ9TjeAmIeteuEe1rPE8RqdlaySnQ4QLnUx57ImXLBg9CaCMATFoxmJS7Mo17y4TS3QiuChROs93cKhEmlKPs2iNefP3RSOJbUJjfhaQO6LAw7j4mjdQF4BmPUkmjWjG44IYjQVhqTZNjIYDSBBO/CINf4twbThhzcS0KATFEPYQkrkOpoisDOvpNQ6TBUYKgeCyS+jkAfRWL0hxkz3TS1oIdQKZlExuQIogRKMVgIai04Lu4HGAFIK3KpmxKd1r1EFDunWwbWGmrVBlZv+KKBCK0iuias/710dOC4qzzktqggbJVn5qFc53QTpP5pVkyl41AkY3VImqpqu+q3QhzHHbMCaOdW88F0Lt4MXjdjB3yAc5iMBb2agz97s1QORq3PaqQ2N7E1I+OwlOAkG0LW5m8fTp+PmM9AJFHYOLLdltRLNsnUVbQymuQn3MsgMcnVFK2DEIFjJi6QBhCfVvV9SN2tZBHiTUgCJgCkHSB9PwxBYjHsmiRM9/hnQg7TkQ8mIBojDHd1XcHzUdID2Bciy1ZF6etlZl3ZsKxr4mQgokBkatx9s29qNBOpHqIZ9poa8HOrMCcAAkTlFUeiKyPnYjAbKwmDyvIYdJKdHZMYFt6DuTWS3uik9LD2ra2CYKeHgUIwjm/+VBSi9ZSEBzJJmYSUlkDG4GzijmFaljlOcqM7pKV0KVmCV6Ijgf7ICR/eN69Tx1eIXq+XBZVqfiCNZOKbbYieOsXTgbpbsRDPPaAC1ue04ZIPILqXw6gtG7yG2qkFgCRX0A4AakAY1mviBTYGOSLhyGuvRnA46hOwIqQ3k+Dff+OdZV/G3/H3Lh/4c0dkIG1UOEfIKlPpE/8SxhXZ3/pTXNA8ftgGml+4vgo1QFQx8R+J1WeJjhEEBQkEQT5k4G+8wD0Nm2MnumizX2sPMJf3BoVn7ZztdFhzTouu0bQN1PFWgrWtCOVCneV1+qVl570hIkbN6ow59Lbm1Huzbawqee8mR43LCMgW6fZ9pYYlEQNVjp8RViLjwWADadW/RM3NQhicy10OHtCmg6IIIZAuAMAOW1scqlU7DaDOT8BsNPt0njRzgQ2AsH7ULqhCPRMfJSecM92N8lu9Pl7cU9R8aXQuVfAGMFEx3PJIpFl/Fca0LSHiDBA19oWwZ7ppk0Fu3u+RUiSFkHdkvrGrYVZ0r/TwjWpPEt7uLt+7GgR/O3ah2htz2JT6u3VuqP4z8lg/8+CfIdmFpMK6mETHNMi6NGS157mwSONljf2MwiRCFOuCKbwTADoLZXa9Ezsp5R6bdzChTcshwreZ03wE3nOCGBTh5j7AUjW131ysdu864otEKx3BWjG2y0FExGC/OtQxxU2CG/CxUfSQiXjvHrsezTgBfuEyWKHrraBNXtcEEZlJr0xX+lye7hvnBCUfjUO778UIEFXua2twwcabSrYHcLUrBjXFN5pdblU2GdV2dJlWyq1ta7b+hmk7UzxAAAikk2PLqDV3S/fKZpuNlGdAahsUiPNyU2W2pZVmrMZACOtFq2WDGajuFGHMF5fLpcV+Vauk4QQzrg5RLXb4ILrz4DI/22ZdY2zqhjoHEDq27jnoy/aD6fqurhMCKZvQGlAJuKGIYEkAsYnccF1p6FCPMGBOs1/HuflCqLkZvl7cSLYSHPBshsvBmGRS3Frp/HMdu7SuQBG/gTlssI6uOYwnumgrQW7cWb2zNw8TFi1mNvZmZ5dERqX9D5cwLW8rEbbVg/CMNZVliSAUHDYwd/ipPEcKU0iIs19bzG1t6S32Zz31FS/mwI3AuIkBti8asOpJT+L3nfICjkSrL8ixoWfOwug70EFC+yAO26AEoMUgeMEsXwZgKAsU/hcOktA0axC0ngWSqfdhMbcSRgj0LkFgPpHvOVzs7Guktg8dc80Y900XeUAwlchyCswt19tdoJCUhcofTYemnu27RFQbWt5cyDR9idaWjT1zKSeNYZpNohJ89Qh6bKpEG8xz2eCHm2rsTchWXXe4YMIgpWAasllT10K7nhG+t9bBX0aSAc0BT1AbBII8yv6cdDc9Mdm7jj3K5zpWOzL1gEQK+RuKGLZjddAwtug9BG2uMBE8n5ZEOQU2NyCRt9/2cC7qYwgJgBlhTuu3Qwj/4Egr4AJdOIiUkgaBkH+DTDhP+GiLx5qm31MWi0EQlT09+F4dJWtq2fWvLMQBGfuYcGfCVhPJvSaAESAGISFHLR5L0q9GlXv9psu2luwG1Ba950z0zuj+Rmyf7d+N9zs3rp+SyOYdscVj1HMt0Br2Kw/GTHRGV6IZqQlY5dlh3XJA5gGTwQwAYXtAKdcVthwalNgj/oCkA1srgNWpcI457pOLLvhg6jhPoS560A0F5xMLJBJwNChQtLYjFj+F9ZVElROnUCe+D4hwKk2DL0Q/l8k9edAobJ+nHEg0ogbjCBXgjH34PwbXpnVGC+XldXg98D/nq3jwuIXLqyhbaNf2gEhrANj6U15iHkvdK4DEE7zWcda0c1JJ+BTn9DLbXM8KEBcZ6jchdjx9CuySeVkIWzvodr8cZ7dPXkdGEpOe5tiSSgVStlc0eWqkxCgXOMhQtaHPM2sIOfRoSwD3PZ1J1e1s+2Fe0+PoFKBIf0bqte2ENEhwiykiFpLPqRZbWlH9xRqOfImkq2jAk0s8koAPy73gCoTnokfcMgEi/QQLr85wG+3dyCn50HUmSC6AJCzodTR0CGQNBJA9IT9na6+ABR9CquufdJq69PR8rLbWA2q+wks+/z/RVD8/1wU8/irEhSSKEEQno4kWoMLbrgOgboZlSt3ZMuUyjn89gjBrI2ChacOv69+u13h+I2ERUiGnfelN83B0LOXAHIyOMbEAg5fYpR7CJWKgG44CUH4NkQ1Bk1gDCcisBg7JOyjn5tIIFBQSk0sBY4JKjcbOXU1gPcBlckbZ0jF7h6KJm2bBwjtLdiBzL+ehV6kxeQIgBFAuUIshjKhD6KmviQ2u7Nl3BISJtlPZmazD57f17dpy8MqyC+VqM4Q0baKt3WN2ucsFd9pQRon8NFahQ9uCasQCghk4vkzcUxtAYkr1oFDcMENHwNJwdYv3t3y6jg8N3AIcsHJUPpEK5TdLcQJENeNzVWf6G0lTluPvop7rlnhct+nb7ZZLdknKvinL8HsuAw690qbCz2Rwk0SIIkNlD4YKvgHRI3LccGNXwLjRxD9C1Q/0hhjZZOVwH/L546AoUWgcAk4uRQ6PMUWN2G0WTBYe2DTFQUKfwnSAZBMxMoCiDwDqI8BSWyLIO0DDEYgObD5BFR42vjWKQKSWCDydiy96dNY+ZHn3Bf7JuBFAOJlWHZ9HiSzJmRxGgulGKQCxLIeK6+6c5+21Qa0tWBvjWgnsr0OyFVVE0orscEVYLETyOzfcMtBgSD2RQQm66OHafOBw+3eXW85cuiPvvrfzxAFcJ1h3MQm+8P6zymtMEdNy4YMt2I0lXoRFRIJ6BjgpZrLTgQxANEhCIr/MO7itjubfWebfdgcmwh7VkxFEoQdAaLBB7DgkL9CuaxSC830QQII4Xt/1o9l130AxjwA0h0Yq4/3sNWhIUZgDKCD4xHmv4hoaABIfoJlN/wCoGdB8iw0toBFQRHDyGwIjoHQEVB0HIy8Akr/HoICENcAE03st1+SuBKTF113HIy8GyaaiFUjQVAMEA/9b9xz5a2TujsX3DgbOnczTMTj1MWxEfJBWIAx1wL4CLrKwcRrHIy6SVutTOeWQoVLmwPcPiACBHnA7PgPAF6wTymum5sdayS7fyT9n6sPb03xbIt3kb3f7aRfrE2eqSnfXMS4mcnubhNDusprgnWVJQkS/m/qCCFGxCpU9kZOS5URWfeQiD1HAsqsGRhVg3cWOaF5M3qE7YCIIB4a3/xtfT5kfUDpDGpPbyERgBIExRBJtBaNwmX4+vvqsFXEZsAV4tpzVrsfwrIbPgKd+xqSyIBkgrnLbhlJBJExIJoFnT8HSp+DJAI4TmCkjvR+BELoIA+ddxa3GEhiBg/yHrkwXoqkpXxZfRA6KILjsSdBAoYijaS+CSx3oFxWeP4Ije3z902znb9dYft8xtCzqxEPPQWdOwYmGb9Wg/UAXIyLvvRF3Pnhp1DGvluokphB8eRYuQQMMQqgvknZ3gzT1oLdCKgZ4e0EdOpjTzXV9H5q7fciDFKq6X8e4X9vqyYwYzBwxGwCACNSD2wxEbbHkGrpZPUupzkSwZXdbT3e4Q1iAKe4u4I1M3FcbQZhIs9BNobu5SkT2CCnIB8iafwbwvCv8cCHt9pgohks6VvtZqBX457uf8KFNx6FMN+DJEoA3gNBS/YcCguSuquGRBpEAUjNai4nACdiO5AJXP14BWAPXBgvRcoK1W7GsuuOgcjbATTNkruDwAiKARqD9+E1/Y8DAFZcnmDfAzNtfMbdV/0Wy677LnTuI+DYYCy1naDAcYKgcAyS+qUA3YC1ZY19DZS0985kxWK47AI5IFI42ztARYSYxfVaty1a2dgKh8zieq27NDBjv7ffub7saTEbI2BjU9/YlZ9FG+exp8za2C8AoMQMJrUBCEsgwsLGldB10e1Ii9W4PPY0FY4zi4c7ZjcFYIgQCJwkxwDApkcXtP252G8RMASMILT2pbhWRsdP3ovvpEJ9xrvrCeD87XddVUHSqCDIBzYydU8HXifgQaEddGVkedI0tCUAKIBtQuPvvfGwfc0FUN0Ii0eN2ynQPuYapjEI6FtRqTCef15PglC3VN070S2IBvpAQTCBe4WcP/7DuOizh2JdJYFvGz1ltPeJFZAVxq6ErGktHytZbrctZc3N71tTu8TYmKh0OVf+mPejrBrReqdpDAECnQaiSloDXsTW53F5/en78NryLtffiMvpT3Pfafw2mp69Q8T2HA8ChSBUMMn/A+Es3HPtZ1DttXOrmRfqDpe+Vypp3H11D5LByyESQQcKkBh7nw9Ju6ZKTYYgF4Ht3X7gUy4rrOsxOO/GwwH8ycTqtgsjyBM4+R8c3bEaZVFYsSKevJ3qNiiLwt3XrAfUWiglE7iqGiZmhMVjkBTOA4ApKpvsQbsLdqQ13ptCPBVSWd72sGI0TriNLL3aUrQGLuddtX2BmiYklFcqgLhKO8OFdnq8dlkXQpCdAzgNfthyLuyLx+3f7NljBAaQBEFeI8gHEPktTPI3eOFXb8BdV6/LtJR2LOVbrTLKZYW7P/pVEJ8HiX+OsDO0UajSBtXNnEAnRQiLAdqr9fIUQgIlS5HrOM1q6+MEahJpmBgg9a9YcUWMDVMQHFvpse9KfwlsCBORJQRl/eJ8DbrKhUmzIHh2oc0FO0Zo36nJ3aXAGVdRzrTWjbfLQNiZ31s0/ZYiLpmqVB3r12eW1MeeJMlBVOiEiCRivWcthWmaAp6NrbIHSb3u6ffNyntIm+XsRcMmT4a7AZ2ZPZ1WkQKCnEbYEYDj9TCNT4Mab8LdV/0d1q+ImyltbTuguZz+ksbd165FMTwHydBNEDSQ67D1ye3NxWimBEzl7sjw8xsQch0BRPoRD30ZiTyGAz1OpFJhXH5zCCUfgmkAgvF9wKQEwptRj2zL3OpU1EZw1qa7/voBiHkYKgDGvSeIIImCDl+JzlklAJja8skvXdo7eI5TYSUtaW0EYgJDQEoBhq2BT2yxmjSljViBwGAmF1RmY02EBGR98XZAKKGthTsAcGRSNdzl46eFktCSxkZp5lsaAo+sQBS1FACgVHlvjpcHINYMTjCYFAGUzZQAkAZBgTRAimwaAsMGd/JWxNGdUOoOmNpPsPJvNgOwTTuqVbPveeo0seNKv1fBXh571ZaKrX5kM4C/xvk3/huS6EMA3gMV2ofMxAAkdvmke9EBbBfEpRAKCAwhDaUVdEAuKAYwyc8Rya0w5l6s/OgjdrWrdr9FBYYgQfNcjbWPAppMC5ZzxTSf0l1pXsfRBW86EXy27xKo4AywScY1eYswdJBDEt2C1R/fiZYk10nHDrgCqK9Ah/8KjiNgHGuCwEU2058BuAWVHqArLcORuViaqT/TR1qat03cY/tGWwt2iM1XFGa4PC6kYSQgAMwuV52c3ErtzE6QUXp/qGF3t7Q+v20s1I+ffwavB0A6WMCJySLe08B4wGrhBDVKIRobomBPQVrExi1FBGYDAv0GABaeuvkAk/Ay15pqJRgnx3Z8iOxYlQ4xScPmW4vph/BOiGwD6CdQdA8C9QN8t6UC2xk3h7hwo0GlMkkak8xGWHSBZ2OMecIBwiKQDO1DhG+FgbJC6VRCtfthAO/DuTd8EUHyV1BqMUSOQa4zBCcAx4CI9Xlnlc3S1MCRUCrAm+4IEQFIQykFHQJKW1OyifqQ8EaQ/AhEt6DzZT9FtbsGAM3a42NYP0QKCIsBOJUVu8OVy+d6bs/P026Zg7AYwIwRHygcICwAJp6HaDTNtQe48IgOcP8nkZsFmGgC4zXZ6wH1NUAoq1Y3FfT02GFGkvsQ155Afu7LkTQmMMcjIKf/CBfc+B7cfdXXUbwpBJCAVQ46KCIIreVxOhGBvRZR5/T+8NTQ3oIdgGGBcuZ4ckJ6WOVulwUGEEi3pLi1VqgjJ+RtiQcXcNb2PnaqdpOxxyUncRxBbKEPK6Dd5Ma6P8Up5QRRTRFOcOchXcelx2Um+gPRxf6yAmNjsgrRwAtI4mQCRTx2j9VIDICNEMQuZ/B3AL0ApZ+CavwW3/vYxl3WK/VqVB+13d7W77rZvaKnR3DBjT9CNJiDSRKba767/QYDCNAwfdm6e1X8psKoomlxuP/qnwP4U5x981zk+pchGXoTBKcDcirCzlnpZNulbGA3iiJlSh0p+1IKiOuASV4E138NoqcA/jkMPYSVV/9wxMERSt1qTPPy8fMZ6wGIfhzx0D3WPOXWHZXUtKWfAgAsWjQZVp7vIx7c5tJ2Rv9dAUNYQ+i36BQ7YUmvVbmsUCHG+dcfBUWPIRp41gUSjZ27HoQBTPQgjprzOEBiK7juzbWfAJWKPbZ76AWcf+P1MNHFSBoRaNyUsQRBZw6CBQCA2jZ7LRU9g6TxPUis3eRv+sZoIYYkAVgemrbfnELaWrCzEYJLWbPGd1jhnlZZazGxQ8Fq9k5LJXKCLF0u/QywFjfT5r45N0M55xsbO/u2P32MksTmnbdOWNKJjRPURKqZz99qpk+LiWXWe1uDHyQ7Z+bgpgKnua24IobIx9HdrfD7kzBAj2c+L/VqLHpUbISvExBT4dMkEkCuR6n7xgkJng0PEb5XNc1194FqNT0eQqmkUL1iJ4BbAdyKc284CFodj3joaJAcB8YpAOZD6AiQLIAr7+eujwIkApknAdQg/DxIvQjgSYC2gPgFaH4a3/tYf+uR29/s5Sx6vzpON7r0/N995f1AeRXKEzzOSo8AV45/zSfCPdd8CuWeiY0x9t5xcQTuPd2H1/Q/jgreAVSA8gQOZMOG5nW3G5zi2bvb/r1X/SO6ur6GxYsndu4q1xDKZcE9QFaF7s6PPAiULwGACV+zyaKnR9Dd7e6za6b5xyefthbsAFpar5Kd3bNxJWWVe85bBDw5f7pIs4a8yHDzPblgMmp7jR0AMLjziblgfRpLA2BWQgqpM71ZkAY2LsU1epJUnXe0avCA9XCADUgFvwWARY+WDizV3Q6Okydcz7g5xPEb7elrbW5SfbRFiE+RVjSMCQi1qUWskBdCV4/Vyu6/ehuAbQAezpYq9WrUHs2jXgwRFJv3VlIjdBDjsHl1bJ/Pu50AlXq1bRYzn1HtZvube/W4ClCRiV+aybyGJBNvvzvG77ZOMiZsdRGaeoG+C4R16xKsWzfxNUY9Hne80/E4DfvZCgDs7X3WdrS3YJeE0jxsS4s66iRappkrlbnukMWKOannhL44lVVcy1egjV3szn8lhg4SCg6TqCakNWWBcXB/itisn1TQA65mvDtn0uzyllWoA4gTA6X5GWD6n6FpgCY1Xmg9TZ5Jfd/Yw+OaqsGdBOvSPHLnh9/0KGExGJVKKrCHJratsnIFWICFGwTVXkaVDFqbxewTe2KZm9TztQfXKnUF7I49tS7OiHDaC9P5aMc905bU8a7F/kF7C3YoMDOIJTOlg8hVogSgBeLqwBPSQLoWM70z2YvT5EHi3IDc/nl+lR4BKiRKnw8DCJGAJbvrrEsCbuKC5rMsyCwZaZva7MsWRV5MAp0v/Lf9rf3/Rh6BzNDgNtW04XE5PzwANJW1ie6kABXGutZI5Mk+vhlLLZzEa9W26ZEjmIz93F+Otb1pa8EuIpQWp0lrvzfN6gKYVKjbv229ChqenS9wbVtTIQ+bmdTuPnZ3gyeN+J2AQFgoFeSURbmjVQvPsk8kNdWrZmBdap4n202HBLyl86B5T7b+lsczSfj7yeOZQdpasDPDFpthl8bmhHJqcm5NfxNqWt7Tzm6tgrxVo3W54O0r2G0pd/zR137+6oHNO04hF94uWdpe07BOzp1mU9vSrm3D/e8icG2YxQn6EAT8+ojnn5/EMpMej8fjaQfaWrArsDPFp03NmiZ2OPM6sRNqGrZcbNavvcX8PqyHO2x1ujZOdztjxfpgPc6M+7eu+4AOiwUTDTFB2UT+FlN7NrFxExlxMQfDTIBZzIFbB2DSWotJfrriijPjZgi9xzNBRKjc00NAT/ZRpSeNzvTWnwwRKvfsao/358oz1bS1YE+EKK2LTsw2mpvIRry7yHdxFddgMsE1ivldkMrFNIK+XQsMlXp7dbV0RvJa/q8TGzv6l7HEkglzwYhAOJUJbMpMGE6DF2TaPdy5yqrX2QnSXfb3/kNXu6ei5OTMURZRG6qjOzirJfCk12kXoVJ1/LCNvfrtcbZd7abpKe8qQl1roU+evZ5WAEmlUuFhYZcVoFwW9fxFEjzWD1m3GGYq6+GXenu1LRu5K1NyjSeCCHWtXatPnr2Ytv8WXCUyldGuTSW9R38ZblpwKi9eDK7QNLXuHf9+2vOxYIxtLipBJuvYSr1T31J10aOQSmUG2yhPEm0r2AmAMgk1m5m0wMii3VMfuwgN979LM2jMWrIlK9ICkXaV67Tp0QWEEtDY0fdXOuw4Jqn1JUQqu042QDCd63OLrx1oZgxQS4S8C7WzTXKEgkCbxuCLNEs9BRyAqW4Apm2QTCGS6mSm103XtidIqVd0lcisA5I0Pu7iNdvn5Qajgi6ImDrR7HlqsPJG6kel+WSVekVP1cSjrSajTrCNPEdL7/l1fl5uzrx0MVMngjKmev7hW9w9GgE25rDUK3oyheBumYr7aZru0b2adLxEaVvBDljZy8xQzGBFtgJdmqsOBVEAkWoWn2EFBQE7DVaRgJWtbEmKm9XabDGo9jPFi9A6ouSMuT9+g0H4nmRogAnQktV+Tx3mTolXbiaTVtxNJzzUNNnbDAJrsSAgCQqdYVwffKC/o/BMuSzqQJidWtJgA6HS6u2nRcngwUGuIxJXXZsCSBJFOdWhH7uja+Hzk5Pra7dx2cpnj44TOYGKHQ0ZrZp3mIAapFiZx+447/BNIkI0jkaZ1gl814Nb5tQHzWmSBIQwAeIAtvomKCeS5ER+8W/nHT64b8cxOun9Ue0mU1q1bS4rPkvYnKG0Pg5J8jIuqE4BRAqg/jp2Ll+96Xck8gwRfhb1D62uXkI77MGkNcX3EbedrjVrgoPqJ/0eqXAWIKY5jCUASOdz8YZblxy5ZarzubPnxwm2pff8Ot+Zm/dmBZwO0MsY8rIEdKikJSQKAESZ0urNv+Pvb90hnDyrSD/Ohn9SPdeWd8622wOZCqvDhd/rOyTfGZ9kOFGKm70EtCJKAk7uWHzwQxP/XXt+Sw8NHBZt6z8lyOVGPG9DuVzQubX6w5sezarU7e31KJfVW9/4V68NkWjDe9sDYSwSsDFBWNTPVZcc+vjkb396aWvBDsB1c7P3BJPruSEEIgYxQbJysXbscNlvyIztBq4UtLXPk+tZPvP5kiMolxWI+I3ffGT+wFPbvyxMs4WNzcBPBXlmiHexBtxM8ROmYd+nMfCZ8Z6NCEGbqAEi/v6G7tOitWskaNWw9mvcpK30KEKB+Vxh9kFvMPWhmJTrhiUwhTlzc6ZWuwrA11pT//b1N1nlL8sdNPtvk6G+iNQoTTBYmWB2Z5DU+u8B8M4epEUIdj/IddtISVMfNKdB6DtKcwgmgWICSDSRMiR9NTLnA3i01Ns7uS4VEVUh4ktue36hmhN8QihZSowT8nMOCgACxw1XqdU5fJRGGOYAEBp9W00we9YTb1u1aVUwq/i//p3oxUnbLwALk1d1SmD+t8rlF5mokRDY1V9UHOQLQVRX7wNw+6Rc491Q6hVdcRrkZfdveYUhuZIU3sAix4Wz5hWhNSSOwaa1Bw0AEFSYO4OU7T8Q92+H1vq50qpNjzHUNwfjbd+sLKMGKpi8CREy64kJ80NvItFf1aQCUi01pbUmlfDA5etx3ApgYkG1qWtz59CFhTlzbzS1wWjY8zb7oDCpD/146Wvf9daVqDT25Xosfe27Qg1zO5QuKkx+LWyB4nyxI0gatW8A+PBkb3+6aW/BLpx1Icv8yqNExZOIrUSn0jsNtnNhapLOouKtDNvFtD/TiFCpWqVvE2Hg6S1fEgl+n6M6kyKVushbqr9nq2Wi3GnykqXCDcsLTJdiFeR0Etd+U5g3536I0OIe8Lrd7NL+Sv/vfkOzwvlzVZibYxo1kHbjDBvoMI9oaKg4+b8qHTqXn50MESgY5ZESgYnq0IXOd5RWbb6rQvStUq/oiZgvDVGoRQ6mIKfAzTQHUhpIGiFDTe4zLELo6SEQ8aV3P/dWXcx9RYX5IyECEzcQ9W1PBEhnjS3rAXBmZCIV6jB/EohOigdry0sPbP1b8I7eRWcf31/BvmuiUUAUJjRPhbk5nMTOcgWAGSrMgaJoMpu57EK5XFaVbjIX3/v8sbl8+DeJ4T8J8sUciIC4gah/R5Im6sjI8wSA6kMiTnMlQqDC8EjShSMpid/cqQ6++tLVmz9++9kL7pwKjZ2UyoHoYKUDtHZ3JK0Bk+T3ZpuGpZgL87NNfWjY86bCHFAfmgucOAl7fiKATQdTkAvBU2CRd/cOGrVZk7/x6afNBTsRXC92K7RTWW6FtnIpblb3NoBRzvysbCQH2TUIyvbkc09bWzWBKZdVuQeofKbbvPrv1v5tUovfBUkMACUMkGKQuCj/dOIyLJCuWXGPlD12Sg8WyALpU8e70vqBH7z/lc90Pb0mqFSWJDN01FNNIkksYDbCnGrQRpJYay2TPyooGEligUgiSTzqMyUEJqOIwtw/vPOBbT/61ln09EQ0MiUQAsWSxLmWWsECZgIQq0mepZYBqlQqvPy+5z8UFGd9RZiR1IfY3XYEomCERHfRmwDgtDVmSaKaQMSEnXMPS4b6rycza02FaGdZRI0aULbHSCJJLMKGwcZp7GBJYkUjWx1OFq5zXYWIL131/GU6LFync4WjURuEadQkFeat56gZzmtnPumH1NymmLjBiBogQOlcfhGYv/e2VZv+MR4Y/MR333rsTrvO5Ah5EgiYE5FYA2lwEgBh0EQ19RFo7e7/UZ43EkzaGOOeg0CmQLCn9w5kCsaHGaCtC7CxCDGzLQFrjA0AYwa73HYWmw7HbLu/ibAd+9LPjC0dy2zN73ZZBreLxl7q1ahUuFIhfvXff78c102FjYhwokSEALaNstx/9jjt8dvjhT1mdkuwNc/bv1vPix18uTE0pDuLXwSE1lWWHBA38G4gEFltyeU6pn/b8WtysQYlV+Ivza0c8SKQNnEDOlc4umGSGwBgtFSoUbePEdtvfZ9EymVrfr909ea3hrPnfpGTJDFxg4lc43lX+0FEWERisQ1eIEAMkSQzhdmGBVBhPjT1oZoQva+69NDHy+WymsTgsF3PefOzqaHHFot42+rNH80VZ3+TQEfHg/3GPV5ENPwcQSQRQQy4ubc7bxBJ7NMKuHtDuXVhooZRuQJAONHoXOSWmdQBK3suRtyvgr07d8JjPG+jWCz2er9BDAIL0W5ervzo7l722EddF9m2D4zc3/bW2OHM5qkgTk2R7lYhA9emVAFiW5amQWPW/062eYxKQ8Rd6IYRW9VuBjnj8pvD9Su646X3/Dr//CPP/2082PikJInde3Kec+eGTSPfAUKa3Wcz1yQLlkuN9CNqwrsCPSI6V1Siolt+/GevemxGDtgDIkXxUB9ToC9929qtpcpiqpadL3um9w0AVSrEpf/cuAARbuIoDthETJmd2yIQo3MFHXbOVhw3kNQGkZ81L2Q2iAd2QgADZqVzeQWRGieN99x27uG3Q4Ta5Dj3jrIoVIgvXfX8tUGh+DnTqAuzYSI1PKbCSnmjw1wQFDsVKY14qB/CDB2EFBQ7FScxTG0QnMQJAN0yGTBBoaiTocE7D5ofv33F2UcOYYbHqXaCwJ0610lqdxo7EUxUH+ZiGPZ1EJIOAj2a6BZmrfNFUG1or9wR7UZbC3YRJnFap9I25k0pyUzT1t9ofY5MDGKVyfAU63MGBDorWGO13JkYY9x8kEjWr7giPuNLPzrldz/93XXE+kITRe6QlNXURTl3qgsScONrJsAFLbnp2WazezoT8CICpSGS7FD54g0AXK/nSWhN6dlTSIQlCPJk6rV/uGTdph9WgBfSwKaZ3LFyuUyVSkUQh++hfOFlXBsSUq1C3c4icx2zdTTY/7iY6PuG+Tkifr6xc+tJ0PpkAc4LCh05SWIhpfuTeOi9t517+O1pYOjMHd2+kU6+Llu16UIJchXTaIgwyy6THmZRuRwF+Y4gHtj5bMOYB8HJ0wQ8DZIoiZPZSX3wKAIdI8Dr8rPnHRYPDUBMwgJw2DknSAb7fpxr1N6z4sxjhtpo0jfjzB6A8Hz1X6YxWJRRTK4u0yQG6GRSqiAy4rQRQZLkRZMkLwK75sMLwBiSkEiemrKDmEbaWrCTWOsVgUXYqqW26YsV1c6m5DLXXACZck53pUAiYJArxGrbQguRsDXZT99MuCyqC2vVugoldjeFXv3/rfng0PMDH4MOjjaNAUNk+7Fm/nLiZvEdUNNakX5GALIEEnHH5rx4qeS3y5owXwyIa9ct/fPXPVF4YU2w7sD1rbc9REol9SHOzZp3vAz2f7bcgz/bcComNQJ6b9hwag8BFYjgEgUSIcruPutssKayaLD//yo211XPWfjksA2Uy6p78Ydfw43Bj5IKl8ZDO953+9Kjby+J6CqB99ceguVyWVUAKa158TBjcF0QhsW4Fhmi4dkPAjG52XN1NNj3u3qy838Fin7w7bMO3q11rLR646JG/47zAPpYkC8eCqWUqdceyQfqsm+ec8z2Um+vrpDP206plhC/ZRXeoht1FeSKuzwnhIZGI4gkL2t0ruOUuD7IbkwFREQFIRmJ/plDfDlX0wEHwyU/AWjUBtS8fGf/9BzR1NK+gp0Aw6xNlBAhVoC2XiClmrE6yrlO0vKypFxgShpoZj/j7HvYWDodQISn9thFqKtnrR54/te0vkLxOoDPue/5zs0//eXrF3363s9yJK8BCBLVE1IUiAs1Rhb77sZ5J6Rd+XjYqYprQQunmafCHS1NX6zkZx0UAo4GH5l3+MKbKwRBea3XAKafYYk+pLSKawOJCsP3/s/iLd+rLlnwnXJ5soLK9mbvhKpE5j1rts8b4uSoLHeyufMS5ApkGrVf3nbOwg8CwOUPSwgAj/VDFm5+VFW7T4t6K5UHu/7lyXcuPCz8/dvPP/onaWGbGTmmScJOeCCc4M9zc+afHPVtj4kobF1GABPkijoeGrhX1eX9t1146AsAgHJZlU4tBfO31+Wxk86Qk2eDtv/2UaqWTo2rRBsAbLjsnhe/Z6j+byDqIG5c9M1zjnwWImp/P2+TDpF8D9g43mJvW7UpGjVUwAqAbXd0LXh+Knav3WhfwQ4gLOb6Og+ZwyQmgkqvlhPSIFuBBk6BVc7Oni6lstgQyeJpXJsznQuUDvLb9nH3aJdxOP2nSxdaZytm4E3f+O/jtvxq45Jn1v3sj8XQEk4Y4ASAMCkVNIX3cNHe+q8s7Y3SuINW/zs1pwPU7NMORcScmMKs4sceeM+irTbXueIHjGnEVQqkXfx+zJo0yCTyxaUPbvl+5bXoR2VEPuM0Ue7poQogfTCztIhqBt9bSNz+M30fAEq//GVuxWmI0VpsJK2+1k11AD9JJwvTfSyTSllUtZtMafWWI0H6imRwABgxZoowhx2ztRka/Pa3z1nQDUBKvb16UakkFUCqRFG67LrmSpSWxP2PZfTEO+/asWznXODuNx2yvVTqndHJ0PYCaA/8+rYy6H0vTIv1s1yW3QZ7P38E9OEbYX5Jm3e7LwIEbhtph43h9ACVSUjHbAfaVbCLCDBr4SFfL86dtV6HudjKyCB7AxJA6eEXIAEopwVphkViq3QhCEAsgiAAkgTChvL53OMor7HHn747ukbszLrWf6wFsG6JgQtWHkbzn9J1868O2br52bfXtw2c+cIjT71BBR0nmEYDYiImZaePRKTEucGzGOfhZnS0yvjMh07NHHVrj1e7rCMCE+Q7tKL4Kw9+5LUrD4iBdj9CABN2zNLx0OD3CTw7KHT+QTw0IKSUM7UQmTjisKPzmI6+/r8H0Yes2Xpmr1FWJW3k5wCE5HVdaySonmaFVUlEo9qsze7y8sctvrPf0ANBBQDJm3Vh1mHxUN+wYEKBsM4XlWnUH0sCuhKAOL/42NfQnatyWVSpV/S3LqTtQLOsbBlOgPUA010Z8tuvVNHugs9GwSpW978wLa69sc5FqVdoxRXEy1dv2u36JLYOfLkso29r//QWjUq7CnYAwGOVczdiAuaXyWbdON+7QHO66M6NxS2/ebowsGVzWKtjdn5O4Y3C/IfxQOP03/3il0cqrQ6jsAgTNZDUdyY2I4a0SKpfu4h+ONO7MMQ1q8nasqbfZQVqXKhcqsGDIM7ZbovyKEDE6HyHBscPzj/xqDLsLHX/H2j3I8j69QAxmwjBp0yj/gAFYR4mQRoFTQAl9TorHf75Jfe/cF+V6HszEUhX6ekRVCqYAz0wSBITtcwmATsJiRqsc4XXLEi23n7Z/Rs/xjsO/3U2CRGhyx+WcPtvwdVuMnuZNdV+pH2QV29ZJiYW0C4Ko5DWLI3GjXecs+DZyx+WsEI0oVzw0co5z3QAJQj0tnU7F0TGTOgYkoAoSEQQJ7P2YDLgmQbaWrCf+PG7jm/s2Pn7Aoqhd7OrSklrpehsKa2RFfZSquWus5+TEEM5zzYN1/w1NEzLuhw1clF/owAYUBAExY7Cq0+8+juHIlDHS8JHSswLjJHZZotpjoUgmCgG4jgBSCllK4RJWkUv9Z+7ZvE2NY1sHfu00UsaFT/CLN9qKM0qz8GWlYUkrMKcEjZbdDH8wOrul+8s9fbqKnV73/o0I8aAoOZWzzn4J8tXvXhz2Dn3r+OBna2uIRI2HBQ6FCXqM6Uf7/hh9fXYbmdn0wiRlHpFf30J7Xjbqk1PgNQxuywCKI7qovPFixLmZZi/qVpavfluiP55legXWRlS16r0gOlBQCSyatPrRITSIFUAEBEOi506HhzckC/mquWyqJ4zkKyYwCbL5bKqVIiX3fXkYWFnoZBLmIHhBRHrQ326s/PgoVvPmrVpvL4Ck4HNEpIiR/UfhxOs5x4aF8KsaF5SHwSJi1P2zDjtKtgJgNQH6+8dGlCfJlMHVNz8KvOx2/e0CDER2XZJlClFWZAdYD9rzfNGGnCHuLn8yDoXJAAFUPlcFqFer8WAGAhHoMxVw5LVDKG0FzwRCQKrXWcl8pom9uzv1IxOqTS37+yi/1MNqiVOOTPPw/ktrNtISAUgRbEu4v0PX/uGX6I0yTXEPXuEuNyFwuyt5fpA39lBofO0pDGYmXSJSMe1QVOYe/Craju3XQOiT5Z6exVKo7cknSqqJXsjM5ublInPIjuhlOaDYHfWNGpCRDromP12pYO3R307Xiw9sOWnLPJzBfOfVaJVaRDgft1kyGUplFYPHskYWiBpVkqKgtiaPern33rTvO1dayQgonFM0kIQUIWIS/e/+G7VMetqUxvMCzTQsqoIuDj/4DBpDP3svWu3vAdAfcqzJqzCoVQQnrDHqzJD2GDYveKZUdpVsAMAOE6ktm1rojgSgfNMp9IMKhWemYADtQpkyoLOhn2m0nUFINUM/iVlA+5aQ/QorcNKTMrVwRYiUm6GgLR1nN2r1kh2SU3jqR/c1W5P69ynyUSZBo+meT7T4NEMTm7twj6a7k4w4o5BUUjv/9m1i+90yfBeqM8gRJDyGujK6w7pW/7Ai1ebuHEXkQ5sH2F7YyqldDSwgwOtriqtevGe6jmH/vDymx8OMZ3tWp3QuP28w+8sPbDpK7nZ8/4yHuwzbBsN6ZblCADioX5DAqEgPDQodl4E5oviof6h5as3P0FK/W/a8vw3K900sF8LdwAJokOVQI00NRNDcdwAKfwPRAhr1467rVKvbe26/L4X/pjy+a8ByKlcfhd5KGwQFjvRiOoDQ/ljp1VYchzt3eTBC/W2om1LyhIAJUxkVVBNyr6g3d+aNDRpKCgipaCVIqUUFBQUKVLU8pl92aYqShFBuc4R9l0p5XIeFaFZPpNI2XdQAEEOghwIoUACCDTASmybd7KR6ow0GM4WmWnm26fNbNKKcdLSZz57h2SV9lqXt+twFg2f/Ua6DWYRKFFhnnQx+MzPP/nmb+7vRUEOKNaCSyL6trMOvV8k+nJQKNLI0pUiApXL51noK2/54ebZh5/UP/1OSxEbEb11wV9HAzu/oHIFHeSLelgJVAeBNIgCNjHH/TuSaKjPkNIdOpd/pQrCf5RDDl9fWrlxaaVCXOrdtSDI/kIgMrq/WSniOBIWeRJEsnDz5rGvl9gI+0vvffHdFIZfF8O5pDZoTNTgJGqY1pdJkihp1Fgg9ak4pjEZqyTrOOVaPe1D2wr2FBG2Ebni6p5zs2a6rR0vJGASBtlKdSARcX8zMdt3gZCwewH2s2w5tw4LMcMuI3YZ2DiotOZ6yz6kNdqbVeysbGcntMnVuE8r3aXd6Xbdlrh69tm/UwMuc1YlT9jmqGfHDlcb3gjbznZEOkefeuRTby6XSr0aPT0+mqVNqPRAqgCXRVROd/59PDjwGx3mVTajg/VhJ42aCTo6XxXW5JOVJUsSQGhaTWpOa692k/n22QuuSmoD7+Qk/u9w9rwgyBWVbTVKac1zV+WJFIgCAmkxiXDUYBPVWQfhSZQv3r78gS3vr3aTGStVqZ3hsWqd27zSca0qpV7RIOLSyhfOCQrh1wAQszFEUM5rp1tfgGgiUiTTPz7bkvV79jpggiUPINr6YWMoJwi5qZ06LTjTfAHri2aTCUxwtlj6P7sduHWYWzRnNLVhOK0bsNsT2OYz2W8je7ebSn/LCfpse4CIae4ru98wAs608JZjArt8Irdd1+BGWo7ZLo9UXbfHI2xIaSUiJizm3vPzT735s2KYqtUSHxDpRgcS7nrcumTOFg11detn2SIC4iRiIrqytHrLawCSREbp7z4N+wkRuu3cw25Ffcu5yUDfpUmjfgezGYQAYbFThcVOBSISkRipndpqbopAKmnUGERFQL60fPW2N+2vmrsy8ehjJLOoXJ4U0ykQoU0LSqNKt3KaC3//ti4Jg1tFJCcmEbI5qm2Xq8JsEhGOJ/RikzCbWA6QjmgHEm3tYwfY+aNH9mFseqWzUDhy/mghCLFrAtPcTrYOKRvzmVVz27XHo13Opp+BFNKG7rsu19oPHUCWhjZsz5r7OizA3UW+gyEYno3WjCOAs+SL69SarkwQ4STIFQNQsjk/u/jnj/zNWbcDZRc04IV6O1JBlud85/L7N/2f3Kw5H2wM7jQqbSRCpDiOOCh05jmKbiiXy12/hCQYQ2mcMoika82aoLrkpM0A7gBwx4Vr+g4pcLwkrg1dqhQtEpHT8nMPDqOdW+1MkxQ1V1fKxFGcnz2vM+rf+fFSr/x4USmLAN1/7s9Ib0Yxze5vxrQIICqXpySJTwGRLBytfa5rfLP8+5vPAvNtOpefaxoNqCBUrUrHzPStGA4pDWEzpMBnM+t4TEuFQ0iRFo7B5h1B55xr46GBZhlXz4zS9oIdwk6utqSRskBcLfhUdGbCUwyglBXu0mzk08wbZ7BYT3pa6i39Ow08HR7OxlmOOZTKgvQgyJZIn1EhN7a5IHVyke1Cw/PQxUhLb3W4Wu/Z7mQCXGAb3kC5RRkQEoaQUvnOQOX0g0FH4YOPfGLxz1Dq1ah2mwOqysIBSrlcVr8O43I02H9urjjrhLg2mNUeT2vJ5+ce9MZH3/jhD6lAreXEzMhguW7JkqQ1fe2uJXO2AKgCqL5nzZOFPtN5UTSwbSkpej+FBXCjNky4A9BxbRCAnMkHbT+1Qgc9UpJeXaVpDArcW1K3xEWHPPe2VZs3EaljhxXkI4hzlb2ytHLHQVW4NMVR4lqUkYIhuVrq9TorKLABMSuCSljTy3OFjoqpDxrBNFtnWrHjD3/7nMN+sqervu2+F15j3TTtZn946dLegl2csuxaudiMMdfElI3TpoFMuqZpZDaSF9Js/DJiGeuztstYX3gaQW9/V1y0vQBiI+htjrnrFCcGaY36VolM6bbIvmf7Crdx4Sxy3/4+Q0xL85ZsH+02iWy+u7U+iLCI0WEuUAoIC/jK7KM7yg9+4A+32VKxPqVtf6BC1iRdXUJbLl39wrWcxP+utA7EmCxKngBKaoMMwickMUVABknpudOt2ZXLooZXPxMql0FrF0N9fQnV4YT88vs3f4skuknliqeauMFuKgoiECcxB/niQq7XjwXwyKa1o5us2xchxuYfaqWOkWbXZBBIc33QhJ1zTkoG+94Oov9z+cMSrGgtVZpODs5ZePfutl56YPPJKpevJLXB3dT8m15Kv5Rc9VRMqEAN3IjFqzaF4y7pmVbaWrCzEImI1VRVi25OrnVra3GXEcZvuPxvaok4z3xaKl3CThgANLXqzH4vbts8XINPBbi0aOvpfrUumWr1I8zoTctBap53vvvsOwBZo5fsSAwEOijOCkDRrwoHzf3oI59YfCcA+Dz1/Y9qN5lSb6+unn3Yd5bf98J3wtlzL4uH+jlzwBARxw0Q6cNF5G9JUp/UNO5ka//0LIeapFKBoAKGCHWthT751+tpxbkLHlh+/wsfIVW4UxHlmlZpIhDicNassJ7UZwPAyb9eT+um8TD2CXfcWm/6dwpyf4xGTVoDxRgElcSaVO7Dlz6w7e4VZ9LTo02yS72i529frx476YxMoy3WfqNrxRNNnLx4UNhGVdvm1zHxWumudDDd92L7HIAHQJsLdgAumM258KhFeIozdSsbnGZzxlvLsbpiq+Lq06RubPfenACw+0s5k7uk+oY1z7vJQXNagcxELqo5yU7F9jCPvVgzv6R1PtTuGr04X7ukmSN2ipHuKIVFrbREiswXF5xy9PU//NPTNzed9D5PfX+kWiq5gjDqyniw//UqzB3NcSTUUnRBxACkOkFkC4BMU/hxuVxWFSIu3bNxAWYBVaLNrhpeKtgERLIOSBavkaBrzZogn+DJem1gZxDmD+Mkbm2Zac1i++FdWu4BVQAJKH4oGtz5lA7yx3ISMdyxEaCTRo3DjjmnyFD/itKqJ7qr57x8J6ylIw0oFFcqtnkGRKhr7XNYt/hEc8lq7Vsoeyad9g50ECFmuGj3Ee9IU82soBUGhE1LuplNHXPfNtfhNH0sTUNDc5tZGlmaVibN7WXLp9ty67Zur3VZHvG7aNnesHQ3bm7XRsuLjUwlggqJghzlC/rOwkGzlzx23YUf++Gfnr7Z1n6nA6IL0UsWIimLqDvOX/g8FK4lUqnJqOWaUjMLYpooi6hKpcKX3Pb4QgnD29AI7rr0gW3HgCjLtOhaI0HXGgkgQpUllKxbsiRpKDohP+egw0ySJK19sAkIGn3bDQtvAYDHZiI/fy9JI/lvXXLkFmj91aBjFjCiaBCRUslQP+tCx7mi5t5x8Zrtx6LizhWRlMuiLr/54fDyhyVMzxmIZN2SJQmIRCHwgr2dcJ33yiKq1Nury2VR9jPRTXOuUFns5zO7s7unzTV2dqmizpxOsH7uNFJd2e57Vtt2xuxh7U+BVud6M9odSMu4ChgkKvOHDzPvu2Wb5nZpsQUg+4U0AK7VWjqqBg80rQ6SLpdZAQTCiRBCXZgVkGnUg5z+UcdBc3ted/7sh1aceWbcVV4TrMNaxn5cycvTpAKI6+jWu/y+Fy7MzZn37mhgp6GZCqIqi6oQ8R/f93xnI8x9Myh2vonjGNyorS2t2frJAPVVty45csu6Jc36p6U1L86CUBcb/IupDYII2b4LIDrMKRNHG5noSQAYt5BLm7HoUeufU2s3/XPUv/2dutBxatIYGn6NiBQ3akbnC0ukXv/p276/9XMsjW8PNQ5/obKMGhjRIrRrzZOFhWb2wUz8BiC5MqkNAsB+lwp4QNLsUtikAgz/jKTS5oGCbS3YbVU3l3OeGq+zNDSCZEFy6Tke4cd2Mn3XcqyWtKmDjaBXIzz06YQhi5Zxk+1mFHzT/95aEtZte6SvfZinniCtEXtiQ/N1oTMkiWqKovvmHDn/az//1Dl3A8AjnwZQ6tXrKkv87P5AgkjQ2wsnOD4TDfSdq3PFQ01Un/60IZf7efnDEm7fvvkrQaHj7GigzwAgHYbHqrDwrahuNixfvWUtIBsgoknRy9ngVTrIdWklthzpsCpkIjpfhCTJI2rbC0+VRVRFqf3KKF+pEJdOFV3tPvSF0pqt13AcfVepIBCTDDtWAXRSr7EKwgU6l78+HuKeWbmtD7xt1aZfgehJAiVAMgvQL2MjJzDk9WFh9gKOG+Akgq/eNtPYNMzSmhcPS6LgEFEm0kqHwrqmg8amel90/OFHvvg/K848I+laAz2n75ljOztz/f9+9mEvpuvO9BG00taCPS3+kuaRp+fPBp1xFj0OUq3SN1Obsz/JRbm3Rs63qNdWK2f3XRbC5DbgHPPSsnlqpqrZ5TDi95sR8ELpBCNT69kacJRWKnCVbQm5znAjlHytY/bc+//ns+f9iBlAqVej1xWbqfoAuQORane3cQFXj5dWb/kbAF9TSsloadFThjMPl8uifrntxRW52fPfGw/s5DQFj+NYTByLzuUX6XxxkQ5tEDQnCUzUgKkPpf5katmmqCCEqQ9Ghs2Xb+8+LSqXJbCVlvYvqt1kIEJVopXLVz1/bVCYfRMLg9kM689OREqSWOIkFlJqVlDouFiFuYtVYJVxEUASA04imEYdWcDk7oV6WwmLA5lSb1VVu2HYqOVK8TsAHCJsEkVyr4lpzdyjD/3nrdtyXwDoc4dEm9+eP/SwSjyw4+sAPlPqhap2t1cUSXsLdqSCfbgZPNOeMz2Zm5HqLQF2gBOsGOmmHEWDT+V0Zp4frcBNc/3hBW5at6SsJk8KJCyAEhExECEhFahcQeswgCQ1gPiFwryOh4N8fkXx0FkP/vdH/mgzAKBU0qVSCdXubjOtkdCeGaHa3W3KZVGVs+mflq968S25zjlviQb6hJSa+qvv/ISlXtG/PGjrN/KzDn5nNLCjDqJCtoyN6CMTN5ijBkeUNkQSJUQ0rEmM3aYAZIJCRxAN7Pza7eceep9rBrP/WpyIpLxGgsoS+tKl972YD4sdnyXh0ESNmIAgE87uXIFZ4toAo0aMLFw3cxYqEqjdWWXIDigxAKrl/AgwHVS7uw1EqHDv1luizs57JBpYo5TchHjo6yooXKrz4aGAev+FD8uXacemy8JZ4fH1QToYADYtWNt216itBbs1eYuLjKdh31gx6rq0pcLY1rG22rFqEfipV7xFE7d++qa0byrxBtmEQKw2nSnhSC0HImmlO0k7xqWFaIidsmVIyFaDVmGHCnIaiqIBE5v1QaAf63jZET+dfeys6k/f/bq+5nGVFXpPJXR3c7Va9bP1fULEOUHSedsUR6FZx1H2G7R3v6cQfjhp1M/U+cJhJmq4KPkRmyG0znb3ba8BEJHk73u+UIfakjRqrHL5gqnX2PY/Sk1RgK0Lj9byciOkjogIRBGpoHNuEA30fae4YOHVImIPorJv+zoM++BPyjmfKJUllLjKgdctv3/LEzoXfi4/7+ATor5tEBanfdudcwJeI/Odt6oFhOEnrlla0zr0dRDOKiIZGpBiAZM+GcqehTT5xv0y0b6cu+l+3kaHdn9fTGj9by47pE8g/aX7+wfA2Fhd+rJtb1u1pTj43KZHiFSS2/L8TdB67tCm7TXi9u1/0L6CnQCBEDODRFTWohVozn9d4RgAzWIu6UPDaWCbNE3sgpZlnJAeaZp3f9vFpfkZgKw8BYGItCssYzuyp02ORCkiIuhQIVfQ21Sgn4zr5v4gpA1zjjr8mV98cskPaViKmrML2ANidE/ZGX0JIZp0QAAFpJ0Z1JiAdJBGXkwqJKxIBwRBQEFgDT9JEth9mFjmSRqBXT2HfnfJfS98Jj973j9yEtvMqpF7zEKkNZDEASf7djzkIt3/7bzDBwF85NKVG/9T54ufzs896FVJbbCZaQIxw6JDs2OHiJ2+KlIB6SAkU68lUf+OGxv1uHLbq9XQLbYa0+QO8oKAdEAEpUm7U2xYkw4g1JgyDapCxOWyqMq5dHvpvud/ZsR8CIK/yM2a05HUa1ZGs4FADAmJ0K6R05mxz44aipS2Fn0iBPkOagzseKGxfeetBF2tnkaRXWlyzp9rMh2QDjJrDQCQ1uCE90oeCIF297wB09sfQFh2vS9YiHQAihoTeBaFun+MAgYpB1ABIkSrtwZCagBi7u887PCeoc2bPy+czAfRnKk9mr2nfQU7ACJKlFaGoA2lZeayVugtLr1UcyDVHLatnG9+1jIByPzhzkw/bDvZd+kqkm3fTgoUQGLExAMCQa6jsxZ05IaCQG8NcuEzpNSjcS1+0Jja07OPX1g/6OiT+n/0rmO2Z0F1fwOccfnN4fFnz+dqd4mRBl20nTFn/0WAQU6SQYEYMcYNLGI4jgOt3EA5iTCowXE8JIRYjLHPFCHhOA5FMDTR7VQfhZR6Rfcb/KsafPGCID/rLBMNJbuUGhU3xRTpB/Gk+fZKvb26uvSI20orf7cm0fR2E8cfIqWOJ6ULYbFTA4CYBK2zXxWEmZ9dmHcaY+4lSr747XMO/6ndVyGaZKGeS0QEPMAmGRRhFiNpeh1zkii1u1ark0Q2CTuPngRwzaUrn/taUh8qiTF/TERHk1bFIN+hldJgkzjFsak9qDCEMIPjCCaqg9nUYOIdRPSTWEuvAv2wd/G856Zi30kkFkKfGKOt5iKZSYaAgb3ZpiYVcRwPCSQZ9rwliQYwOFn7PkEGOBl5X0BgDDGoMf7qJB0NkUHhAWiKQCSyanNDRBqG1K2Nvp1/Hmp1u2GcySSTPpZMFu0qTgiAvOJv7jomFj4TQCSKCAlASu9+kFAtbTBJtSw3cuxrjpNByzpmxLZHTjVJKZFEKQpU36OfWvyjiQ9YZXXG5Ufo48+ez9XSS6Tz2hk3h1h/RYwLrv8+VLAELEtw95VrmzXtpwgRunT1i8cR5WaBxHAS2VDFICccJ4Ho+NnvnHPU1sn8ydJ/9i1IhmpHqDBIRv4ehWbH7Wcd8fSe7D+I5E9X7jioT/ORCTdGuVdy4CSmQhgkhef6n/z6+46rT1ZkbqlXtCuoAgB466ptb1Qwr1eQPyAdHCyJme+8U4oIddLBNubk1wL8Vyzm/jvPPuzF7DiASdM0R+4jFuw8jk29AxS2XONZAhnUSnJPV885aOdk/+5IyiKq0gOk6aflclk98sYrziAEbyKiVxHRoRA+CKCgGfgjBkptIsNDAjwFpTaIkV889eTTP19/xZnNCYkIlapQrddin3D31bse3DKnPkhHp+cshRVRjthUzzr8f/b0mr111bMHkwmPGnn/Q0iLRAO3n33ok1M+5rnjK63ZcQIbdvfFgDvGHAIVE2J+obrsiM3jb0po+arNJ5gw3PzdJfN3vHXVzoM7IHPj7XOfNh1PHvXKzqef29BYdCwCXauefchzzcqM7UO7Cvb9GQLKhLL7V0/PS7OQzEwJ9gOCGU6fGUMoL71ny5xDdGy2mFDXigcPtea0D1v/JXTPuxiCUc/Xe/7lycL2+bPCOcWEG7nDqNa/ke96y5G7t+JM4YTI89KhrU3xgBDK7Tj56AEqld2l7QhQaQYKVSYzYsgzIcaqCGVH4EkeNGXschV7PEhnEaETWHQKBEDLNstlURt6QPPXQ23/Lbi6jPpaF738YQkf64cs3AyplpBVXJv0fRrJmNd4eoUiDTtfZbXh1B5Ka8N/3TbLqbcuf/nDEgJAet4WPdojlXQ82S/P3WTf//vAZD37wyanWfluyT73EzDPS5IzbrbJzhdc/31c9EXBBV9YDMDm5nv2X0Ro2MszNiPPlz9nnmmgzTV2j8fTVngNZc/w58szA7RtHp7H4/F4PJ49xwt2j8fj8XgOILxg93g8Ho/nAMILdo/H4/F4DiC8YPd4PB6P5wDCC3aPx+PxeA4gvGD3eDwej+cAwgt2j8fj8XgOILxg90wtQgwBY1hTHo/H4/FMFV6we6YWkk6EeQWIr3Lo8Xg804CvW+yZKmwD6ouvPxqiO8Adz+CuKybcm9zj8Xg8Ho/H4/F4PB7P1CKEctm7fDwej8fj8Xg8Ho/H4/F4PB6Px+PxeDwej8fj8Xg8Ho/H4/F4PB6Px+PxeDwej8fj8Xg8Ho/H4/F4PB6Px+PxeDwej8fj8Xg8Ho/H4/F4PB6Px+PxeDwej8fj8Xg8Ho/H4/F4PB6Px+PxeDwej8fj8Xg8Ho/H4/F4PB6Px+PxeDwej8fj8Xg8Ho/H4/F4PB6Px+PxeDwej8fj8Xg8Ho/H4/F4PB6Px+PxeDwej8fj8Xg8Ho/H4/F4PB6Px+PxeDwej8fj8Xg8Ho/H4/F4PB6Px+PxeDwej8fj8Xg8Ho/H4/F4PB6Px+PxeDwej8fj8Xg8Ho/H4/F4PB6PZz/m/wc8A1l3/+0KYgAAAABJRU5ErkJggg==;" parent="1" vertex="1">
          <mxGeometry x="694" y="33" width="132" height="52" as="geometry"/>
        </mxCell>
        <mxCell id="MC85YrfVaI_m6A-9rOTC-13" value="SOAP/XML" style="text;html=1;resizable=0;autosize=1;align=center;verticalAlign=middle;points=[];fillColor=none;strokeColor=none;rounded=0;" parent="1" vertex="1">
          <mxGeometry x="200" y="660" width="80" height="20" as="geometry"/>
        </mxCell>
        <mxCell id="MC85YrfVaI_m6A-9rOTC-22" value="REST/JSON" style="text;html=1;resizable=0;autosize=1;align=center;verticalAlign=middle;points=[];fillColor=none;strokeColor=none;rounded=0;" parent="1" vertex="1">
          <mxGeometry x="300" y="540" width="80" height="20" as="geometry"/>
        </mxCell>
        <mxCell id="MC85YrfVaI_m6A-9rOTC-25" value="SOAP/XML" style="text;html=1;resizable=0;autosize=1;align=center;verticalAlign=middle;points=[];fillColor=none;strokeColor=none;rounded=0;" parent="1" vertex="1">
          <mxGeometry x="720" y="660" width="80" height="20" as="geometry"/>
        </mxCell>
        <mxCell id="MC85YrfVaI_m6A-9rOTC-26" style="edgeStyle=orthogonalEdgeStyle;rounded=0;orthogonalLoop=1;jettySize=auto;html=1;exitX=0.5;exitY=0;exitDx=0;exitDy=0;entryX=0.5;entryY=1;entryDx=0;entryDy=0;" parent="1" source="MC85YrfVaI_m6A-9rOTC-3" target="MC85YrfVaI_m6A-9rOTC-2" edge="1">
          <mxGeometry relative="1" as="geometry">
            <mxPoint x="500" y="750" as="sourcePoint"/>
            <mxPoint x="760" y="640" as="targetPoint"/>
            <Array as="points">
              <mxPoint x="500" y="720"/>
              <mxPoint x="675" y="720"/>
            </Array>
          </mxGeometry>
        </mxCell>
        <mxCell id="MC85YrfVaI_m6A-9rOTC-27" value="REST/JSON" style="text;html=1;resizable=0;autosize=1;align=center;verticalAlign=middle;points=[];fillColor=none;strokeColor=none;rounded=0;" parent="1" vertex="1">
          <mxGeometry x="631" y="290" width="80" height="20" as="geometry"/>
        </mxCell>
        <mxCell id="MC85YrfVaI_m6A-9rOTC-23" value="REST/JSON" style="text;html=1;resizable=0;autosize=1;align=center;verticalAlign=middle;points=[];fillColor=none;strokeColor=none;rounded=0;" parent="1" vertex="1">
          <mxGeometry x="300" y="290" width="80" height="20" as="geometry"/>
        </mxCell>
        <mxCell id="MC85YrfVaI_m6A-9rOTC-30" value="REST/JSON" style="text;html=1;resizable=0;autosize=1;align=center;verticalAlign=middle;points=[];fillColor=none;strokeColor=none;rounded=0;" parent="1" vertex="1">
          <mxGeometry x="210" y="135" width="80" height="20" as="geometry"/>
        </mxCell>
        <mxCell id="MC85YrfVaI_m6A-9rOTC-31" value="XML over &lt;br&gt;TCP/IP" style="text;html=1;resizable=0;autosize=1;align=center;verticalAlign=middle;points=[];fillColor=none;strokeColor=none;rounded=0;" parent="1" vertex="1">
          <mxGeometry x="724" y="120" width="70" height="30" as="geometry"/>
        </mxCell>
        <mxCell id="MC85YrfVaI_m6A-9rOTC-32" value="&lt;div&gt;Orchestrates the calls into the downstream composable system APIs.&lt;/div&gt;&lt;div&gt;&lt;br&gt;&lt;/div&gt;&lt;div&gt;Handles data transformation/aggregation for upstream response&lt;/div&gt;&lt;div&gt;&lt;br&gt;&lt;/div&gt;&lt;div&gt;JSON * x &amp;lt;--&amp;gt; JSON&lt;/div&gt;" style="rounded=0;whiteSpace=wrap;html=1;align=left;" parent="1" vertex="1">
          <mxGeometry x="584" y="370" width="210" height="140" as="geometry"/>
        </mxCell>
        <mxCell id="MC85YrfVaI_m6A-9rOTC-35" value="&lt;div&gt;Convert/transform SOAP to REST&lt;/div&gt;&lt;div&gt;&lt;br&gt;&lt;/div&gt;&lt;div&gt;XML &amp;lt;--&amp;gt; JSON&lt;/div&gt;" style="rounded=0;whiteSpace=wrap;html=1;align=left;fillColor=#f5f5f5;strokeColor=#666666;fontColor=#333333;" parent="1" vertex="1">
          <mxGeometry x="770" y="585" width="210" height="50" as="geometry"/>
        </mxCell>
        <mxCell id="MC85YrfVaI_m6A-9rOTC-28" value="REST/JSON" style="text;html=1;resizable=0;autosize=1;align=center;verticalAlign=middle;points=[];fillColor=none;strokeColor=none;rounded=0;" parent="1" vertex="1">
          <mxGeometry x="635" y="540" width="80" height="20" as="geometry"/>
        </mxCell>
        <mxCell id="MC85YrfVaI_m6A-9rOTC-38" style="edgeStyle=orthogonalEdgeStyle;rounded=0;orthogonalLoop=1;jettySize=auto;html=1;exitX=0.75;exitY=1;exitDx=0;exitDy=0;entryX=0.5;entryY=0;entryDx=0;entryDy=0;fillColor=#d5e8d4;strokeColor=#82b366;" parent="1" source="MC85YrfVaI_m6A-9rOTC-4" target="MC85YrfVaI_m6A-9rOTC-2" edge="1">
          <mxGeometry relative="1" as="geometry">
            <mxPoint x="530" y="473" as="sourcePoint"/>
            <mxPoint x="675" y="580" as="targetPoint"/>
          </mxGeometry>
        </mxCell>
        <mxCell id="MC85YrfVaI_m6A-9rOTC-39" value="&lt;div&gt;Convert/transform SOAP to REST&lt;/div&gt;&lt;div&gt;&lt;br&gt;&lt;/div&gt;&lt;div&gt;XML &amp;lt;--&amp;gt; JSON&lt;/div&gt;" style="rounded=0;whiteSpace=wrap;html=1;align=left;fillColor=#f5f5f5;strokeColor=#666666;fontColor=#333333;" parent="1" vertex="1">
          <mxGeometry x="30" y="585" width="210" height="50" as="geometry"/>
        </mxCell>
        <mxCell id="MC85YrfVaI_m6A-9rOTC-40" value="&lt;div&gt;Convert/transform REST to REST&lt;/div&gt;&lt;div&gt;&lt;br&gt;&lt;/div&gt;&lt;div&gt;JSON&amp;nbsp; &amp;lt;--&amp;gt; JSON&lt;/div&gt;" style="rounded=0;whiteSpace=wrap;html=1;align=left;fillColor=#f5f5f5;strokeColor=#666666;fontColor=#333333;" parent="1" vertex="1">
          <mxGeometry x="30" y="225" width="210" height="50" as="geometry"/>
        </mxCell>
        <mxCell id="MC85YrfVaI_m6A-9rOTC-41" value="&lt;div&gt;Convert/transform REST to TCP&lt;/div&gt;&lt;div&gt;&lt;br&gt;&lt;/div&gt;&lt;div&gt;JSON&amp;nbsp; &amp;lt;--&amp;gt; XML&lt;/div&gt;" style="rounded=0;whiteSpace=wrap;html=1;align=left;fillColor=#f5f5f5;strokeColor=#666666;fontColor=#333333;" parent="1" vertex="1">
          <mxGeometry x="760" y="225" width="210" height="50" as="geometry"/>
        </mxCell>
      </root>
    </mxGraphModel>
  </diagram>
</mxfile>
